<?xml version="1.0" encoding="UTF-8" standalone="no"?>
<!-- Generator: Adobe Illustrator 16.0.0, SVG Export Plug-In . SVG Version: 6.00 Build 0)  -->

<svg
   xmlns:dc="http://purl.org/dc/elements/1.1/"
   xmlns:cc="http://creativecommons.org/ns#"
   xmlns:rdf="http://www.w3.org/1999/02/22-rdf-syntax-ns#"
   xmlns:svg="http://www.w3.org/2000/svg"
   xmlns="http://www.w3.org/2000/svg"
   xmlns:sodipodi="http://sodipodi.sourceforge.net/DTD/sodipodi-0.dtd"
   xmlns:inkscape="http://www.inkscape.org/namespaces/inkscape"
   version="1.1"
   id="Layer_1"
   sodipodi:docname="back_SR.svg"
   inkscape:version="0.48.4 r9939"
   x="0px"
   y="0px"
   width="595.279px"
   height="841.89px"
   viewBox="0 0 595.279 841.89"
   enable-background="new 0 0 595.279 841.89"
   xml:space="preserve"><metadata
   id="metadata413"><rdf:RDF><cc:Work
       rdf:about=""><dc:format>image/svg+xml</dc:format><dc:type
         rdf:resource="http://purl.org/dc/dcmitype/StillImage" /></cc:Work></rdf:RDF></metadata><defs
   id="defs411" />
<sodipodi:namedview
   showguides="true"
   inkscape:cy="675.39027"
   inkscape:cx="297.64001"
   inkscape:zoom="1.0333891"
   showgrid="false"
   guidetolerance="10"
   gridtolerance="10"
   objecttolerance="10"
   bordercolor="#666666"
   pagecolor="#ffffff"
   borderopacity="1"
   id="namedview9127"
   inkscape:guide-bbox="true"
   inkscape:current-layer="Layer_1"
   inkscape:window-maximized="1"
   inkscape:window-y="-8"
   inkscape:window-x="-8"
   inkscape:window-height="1058"
   inkscape:pageshadow="0"
   inkscape:window-width="1920"
   inkscape:pageopacity="0">
	</sodipodi:namedview>
<rect
   id="rect7565"
   x="-3.15"
   y="-4.236"
   enable-background="new    "
   width="604.665"
   height="855.999"
   fill="#FFFFFF"
   opacity="0.5" />
<g
   id="g7569"
   opacity="0">
	<polygon
   id="polygon7571"
   points="22.172,503.255 22.219,506.998 30.855,499.404 30.855,495.482  " />
	<polygon
   id="polygon7573"
   points="22.242,487.925 22.291,491.667 30.926,484.076 30.926,480.152  " />
	<polygon
   id="polygon7575"
   points="577.877,806.792 577.969,810.515 570.1,819.025 566.252,819.029  " />
	<polygon
   id="polygon7577"
   points="33.373,819.189 29.346,819.203 36.191,810.447 40.031,810.3  " />
	<polygon
   id="polygon7579"
   points="569.075,35.972 569.075,39.895 577.111,32.752 577.111,28.83  " />
	<polygon
   id="polygon7581"
   points="22.01,472.642 22.057,476.382 30.693,468.792 30.693,464.869  " />
	<polygon
   id="polygon7583"
   points="22.08,457.314 22.127,461.054 30.764,453.462 30.764,449.539  " />
	<polygon
   id="polygon7585"
   points="22.01,442.111 22.057,445.851 30.693,438.259 30.693,434.335  " />
	<polygon
   id="polygon7587"
   points="22.08,426.783 22.127,430.523 30.764,422.931 30.764,419.008  " />
	<polygon
   id="polygon7589"
   points="22.01,411.581 22.057,415.32 30.693,407.729 30.693,403.805  " />
	<polygon
   id="polygon7591"
   points="22.08,396.25 22.127,399.993 30.764,392.4 30.764,388.477  " />
	<polygon
   id="polygon7593"
   points="22.09,381.131 22.137,384.872 30.773,377.28 30.773,373.356  " />
	<polygon
   id="polygon7595"
   points="22.16,365.801 22.209,369.543 30.844,361.951 30.844,358.028  " />
	<polygon
   id="polygon7597"
   points="22.09,350.517 22.139,354.258 30.773,346.667 30.773,342.743  " />
	<polygon
   id="polygon7599"
   points="22.162,335.188 22.209,338.929 30.846,331.336 30.846,327.415  " />
	<polygon
   id="polygon7601"
   points="22.09,319.903 22.139,323.644 30.773,316.051 30.773,312.129  " />
	<polygon
   id="polygon7603"
   points="22.162,304.573 22.209,308.315 30.846,300.723 30.846,296.799  " />
	<polygon
   id="polygon7605"
   points="22.172,289.289 22.219,293.03 30.855,285.438 30.855,281.514  " />
	<polygon
   id="polygon7607"
   points="22.242,273.959 22.291,277.701 30.926,270.108 30.926,266.186  " />
	<polygon
   id="polygon7609"
   points="22.252,258.84 22.301,262.581 30.938,254.989 30.938,251.066  " />
	<polygon
   id="polygon7611"
   points="22.324,243.511 22.371,247.252 31.008,239.661 31.008,235.737  " />
	<polygon
   id="polygon7613"
   points="22.334,228.226 22.381,231.967 31.018,224.375 31.018,220.452  " />
	<polygon
   id="polygon7615"
   points="22.404,212.896 22.453,216.638 31.09,209.045 31.09,205.123  " />
	<polygon
   id="polygon7617"
   points="22.334,197.777 22.381,201.518 31.018,193.926 31.018,190.002  " />
	<polygon
   id="polygon7619"
   points="22.404,182.447 22.453,186.189 31.088,178.597 31.088,174.674  " />
	<polygon
   id="polygon7621"
   points="22.252,167.246 22.299,170.986 30.936,163.395 30.936,159.472  " />
	<polygon
   id="polygon7623"
   points="22.324,151.917 22.371,155.659 31.008,148.066 31.008,144.143  " />
	<polygon
   id="polygon7625"
   points="22.172,136.632 22.219,140.373 30.855,132.78 30.855,128.857  " />
	<polygon
   id="polygon7627"
   points="22.242,121.302 22.291,125.044 30.926,117.451 30.926,113.529  " />
	<polygon
   id="polygon7629"
   points="22.172,106.101 22.219,109.841 30.855,102.249 30.855,98.326  " />
	<polygon
   id="polygon7631"
   points="22.242,90.771 22.291,94.512 30.926,86.92 30.926,82.998  " />
	<polygon
   id="polygon7633"
   points="22.172,75.569 22.219,79.31 30.855,71.718 30.855,67.794  " />
	<polygon
   id="polygon7635"
   points="22.244,60.239 22.291,63.981 30.928,56.389 30.928,52.466  " />
	<polygon
   id="polygon7637"
   points="22.252,45.038 22.301,48.778 30.938,41.186 30.938,37.263  " />
	<polygon
   id="polygon7639"
   points="22.324,29.708 22.371,33.45 33.662,22.534 29.771,22.534  " />
	<polygon
   id="polygon7641"
   points="21.848,533.707 21.895,537.447 30.531,529.855 30.531,525.931  " />
	<polygon
   id="polygon7643"
   points="21.918,518.376 21.967,522.117 30.602,514.525 30.602,510.601  " />
	<polygon
   id="polygon7645"
   points="21.848,564.152 21.895,567.894 30.531,560.302 30.531,556.378  " />
	<polygon
   id="polygon7647"
   points="21.918,548.824 21.967,552.564 30.602,544.972 30.602,541.048  " />
	<polygon
   id="polygon7649"
   points="22.172,503.255 22.219,506.998 30.855,499.404 30.855,495.482  " />
	<polygon
   id="polygon7651"
   points="22.242,487.925 22.291,491.667 30.926,484.076 30.926,480.152  " />
	<polygon
   id="polygon7653"
   points="21.928,594.849 21.977,598.591 30.611,591 30.611,587.076  " />
	<polygon
   id="polygon7655"
   points="22,579.521 22.047,583.261 30.684,575.669 30.684,571.746  " />
	<polygon
   id="polygon7657"
   points="22.172,625.464 22.219,629.205 30.855,621.613 30.855,617.689  " />
	<polygon
   id="polygon7659"
   points="22.242,610.134 22.291,613.876 30.926,606.283 30.926,602.361  " />
	<polygon
   id="polygon7661"
   points="22.01,655.914 22.057,659.654 30.693,652.062 30.693,648.138  " />
	<polygon
   id="polygon7663"
   points="22.08,640.583 22.129,644.326 30.764,636.734 30.764,632.81  " />
	<polygon
   id="polygon7665"
   points="22.09,686.691 22.139,690.433 30.773,682.839 30.773,678.916  " />
	<polygon
   id="polygon7667"
   points="22.162,671.361 22.209,675.103 30.846,667.511 30.846,663.587  " />
	<polygon
   id="polygon7669"
   points="21.928,717.14 21.977,720.88 30.611,713.289 30.611,709.365  " />
	<polygon
   id="polygon7671"
   points="22,701.81 22.047,705.552 30.684,697.96 30.684,694.037  " />
	<polygon
   id="polygon7673"
   points="22.172,747.753 22.219,751.496 30.855,743.902 30.855,739.98  " />
	<polygon
   id="polygon7675"
   points="22.242,732.423 22.291,736.166 30.926,728.574 30.926,724.65  " />
	<polygon
   id="polygon7677"
   points="22.01,778.203 22.057,781.945 30.693,774.353 30.693,770.427  " />
	<polygon
   id="polygon7679"
   points="22.08,762.875 22.129,766.615 30.764,759.023 30.764,755.099  " />
	<polygon
   id="polygon7681"
   points="22.09,808.982 22.139,812.722 30.773,805.13 30.773,801.207  " />
	<polygon
   id="polygon7683"
   points="22.162,793.652 22.209,797.394 30.846,789.802 30.846,785.88  " />
	<rect
   id="rect7685"
   x="25.045"
   y="25.465"
   width="2.705"
   height="788.482" />
	<polygon
   id="polygon7687"
   points="30.855,510.81 30.809,514.552 22.172,506.96 22.172,503.037  " />
	<polygon
   id="polygon7689"
   points="30.855,495.699 30.809,499.443 22.172,491.851 22.172,487.925  " />
	<polygon
   id="polygon7691"
   points="30.693,480.197 30.645,483.939 22.01,476.345 22.01,472.423  " />
	<polygon
   id="polygon7693"
   points="30.693,465.085 30.645,468.826 22.01,461.234 22.01,457.314  " />
	<polygon
   id="polygon7695"
   points="30.693,449.666 30.645,453.408 22.01,445.814 22.01,441.892  " />
	<polygon
   id="polygon7697"
   points="30.693,434.554 30.645,438.294 22.01,430.703 22.01,426.783  " />
	<polygon
   id="polygon7699"
   points="30.693,419.135 30.645,422.876 22.01,415.285 22.01,411.362  " />
	<polygon
   id="polygon7701"
   points="30.693,404.024 30.645,407.765 22.01,400.173 22.01,396.25  " />
	<polygon
   id="polygon7703"
   points="30.773,388.686 30.727,392.428 22.09,384.835 22.09,380.913  " />
	<polygon
   id="polygon7705"
   points="30.773,373.575 30.727,377.317 22.09,369.724 22.09,365.801  " />
	<polygon
   id="polygon7707"
   points="30.773,358.073 30.727,361.815 22.09,354.223 22.09,350.299  " />
	<polygon
   id="polygon7709"
   points="30.773,342.961 30.727,346.703 22.09,339.111 22.09,335.188  " />
	<polygon
   id="polygon7711"
   points="30.773,327.458 30.727,331.2 22.09,323.608 22.09,319.685  " />
	<polygon
   id="polygon7713"
   points="30.773,312.346 30.727,316.088 22.09,308.497 22.09,304.573  " />
	<polygon
   id="polygon7715"
   points="30.855,296.844 30.809,300.585 22.172,292.994 22.172,289.071  " />
	<polygon
   id="polygon7717"
   points="30.855,281.733 30.809,285.474 22.172,277.881 22.172,273.959  " />
	<polygon
   id="polygon7719"
   points="30.938,266.396 30.889,270.137 22.252,262.545 22.252,258.623  " />
	<polygon
   id="polygon7721"
   points="30.938,251.284 30.889,255.026 22.252,247.434 22.252,243.511  " />
	<polygon
   id="polygon7723"
   points="31.018,235.782 30.971,239.523 22.334,231.931 22.334,228.007  " />
	<polygon
   id="polygon7725"
   points="31.018,220.67 30.971,224.412 22.334,216.82 22.334,212.896  " />
	<polygon
   id="polygon7727"
   points="31.018,205.332 30.969,209.074 22.334,201.482 22.334,197.559  " />
	<polygon
   id="polygon7729"
   points="31.018,190.221 30.969,193.962 22.334,186.37 22.334,182.447  " />
	<polygon
   id="polygon7731"
   points="30.936,174.801 30.889,178.543 22.252,170.951 22.252,167.028  " />
	<polygon
   id="polygon7733"
   points="30.936,159.69 30.889,163.432 22.252,155.839 22.252,151.917  " />
	<polygon
   id="polygon7735"
   points="30.855,144.188 30.809,147.929 22.172,140.337 22.172,136.414  " />
	<polygon
   id="polygon7737"
   points="30.855,129.076 30.809,132.817 22.172,125.226 22.172,121.302  " />
	<polygon
   id="polygon7739"
   points="30.855,113.656 30.809,117.397 22.172,109.805 22.172,105.882  " />
	<polygon
   id="polygon7741"
   points="30.855,98.544 30.809,102.286 22.172,94.694 22.172,90.771  " />
	<polygon
   id="polygon7743"
   points="30.855,83.125 30.809,86.866 22.172,79.274 22.172,75.351  " />
	<polygon
   id="polygon7745"
   points="30.855,68.013 30.809,71.754 22.172,64.163 22.172,60.239  " />
	<polygon
   id="polygon7747"
   points="30.938,52.593 30.889,56.334 22.252,48.743 22.252,44.819  " />
	<polygon
   id="polygon7749"
   points="30.938,37.481 30.889,41.224 22.252,33.631 22.252,29.708  " />
	<polygon
   id="polygon7751"
   points="30.531,541.259 30.484,545.001 21.848,537.41 21.848,533.486  " />
	<polygon
   id="polygon7753"
   points="30.531,526.148 30.484,529.888 21.848,522.296 21.848,518.376  " />
	<polygon
   id="polygon7755"
   points="30.531,571.707 30.484,575.449 21.848,567.859 21.848,563.935  " />
	<polygon
   id="polygon7757"
   points="30.531,556.597 30.484,560.339 21.848,552.746 21.848,548.824  " />
	<polygon
   id="polygon7759"
   points="30.855,510.81 30.809,514.552 22.172,506.96 22.172,503.037  " />
	<polygon
   id="polygon7761"
   points="30.855,495.699 30.809,499.443 22.172,491.851 22.172,487.925  " />
	<polygon
   id="polygon7763"
   points="30.611,602.406 30.564,606.146 21.928,598.554 21.928,594.63  " />
	<polygon
   id="polygon7765"
   points="30.611,587.292 30.564,591.037 21.928,583.445 21.928,579.521  " />
	<polygon
   id="polygon7767"
   points="30.855,633.019 30.809,636.759 22.172,629.167 22.172,625.246  " />
	<polygon
   id="polygon7769"
   points="30.855,617.906 30.809,621.65 22.172,614.058 22.172,610.134  " />
	<polygon
   id="polygon7771"
   points="30.693,663.468 30.646,667.208 22.01,659.617 22.01,655.695  " />
	<polygon
   id="polygon7773"
   points="30.693,648.357 30.646,652.099 22.01,644.507 22.01,640.583  " />
	<polygon
   id="polygon7775"
   points="30.773,694.246 30.727,697.99 22.09,690.396 22.09,686.474  " />
	<polygon
   id="polygon7777"
   points="30.773,679.136 30.727,682.876 22.09,675.285 22.09,671.361  " />
	<polygon
   id="polygon7779"
   points="30.611,724.695 30.564,728.437 21.928,720.845 21.928,716.923  " />
	<polygon
   id="polygon7781"
   points="30.611,709.585 30.564,713.328 21.928,705.734 21.928,701.81  " />
	<polygon
   id="polygon7783"
   points="30.855,755.308 30.809,759.052 22.172,751.46 22.172,747.537  " />
	<polygon
   id="polygon7785"
   points="30.855,740.199 30.809,743.939 22.172,736.347 22.172,732.423  " />
	<polygon
   id="polygon7787"
   points="30.693,785.757 30.646,789.5 22.01,781.908 22.01,777.986  " />
	<polygon
   id="polygon7789"
   points="30.693,770.648 30.646,774.388 22.01,766.796 22.01,762.875  " />
	<polygon
   id="polygon7791"
   points="30.773,801.425 30.727,805.167 22.09,797.574 22.09,793.652  " />
	<g
   id="g7793">
		<polygon
   id="polygon7795"
   points="463.566,22.203 467.23,22.251 459.793,31.066 455.948,31.066   " />
		<polygon
   id="polygon7797"
   points="448.547,22.276 452.213,22.324 444.775,31.139 440.932,31.139   " />
		<polygon
   id="polygon7799"
   points="433.652,22.203 437.318,22.251 429.879,31.066 426.036,31.066   " />
		<polygon
   id="polygon7801"
   points="418.633,22.276 422.301,22.324 414.861,31.139 411.018,31.139   " />
		<polygon
   id="polygon7803"
   points="403.74,22.203 407.404,22.251 399.967,31.066 396.122,31.066   " />
		<polygon
   id="polygon7805"
   points="388.721,22.276 392.387,22.324 384.948,31.139 381.105,31.139   " />
		<polygon
   id="polygon7807"
   points="373.906,22.285 377.57,22.333 370.133,31.149 366.288,31.149   " />
		<polygon
   id="polygon7809"
   points="358.887,22.358 362.555,22.406 355.115,31.221 351.271,31.221   " />
		<polygon
   id="polygon7811"
   points="343.913,22.285 347.577,22.333 340.139,31.15 336.297,31.15   " />
		<polygon
   id="polygon7813"
   points="328.893,22.359 332.561,22.407 325.122,31.221 321.279,31.221   " />
		<polygon
   id="polygon7815"
   points="313.918,22.285 317.584,22.333 310.145,31.15 306.301,31.15   " />
		<polygon
   id="polygon7817"
   points="298.898,22.359 302.564,22.407 295.127,31.221 291.283,31.221   " />
		<polygon
   id="polygon7819"
   points="283.926,22.369 287.59,22.417 280.152,31.232 276.309,31.232   " />
		<polygon
   id="polygon7821"
   points="268.906,22.442 272.572,22.49 265.133,31.305 261.289,31.305   " />
		<polygon
   id="polygon7823"
   points="254.092,22.452 257.758,22.5 250.318,31.315 246.475,31.315   " />
		<polygon
   id="polygon7825"
   points="239.072,22.524 242.74,22.572 235.301,31.388 231.457,31.388   " />
		<polygon
   id="polygon7827"
   points="224.1,22.535 227.764,22.583 220.326,31.398 216.482,31.398   " />
		<polygon
   id="polygon7829"
   points="209.08,22.607 212.744,22.656 205.307,31.471 201.463,31.471   " />
		<polygon
   id="polygon7831"
   points="194.266,22.534 197.93,22.583 190.492,31.398 186.648,31.398   " />
		<polygon
   id="polygon7833"
   points="179.246,22.607 182.914,22.656 175.475,31.47 171.631,31.47   " />
		<polygon
   id="polygon7835"
   points="164.352,22.451 168.018,22.5 160.578,31.315 156.736,31.315   " />
		<polygon
   id="polygon7837"
   points="149.332,22.524 153,22.572 145.561,31.387 141.719,31.387   " />
		<polygon
   id="polygon7839"
   points="134.359,22.369 138.025,22.417 130.586,31.232 126.742,31.232   " />
		<polygon
   id="polygon7841"
   points="119.34,22.442 123.006,22.49 115.566,31.305 111.723,31.305   " />
		<polygon
   id="polygon7843"
   points="104.445,22.369 108.111,22.417 100.672,31.232 96.828,31.232   " />
		<polygon
   id="polygon7845"
   points="89.428,22.442 93.092,22.49 85.654,31.305 81.809,31.305   " />
		<polygon
   id="polygon7847"
   points="74.533,22.369 78.197,22.417 70.76,31.233 66.916,31.233   " />
		<polygon
   id="polygon7849"
   points="59.514,22.442 63.178,22.491 55.74,31.305 51.896,31.305   " />
		<polygon
   id="polygon7851"
   points="44.619,22.452 48.285,22.5 40.846,31.315 37.002,31.315   " />
		<polygon
   id="polygon7853"
   points="523.393,22.038 527.057,22.086 519.618,30.902 515.775,30.902   " />
		<polygon
   id="polygon7855"
   points="508.372,22.111 512.038,22.16 504.602,30.975 500.758,30.975   " />
		<polygon
   id="polygon7857"
   points="553.225,22.038 556.889,22.086 549.45,30.902 545.607,30.902   " />
		<polygon
   id="polygon7859"
   points="538.204,22.111 541.87,22.16 534.434,30.975 530.59,30.975   " />
		<polygon
   id="polygon7861"
   points="493.561,22.369 497.227,22.417 489.786,31.232 485.943,31.232   " />
		<polygon
   id="polygon7863"
   points="478.54,22.442 482.206,22.49 474.768,31.305 470.924,31.305   " />
		<polygon
   id="polygon7865"
   points="567.745,22.451 571.395,22.451 564.512,31.052 560.663,31.057   " />
		<rect
   id="rect7867"
   x="24.777"
   y="25.358"
   width="549.808"
   height="2.76" />
		<polygon
   id="polygon7869"
   points="493.561,22.369 497.227,22.417 489.786,31.232 485.943,31.232   " />
		<polygon
   id="polygon7871"
   points="478.54,22.442 482.206,22.49 474.768,31.305 470.924,31.305   " />
		<polygon
   id="polygon7873"
   points="500.963,31.232 504.629,31.184 497.189,22.369 493.346,22.369   " />
		<polygon
   id="polygon7875"
   points="486.156,31.232 489.822,31.184 482.385,22.369 478.54,22.369   " />
		<polygon
   id="polygon7877"
   points="470.969,31.066 474.635,31.018 467.197,22.203 463.354,22.203   " />
		<polygon
   id="polygon7879"
   points="456.163,31.066 459.827,31.018 452.391,22.203 448.547,22.203   " />
		<polygon
   id="polygon7881"
   points="441.055,31.066 444.723,31.018 437.284,22.203 433.439,22.203   " />
		<polygon
   id="polygon7883"
   points="426.252,31.066 429.915,31.018 422.477,22.203 418.633,22.203   " />
		<polygon
   id="polygon7885"
   points="411.143,31.066 414.809,31.018 407.37,22.203 403.527,22.203   " />
		<polygon
   id="polygon7887"
   points="396.338,31.066 400.002,31.018 392.564,22.203 388.721,22.203   " />
		<polygon
   id="polygon7889"
   points="381.309,31.149 384.977,31.101 377.536,22.285 373.693,22.285   " />
		<polygon
   id="polygon7891"
   points="366.504,31.149 370.168,31.101 362.73,22.285 358.887,22.285   " />
		<polygon
   id="polygon7893"
   points="351.316,31.15 354.982,31.102 347.545,22.285 343.7,22.285   " />
		<polygon
   id="polygon7895"
   points="336.512,31.15 340.176,31.102 332.738,22.285 328.893,22.285   " />
		<polygon
   id="polygon7897"
   points="321.32,31.15 324.988,31.102 317.549,22.285 313.704,22.285   " />
		<polygon
   id="polygon7899"
   points="306.516,31.15 310.182,31.102 302.742,22.285 298.898,22.285   " />
		<polygon
   id="polygon7901"
   points="291.328,31.232 294.992,31.184 287.555,22.369 283.711,22.369   " />
		<polygon
   id="polygon7903"
   points="276.521,31.232 280.188,31.184 272.75,22.369 268.906,22.369   " />
		<polygon
   id="polygon7905"
   points="261.494,31.315 265.16,31.267 257.723,22.452 253.879,22.452   " />
		<polygon
   id="polygon7907"
   points="246.689,31.315 250.355,31.267 242.916,22.452 239.072,22.452   " />
		<polygon
   id="polygon7909"
   points="231.502,31.398 235.166,31.35 227.729,22.535 223.885,22.535   " />
		<polygon
   id="polygon7911"
   points="216.695,31.398 220.361,31.35 212.924,22.535 209.08,22.535   " />
		<polygon
   id="polygon7913"
   points="201.668,31.398 205.334,31.35 197.896,22.534 194.053,22.534   " />
		<polygon
   id="polygon7915"
   points="186.863,31.398 190.529,31.35 183.09,22.534 179.246,22.534   " />
		<polygon
   id="polygon7917"
   points="171.754,31.315 175.422,31.267 167.982,22.451 164.139,22.451   " />
		<polygon
   id="polygon7919"
   points="156.949,31.315 160.615,31.267 153.176,22.451 149.332,22.451   " />
		<polygon
   id="polygon7921"
   points="141.762,31.232 145.426,31.184 137.988,22.369 134.145,22.369   " />
		<polygon
   id="polygon7923"
   points="126.955,31.232 130.621,31.184 123.184,22.369 119.34,22.369   " />
		<polygon
   id="polygon7925"
   points="111.848,31.232 115.514,31.184 108.074,22.369 104.232,22.369   " />
		<polygon
   id="polygon7927"
   points="97.041,31.232 100.709,31.184 93.27,22.369 89.428,22.369   " />
		<polygon
   id="polygon7929"
   points="81.936,31.233 85.6,31.185 78.162,22.369 74.318,22.369   " />
		<polygon
   id="polygon7931"
   points="67.129,31.233 70.795,31.185 63.357,22.369 59.514,22.369   " />
		<polygon
   id="polygon7933"
   points="52.021,31.315 55.688,31.267 48.248,22.452 44.404,22.452   " />
		<polygon
   id="polygon7935"
   points="37.215,31.315 40.883,31.267 33.443,22.452 29.6,22.452   " />
		<polygon
   id="polygon7937"
   points="530.795,30.902 534.461,30.853 527.023,22.038 523.18,22.038   " />
		<polygon
   id="polygon7939"
   points="515.99,30.902 519.656,30.853 512.217,22.038 508.372,22.038   " />
		<polygon
   id="polygon7941"
   points="560.855,31.304 564.504,31.221 556.854,22.038 553.012,22.038   " />
		<polygon
   id="polygon7943"
   points="545.82,30.902 549.486,30.853 542.049,22.038 538.204,22.038   " />
		<polygon
   id="polygon7945"
   points="500.963,31.232 504.629,31.184 497.189,22.369 493.346,22.369   " />
		<polygon
   id="polygon7947"
   points="486.156,31.232 489.822,31.184 482.385,22.369 478.54,22.369   " />
	</g>
	<g
   id="g7949">
		<polygon
   id="polygon7951"
   points="568.831,478.906 568.881,482.648 577.518,475.056 577.518,471.132   " />
		<polygon
   id="polygon7953"
   points="568.904,463.578 568.95,467.316 577.588,459.724 577.588,455.802   " />
		<polygon
   id="polygon7955"
   points="568.831,448.375 568.881,452.117 577.518,444.525 577.518,440.599   " />
		<polygon
   id="polygon7957"
   points="568.904,433.046 568.95,436.785 577.588,429.193 577.588,425.271   " />
		<polygon
   id="polygon7959"
   points="568.831,417.844 568.881,421.583 577.518,413.992 577.518,410.07   " />
		<polygon
   id="polygon7961"
   points="568.904,402.514 568.95,406.255 577.588,398.665 577.588,394.741   " />
		<polygon
   id="polygon7963"
   points="568.913,387.394 568.961,391.135 577.598,383.543 577.598,379.62   " />
		<polygon
   id="polygon7965"
   points="568.984,372.065 569.032,375.807 577.668,368.214 577.668,364.292   " />
		<polygon
   id="polygon7967"
   points="568.913,356.781 568.961,360.522 577.598,352.93 577.598,349.006   " />
		<polygon
   id="polygon7969"
   points="568.986,341.452 569.032,345.194 577.668,337.601 577.668,333.678   " />
		<polygon
   id="polygon7971"
   points="568.913,326.167 568.961,329.908 577.598,322.315 577.598,318.392   " />
		<polygon
   id="polygon7973"
   points="568.986,310.836 569.032,314.579 577.668,306.987 577.668,303.064   " />
		<polygon
   id="polygon7975"
   points="568.993,295.552 569.043,299.293 577.68,291.702 577.68,287.778   " />
		<polygon
   id="polygon7977"
   points="569.066,280.223 569.113,283.964 577.75,276.373 577.75,272.449   " />
		<polygon
   id="polygon7979"
   points="569.075,265.104 569.125,268.845 577.76,261.252 577.76,257.329   " />
		<polygon
   id="polygon7981"
   points="569.146,249.774 569.195,253.516 577.831,245.924 577.831,242.001   " />
		<polygon
   id="polygon7983"
   points="569.156,234.489 569.204,238.23 577.842,230.639 577.842,226.715   " />
		<polygon
   id="polygon7985"
   points="569.229,219.16 569.275,222.902 577.911,215.31 577.911,211.386   " />
		<polygon
   id="polygon7987"
   points="569.156,204.041 569.202,207.782 577.842,200.189 577.842,196.267   " />
		<polygon
   id="polygon7989"
   points="569.229,188.711 569.275,192.453 577.911,184.86 577.911,180.938   " />
		<polygon
   id="polygon7991"
   points="569.075,173.51 569.122,177.251 577.76,169.658 577.76,165.735   " />
		<polygon
   id="polygon7993"
   points="569.146,158.18 569.195,161.922 577.831,154.33 577.831,150.407   " />
		<polygon
   id="polygon7995"
   points="568.993,142.895 569.043,146.636 577.68,139.044 577.68,135.121   " />
		<polygon
   id="polygon7997"
   points="569.066,127.566 569.113,131.308 577.75,123.715 577.75,119.792   " />
		<polygon
   id="polygon7999"
   points="568.993,112.364 569.043,116.104 577.68,108.513 577.68,104.59   " />
		<polygon
   id="polygon8001"
   points="569.066,97.035 569.113,100.776 577.75,93.184 577.75,89.261   " />
		<polygon
   id="polygon8003"
   points="568.993,81.833 569.043,85.573 577.68,77.982 577.68,74.058   " />
		<polygon
   id="polygon8005"
   points="569.066,66.503 569.115,70.245 577.75,62.653 577.75,58.729   " />
		<polygon
   id="polygon8007"
   points="569.075,51.301 569.125,55.042 577.76,47.45 577.76,43.527   " />
		<polygon
   id="polygon8009"
   points="568.672,539.968 568.719,543.71 577.355,536.119 577.355,532.195   " />
		<polygon
   id="polygon8011"
   points="568.741,524.64 568.788,528.378 577.426,520.787 577.426,516.865   " />
		<polygon
   id="polygon8013"
   points="568.672,570.416 568.719,574.158 577.355,566.566 577.355,562.642   " />
		<polygon
   id="polygon8015"
   points="568.741,555.087 568.788,558.828 577.426,551.236 577.426,547.312   " />
		<polygon
   id="polygon8017"
   points="568.993,509.517 569.043,513.259 577.68,505.666 577.68,501.744   " />
		<polygon
   id="polygon8019"
   points="569.066,494.189 569.113,497.931 577.75,490.339 577.75,486.416   " />
		<polygon
   id="polygon8021"
   points="568.752,601.111 568.799,604.853 577.436,597.261 577.436,593.337   " />
		<polygon
   id="polygon8023"
   points="568.823,585.783 568.87,589.525 577.508,581.933 577.508,578.009   " />
		<polygon
   id="polygon8025"
   points="568.993,631.728 569.043,635.468 577.68,627.876 577.68,623.953   " />
		<polygon
   id="polygon8027"
   points="569.066,616.398 569.113,620.14 577.75,612.546 577.75,608.625   " />
		<polygon
   id="polygon8029"
   points="568.834,662.175 568.881,665.916 577.518,658.324 577.518,654.4   " />
		<polygon
   id="polygon8031"
   points="568.904,646.845 568.95,650.589 577.588,642.996 577.588,639.074   " />
		<polygon
   id="polygon8033"
   points="568.913,692.955 568.961,696.697 577.598,689.103 577.598,685.181   " />
		<polygon
   id="polygon8035"
   points="568.986,677.625 569.032,681.367 577.668,673.773 577.668,669.851   " />
		<polygon
   id="polygon8037"
   points="568.752,723.404 568.799,727.142 577.436,719.552 577.436,715.628   " />
		<polygon
   id="polygon8039"
   points="568.823,708.074 568.87,711.816 577.508,704.224 577.508,700.3   " />
		<polygon
   id="polygon8041"
   points="568.993,754.017 569.043,757.759 577.68,750.166 577.68,746.244   " />
		<polygon
   id="polygon8043"
   points="569.066,738.687 569.113,742.429 577.75,734.837 577.75,730.914   " />
		<polygon
   id="polygon8045"
   points="568.834,784.466 568.881,788.207 577.518,780.617 577.518,776.691   " />
		<polygon
   id="polygon8047"
   points="568.904,769.138 568.95,772.878 577.588,765.287 577.588,761.363   " />
		<polygon
   id="polygon8049"
   points="568.986,799.916 569.032,803.656 577.668,796.064 577.668,792.142   " />
		<rect
   id="rect8051"
   x="572.09"
   y="25.468"
   width="2.703"
   height="790.112" />
		<polygon
   id="polygon8053"
   points="568.993,509.517 569.043,513.259 577.68,505.666 577.68,501.744   " />
		<polygon
   id="polygon8055"
   points="569.066,494.189 569.113,497.931 577.75,490.339 577.75,486.416   " />
		<polygon
   id="polygon8057"
   points="577.68,517.076 577.631,520.816 568.993,513.224 568.993,509.3   " />
		<polygon
   id="polygon8059"
   points="577.68,501.962 577.631,505.705 568.993,498.113 568.993,494.189   " />
		<polygon
   id="polygon8061"
   points="577.518,486.46 577.469,490.203 568.831,482.611 568.831,478.687   " />
		<polygon
   id="polygon8063"
   points="577.518,471.349 577.469,475.089 568.831,467.5 568.831,463.578   " />
		<polygon
   id="polygon8065"
   points="577.518,455.929 577.469,459.671 568.831,452.078 568.831,448.156   " />
		<polygon
   id="polygon8067"
   points="577.518,440.818 577.469,444.558 568.831,436.968 568.831,433.046   " />
		<polygon
   id="polygon8069"
   points="577.518,425.398 577.469,429.14 568.831,421.546 568.831,417.625   " />
		<polygon
   id="polygon8071"
   points="577.518,410.288 577.469,414.029 568.831,406.438 568.831,402.514   " />
		<polygon
   id="polygon8073"
   points="577.598,394.95 577.549,398.692 568.913,391.099 568.913,387.176   " />
		<polygon
   id="polygon8075"
   points="577.598,379.838 577.549,383.58 568.913,375.988 568.913,372.065   " />
		<polygon
   id="polygon8077"
   points="577.598,364.336 577.551,368.079 568.913,360.487 568.913,356.563   " />
		<polygon
   id="polygon8079"
   points="577.598,349.225 577.551,352.967 568.913,345.375 568.913,341.452   " />
		<polygon
   id="polygon8081"
   points="577.598,333.722 577.551,337.463 568.913,329.872 568.913,325.949   " />
		<polygon
   id="polygon8083"
   points="577.598,318.61 577.551,322.352 568.913,314.76 568.913,310.836   " />
		<polygon
   id="polygon8085"
   points="577.68,303.108 577.631,306.85 568.993,299.257 568.993,295.334   " />
		<polygon
   id="polygon8087"
   points="577.68,287.997 577.631,291.739 568.993,284.145 568.993,280.223   " />
		<polygon
   id="polygon8089"
   points="577.76,272.659 577.713,276.401 569.075,268.809 569.075,264.886   " />
		<polygon
   id="polygon8091"
   points="577.76,257.547 577.713,261.289 569.075,253.698 569.075,249.774   " />
		<polygon
   id="polygon8093"
   points="577.842,242.045 577.793,245.787 569.156,238.195 569.156,234.271   " />
		<polygon
   id="polygon8095"
   points="577.842,226.934 577.793,230.675 569.156,223.083 569.156,219.16   " />
		<polygon
   id="polygon8097"
   points="577.842,211.596 577.793,215.337 569.156,207.745 569.156,203.823   " />
		<polygon
   id="polygon8099"
   points="577.842,196.484 577.793,200.226 569.156,192.634 569.156,188.711   " />
		<polygon
   id="polygon8101"
   points="577.76,181.065 577.713,184.807 569.075,177.214 569.075,173.292   " />
		<polygon
   id="polygon8103"
   points="577.76,165.953 577.713,169.695 569.075,162.104 569.075,158.18   " />
		<polygon
   id="polygon8105"
   points="577.68,150.451 577.631,154.193 568.993,146.601 568.993,142.677   " />
		<polygon
   id="polygon8107"
   points="577.68,135.339 577.631,139.081 568.993,131.489 568.993,127.566   " />
		<polygon
   id="polygon8109"
   points="577.68,119.919 577.631,123.662 568.993,116.069 568.993,112.146   " />
		<polygon
   id="polygon8111"
   points="577.68,104.808 577.631,108.55 568.993,100.957 568.993,97.035   " />
		<polygon
   id="polygon8113"
   points="577.68,89.388 577.631,93.13 568.993,85.538 568.993,81.614   " />
		<polygon
   id="polygon8115"
   points="577.68,74.276 577.631,78.018 568.993,70.426 568.993,66.503   " />
		<polygon
   id="polygon8117"
   points="577.76,58.857 577.713,62.599 569.075,55.006 569.075,51.083   " />
		<polygon
   id="polygon8119"
   points="577.76,43.745 577.713,47.487 569.075,39.895 569.075,35.972   " />
		<polygon
   id="polygon8121"
   points="577.355,547.523 577.307,551.265 568.672,543.673 568.672,539.75   " />
		<polygon
   id="polygon8123"
   points="577.355,532.412 577.307,536.152 568.672,528.562 568.672,524.64   " />
		<polygon
   id="polygon8125"
   points="577.355,577.97 577.307,581.712 568.672,574.121 568.672,570.197   " />
		<polygon
   id="polygon8127"
   points="577.355,562.859 577.307,566.603 568.672,559.009 568.672,555.087   " />
		<polygon
   id="polygon8129"
   points="577.68,517.076 577.631,520.816 568.993,513.224 568.993,509.3   " />
		<polygon
   id="polygon8131"
   points="577.68,501.962 577.631,505.705 568.993,498.113 568.993,494.189   " />
		<polygon
   id="polygon8133"
   points="577.436,608.669 577.389,612.41 568.752,604.818 568.752,600.894   " />
		<polygon
   id="polygon8135"
   points="577.436,593.556 577.389,597.298 568.752,589.707 568.752,585.783   " />
		<polygon
   id="polygon8137"
   points="577.68,639.283 577.631,643.023 568.993,635.431 568.993,631.507   " />
		<polygon
   id="polygon8139"
   points="577.68,624.169 577.631,627.914 568.993,620.322 568.993,616.398   " />
		<polygon
   id="polygon8141"
   points="577.518,669.732 577.469,673.472 568.834,665.88 568.834,661.958   " />
		<polygon
   id="polygon8143"
   points="577.518,654.619 577.469,658.361 568.834,650.769 568.834,646.845   " />
		<polygon
   id="polygon8145"
   points="577.598,700.509 577.551,704.25 568.913,696.658 568.913,692.736   " />
		<polygon
   id="polygon8147"
   points="577.598,685.396 577.551,689.14 568.913,681.548 568.913,677.625   " />
		<polygon
   id="polygon8149"
   points="577.436,730.958 577.389,734.703 568.752,727.109 568.752,723.187   " />
		<polygon
   id="polygon8151"
   points="577.436,715.849 577.389,719.587 568.752,711.996 568.752,708.074   " />
		<polygon
   id="polygon8153"
   points="577.68,761.572 577.631,765.314 568.993,757.722 568.993,753.798   " />
		<polygon
   id="polygon8155"
   points="577.68,746.46 577.631,750.203 568.993,742.611 568.993,738.687   " />
		<polygon
   id="polygon8157"
   points="577.518,792.021 577.469,795.765 568.834,788.171 568.834,784.25   " />
		<polygon
   id="polygon8159"
   points="577.518,776.912 577.469,780.65 568.834,773.058 568.834,769.138   " />
		<polygon
   id="polygon8161"
   points="577.881,807.535 577.834,811.277 569.198,803.685 569.198,799.763   " />
	</g>
	<polygon
   id="polygon8163"
   points="577.635,29.07 577.555,33.291 567.098,22.451 570.842,22.333  " />
	<g
   id="g8165">
		<polygon
   id="polygon8167"
   points="469.184,810.05 472.848,810.099 465.409,818.914 461.566,818.914   " />
		<polygon
   id="polygon8169"
   points="454.163,810.123 457.829,810.171 450.393,818.986 446.549,818.986   " />
		<polygon
   id="polygon8171"
   points="439.27,810.05 442.936,810.099 435.495,818.914 431.654,818.914   " />
		<polygon
   id="polygon8173"
   points="424.25,810.123 427.918,810.171 420.479,818.986 416.635,818.986   " />
		<polygon
   id="polygon8175"
   points="409.357,810.05 413.021,810.099 405.584,818.914 401.74,818.914   " />
		<polygon
   id="polygon8177"
   points="394.338,810.123 398.004,810.171 390.566,818.986 386.723,818.986   " />
		<polygon
   id="polygon8179"
   points="379.523,810.134 383.189,810.181 375.75,818.996 371.906,818.996   " />
		<polygon
   id="polygon8181"
   points="364.504,810.207 368.172,810.255 360.732,819.068 356.889,819.068   " />
		<polygon
   id="polygon8183"
   points="349.531,810.134 353.195,810.181 345.756,818.998 341.913,818.998   " />
		<polygon
   id="polygon8185"
   points="334.512,810.207 338.178,810.255 330.74,819.068 326.896,819.068   " />
		<polygon
   id="polygon8187"
   points="319.534,810.134 323.2,810.181 315.762,818.998 311.918,818.998   " />
		<polygon
   id="polygon8189"
   points="304.516,810.207 308.184,810.255 300.742,819.068 296.898,819.068   " />
		<polygon
   id="polygon8191"
   points="289.541,810.214 293.207,810.263 285.768,819.08 281.924,819.08   " />
		<polygon
   id="polygon8193"
   points="274.521,810.289 278.186,810.337 270.748,819.152 266.904,819.152   " />
		<polygon
   id="polygon8195"
   points="259.707,810.3 263.371,810.349 255.934,819.162 252.09,819.162   " />
		<polygon
   id="polygon8197"
   points="244.688,810.371 248.354,810.419 240.916,819.236 237.072,819.236   " />
		<polygon
   id="polygon8199"
   points="229.715,810.382 233.379,810.431 225.941,819.246 222.098,819.246   " />
		<polygon
   id="polygon8201"
   points="214.695,810.455 218.359,810.503 210.922,819.318 207.078,819.318   " />
		<polygon
   id="polygon8203"
   points="199.881,810.382 203.545,810.429 196.107,819.246 192.264,819.246   " />
		<polygon
   id="polygon8205"
   points="184.861,810.455 188.527,810.503 181.09,819.316 177.246,819.316   " />
		<polygon
   id="polygon8207"
   points="169.967,810.298 173.633,810.347 166.193,819.162 162.35,819.162   " />
		<polygon
   id="polygon8209"
   points="154.947,810.371 158.615,810.419 151.176,819.234 147.332,819.234   " />
		<polygon
   id="polygon8211"
   points="139.975,810.214 143.639,810.263 136.201,819.08 132.357,819.08   " />
		<polygon
   id="polygon8213"
   points="124.955,810.289 128.619,810.337 121.182,819.152 117.338,819.152   " />
		<polygon
   id="polygon8215"
   points="111.033,810.214 114.699,810.263 107.26,819.08 103.416,819.08   " />
		<polygon
   id="polygon8217"
   points="96.014,810.289 99.68,810.337 92.24,819.152 88.396,819.152   " />
		<polygon
   id="polygon8219"
   points="81.121,810.214 84.785,810.263 77.348,819.08 73.504,819.08   " />
		<polygon
   id="polygon8221"
   points="66.102,810.291 69.766,810.339 62.328,819.152 58.484,819.152   " />
		<polygon
   id="polygon8223"
   points="51.207,810.3 54.873,810.349 47.434,819.162 43.59,819.162   " />
		<polygon
   id="polygon8225"
   points="529.01,809.884 532.674,809.933 525.236,818.75 521.393,818.75   " />
		<polygon
   id="polygon8227"
   points="513.99,809.957 517.656,810.005 510.217,818.822 506.372,818.822   " />
		<polygon
   id="polygon8229"
   points="558.842,809.884 562.506,809.933 555.068,818.75 551.225,818.75   " />
		<polygon
   id="polygon8231"
   points="543.822,809.957 547.488,810.005 540.049,818.822 536.204,818.822   " />
		<polygon
   id="polygon8233"
   points="499.176,810.214 502.842,810.263 495.404,819.08 491.561,819.08   " />
		<polygon
   id="polygon8235"
   points="484.157,810.289 487.823,810.337 480.385,819.152 476.54,819.152   " />
		<rect
   id="rect8237"
   x="25.107"
   y="813.236"
   width="547.062"
   height="2.762" />
		<polygon
   id="polygon8239"
   points="499.176,810.214 502.842,810.263 495.404,819.08 491.561,819.08   " />
		<polygon
   id="polygon8241"
   points="484.157,810.289 487.823,810.337 480.385,819.152 476.54,819.152   " />
		<polygon
   id="polygon8243"
   points="506.577,819.08 510.245,819.031 502.807,810.214 498.963,810.214   " />
		<polygon
   id="polygon8245"
   points="491.773,819.08 495.439,819.031 488,810.214 484.157,810.214   " />
		<polygon
   id="polygon8247"
   points="476.586,818.914 480.252,818.865 472.813,810.05 468.969,810.05   " />
		<polygon
   id="polygon8249"
   points="461.779,818.914 465.445,818.865 458.008,810.05 454.163,810.05   " />
		<polygon
   id="polygon8251"
   points="446.672,818.914 450.34,818.865 442.902,810.05 439.057,810.05   " />
		<polygon
   id="polygon8253"
   points="431.868,818.914 435.532,818.865 428.094,810.05 424.25,810.05   " />
		<polygon
   id="polygon8255"
   points="416.76,818.914 420.426,818.865 412.988,810.05 409.145,810.05   " />
		<polygon
   id="polygon8257"
   points="401.954,818.914 405.618,818.865 398.182,810.05 394.338,810.05   " />
		<polygon
   id="polygon8259"
   points="386.926,818.996 390.594,818.947 383.154,810.134 379.311,810.134   " />
		<polygon
   id="polygon8261"
   points="372.12,818.996 375.784,818.947 368.348,810.134 364.504,810.134   " />
		<polygon
   id="polygon8263"
   points="356.934,818.998 360.6,818.949 353.161,810.134 349.318,810.134   " />
		<polygon
   id="polygon8265"
   points="342.129,818.998 345.793,818.949 338.355,810.134 334.512,810.134   " />
		<polygon
   id="polygon8267"
   points="326.938,818.998 330.605,818.949 323.165,810.134 319.322,810.134   " />
		<polygon
   id="polygon8269"
   points="312.133,818.998 315.799,818.949 308.359,810.134 304.516,810.134   " />
		<polygon
   id="polygon8271"
   points="296.943,819.08 300.607,819.031 293.17,810.214 289.326,810.214   " />
		<polygon
   id="polygon8273"
   points="282.137,819.08 285.803,819.031 278.365,810.214 274.521,810.214   " />
		<polygon
   id="polygon8275"
   points="267.109,819.162 270.777,819.113 263.338,810.3 259.494,810.3   " />
		<polygon
   id="polygon8277"
   points="252.305,819.162 255.971,819.113 248.531,810.3 244.688,810.3   " />
		<polygon
   id="polygon8279"
   points="237.115,819.246 240.781,819.197 233.342,810.382 229.5,810.382   " />
		<polygon
   id="polygon8281"
   points="222.309,819.246 225.977,819.197 218.537,810.382 214.695,810.382   " />
		<polygon
   id="polygon8283"
   points="207.283,819.246 210.949,819.197 203.512,810.382 199.668,810.382   " />
		<polygon
   id="polygon8285"
   points="192.479,819.246 196.143,819.197 188.705,810.382 184.861,810.382   " />
		<polygon
   id="polygon8287"
   points="177.369,819.162 181.037,819.113 173.598,810.298 169.754,810.298   " />
		<polygon
   id="polygon8289"
   points="162.564,819.162 166.23,819.113 158.791,810.298 154.947,810.298   " />
		<polygon
   id="polygon8291"
   points="147.377,819.08 151.041,819.031 143.604,810.214 139.76,810.214   " />
		<polygon
   id="polygon8293"
   points="132.57,819.08 136.236,819.031 128.799,810.214 124.955,810.214   " />
		<polygon
   id="polygon8295"
   points="118.436,819.08 122.102,819.031 114.662,810.214 110.818,810.214   " />
		<polygon
   id="polygon8297"
   points="103.629,819.08 107.297,819.031 99.857,810.214 96.014,810.214   " />
		<polygon
   id="polygon8299"
   points="88.523,819.08 92.188,819.033 84.75,810.214 80.906,810.214   " />
		<polygon
   id="polygon8301"
   points="73.717,819.08 77.383,819.033 69.945,810.214 66.102,810.214   " />
		<polygon
   id="polygon8303"
   points="58.609,819.162 62.275,819.113 54.836,810.3 50.992,810.3   " />
		<polygon
   id="polygon8305"
   points="43.803,819.162 47.471,819.113 40.031,810.3 36.188,810.3   " />
		<polygon
   id="polygon8307"
   points="536.411,818.75 540.077,818.701 532.639,809.884 528.795,809.884   " />
		<polygon
   id="polygon8309"
   points="521.605,818.75 525.273,818.701 517.834,809.884 513.99,809.884   " />
		<polygon
   id="polygon8311"
   points="566.473,819.152 570.118,819.068 562.471,809.884 558.627,809.884   " />
		<polygon
   id="polygon8313"
   points="551.438,818.75 555.104,818.701 547.666,809.884 543.822,809.884   " />
		<polygon
   id="polygon8315"
   points="506.577,819.08 510.245,819.031 502.807,810.214 498.963,810.214   " />
		<polygon
   id="polygon8317"
   points="491.773,819.08 495.439,819.031 488,810.214 484.157,810.214   " />
	</g>
	<polygon
   id="polygon8319"
   points="33.373,819.189 29.346,819.203 22.09,812.687 22.09,808.763  " />
</g>
<rect
   id="rect9125"
   x="21.662"
   y="21.674"
   fill="none"
   width="552.666"
   height="840" />



<rect
   id="rect3391"
   x="11.555"
   y="13.572"
   fill="none"
   stroke="#BE1E2D"
   stroke-width="2.0606"
   stroke-miterlimit="10"
   width="569.271"
   height="812.238" />
<rect
   id="rect3393"
   x="21.362"
   y="22.317"
   fill="none"
   stroke="#BE1E2D"
   stroke-width="0.9921"
   stroke-miterlimit="10"
   width="547.691"
   height="792.886" />
<g
   id="g4888"
   transform="matrix(1.7006986,0,0,1.4512345,-388.83355,-34.129979)"
   style="fill:#008080"><path
     id="path4890"
     inkscape:connector-curvature="0"
     d="m 445.428,52.482 c -0.301,0.15 -0.979,0.313 -1.862,0.313 -2.51,0 -3.803,-1.561 -3.803,-3.63 0,-2.477 1.765,-3.855 3.963,-3.855 0.852,0 1.497,0.172 1.789,0.323 l -0.336,1.303 c -0.334,-0.14 -0.797,-0.269 -1.378,-0.269 -1.303,0 -2.313,0.786 -2.313,2.402 0,1.456 0.86,2.37 2.325,2.37 0.495,0 1.045,-0.107 1.367,-0.236 l 0.248,1.279 0,0 z"
     style="fill:#008080" /><path
     id="path4892"
     inkscape:connector-curvature="0"
     d="m 447.506,50.576 c 0.052,0.678 0.72,1.002 1.484,1.002 0.56,0 1.014,-0.076 1.454,-0.216 l 0.217,1.109 c -0.541,0.215 -1.195,0.323 -1.906,0.323 -1.788,0 -2.811,-1.034 -2.811,-2.683 0,-1.336 0.828,-2.812 2.659,-2.812 1.699,0 2.348,1.324 2.348,2.628 0,0.28 -0.031,0.527 -0.053,0.646 h -3.393 v 0.003 z m 1.926,-1.121 c 0,-0.398 -0.172,-1.065 -0.927,-1.065 -0.689,0 -0.971,0.625 -1.014,1.065 h 1.941 z"
     style="fill:#008080" /><path
     id="path4894"
     inkscape:connector-curvature="0"
     d="m 451.928,49.154 c 0,-0.775 -0.022,-1.281 -0.042,-1.733 h 1.411 l 0.053,0.969 h 0.043 c 0.27,-0.766 0.916,-1.089 1.424,-1.089 0.149,0 0.223,0 0.344,0.022 v 1.54 c -0.119,-0.022 -0.258,-0.043 -0.442,-0.043 -0.604,0 -1.012,0.323 -1.12,0.829 -0.022,0.108 -0.033,0.237 -0.033,0.366 v 2.671 h -1.637 v -3.532 z"
     style="fill:#008080" /><path
     id="path4896"
     inkscape:connector-curvature="0"
     d="m 458.079,45.912 v 1.507 h 1.173 v 1.206 h -1.173 v 1.907 c 0,0.637 0.15,0.927 0.646,0.927 0.204,0 0.365,-0.021 0.484,-0.043 l 0.01,1.24 c -0.216,0.086 -0.604,0.141 -1.064,0.141 -0.53,0 -0.971,-0.184 -1.229,-0.453 -0.301,-0.312 -0.452,-0.818 -0.452,-1.562 v -2.155 h -0.7 v -1.205 h 0.7 v -1.143 l 1.605,-0.367 z"
     style="fill:#008080" /><path
     id="path4898"
     inkscape:connector-curvature="0"
     d="m 461.887,45.955 c 0,0.452 -0.344,0.819 -0.883,0.819 -0.517,0 -0.86,-0.367 -0.851,-0.819 -0.01,-0.474 0.334,-0.829 0.862,-0.829 0.529,0 0.862,0.355 0.872,0.829 z m -1.691,6.731 v -5.267 h 1.638 v 5.267 h -1.638 z"
     style="fill:#008080" /><path
     id="path4900"
     inkscape:connector-curvature="0"
     d="m 463.331,52.686 v -4.062 h -0.689 v -1.206 h 0.689 v -0.226 c 0,-1.456 1.13,-2.273 2.757,-2.273 0.56,0 1.229,0.129 1.553,0.323 l -0.313,1.239 c -0.259,-0.14 -0.679,-0.269 -1.196,-0.269 -0.861,0 -1.162,0.443 -1.162,1.024 v 0.184 h 3.199 v 5.267 h -1.639 v -4.062 h -1.55 v 4.062 h -1.649 v -10e-4 z"
     style="fill:#008080" /><path
     id="path4902"
     inkscape:connector-curvature="0"
     d="m 473.431,52.557 c -0.289,0.129 -0.842,0.237 -1.466,0.237 -1.7,0 -2.787,-1.034 -2.787,-2.691 0,-1.542 1.056,-2.801 3.015,-2.801 0.432,0 0.905,0.075 1.251,0.204 l -0.26,1.218 c -0.192,-0.085 -0.483,-0.161 -0.916,-0.161 -0.861,0 -1.422,0.614 -1.411,1.476 0,0.968 0.647,1.476 1.442,1.476 0.391,0 0.689,-0.064 0.936,-0.162 l 0.196,1.204 z"
     style="fill:#008080" /><path
     id="path4904"
     inkscape:connector-curvature="0"
     d="m 477.37,52.686 -0.097,-0.527 h -0.031 c -0.346,0.42 -0.884,0.646 -1.509,0.646 -1.065,0 -1.699,-0.775 -1.699,-1.617 0,-1.367 1.229,-2.024 3.09,-2.015 v -0.075 c 0,-0.28 -0.151,-0.678 -0.957,-0.678 -0.541,0 -1.11,0.183 -1.454,0.398 l -0.302,-1.057 c 0.366,-0.204 1.087,-0.463 2.047,-0.463 1.757,0 2.317,1.034 2.317,2.273 v 1.83 c 0,0.506 0.021,0.992 0.075,1.281 h -1.48 v 0.004 z m -0.193,-2.487 c -0.863,-0.01 -1.529,0.194 -1.529,0.83 0,0.42 0.279,0.625 0.646,0.625 0.41,0 0.742,-0.269 0.853,-0.603 0.021,-0.087 0.032,-0.184 0.032,-0.281 l -0.002,-0.571 0,0 z"
     style="fill:#008080" /><path
     id="path4906"
     inkscape:connector-curvature="0"
     d="m 481.808,45.912 v 1.507 h 1.173 v 1.206 h -1.173 v 1.907 c 0,0.637 0.148,0.927 0.646,0.927 0.203,0 0.366,-0.021 0.483,-0.043 l 0.012,1.24 c -0.218,0.086 -0.605,0.141 -1.065,0.141 -0.53,0 -0.971,-0.184 -1.229,-0.453 -0.3,-0.312 -0.452,-0.818 -0.452,-1.562 v -2.155 h -0.7 v -1.205 h 0.7 v -1.143 l 1.605,-0.367 z"
     style="fill:#008080" /><path
     id="path4908"
     inkscape:connector-curvature="0"
     d="m 485.134,50.576 c 0.052,0.678 0.721,1.002 1.484,1.002 0.562,0 1.013,-0.076 1.456,-0.216 l 0.215,1.109 c -0.539,0.215 -1.196,0.323 -1.906,0.323 -1.788,0 -2.812,-1.034 -2.812,-2.683 0,-1.336 0.829,-2.812 2.66,-2.812 1.7,0 2.349,1.324 2.349,2.628 0,0.28 -0.033,0.527 -0.054,0.646 h -3.393 v 0.003 z m 1.927,-1.121 c 0,-0.398 -0.171,-1.065 -0.927,-1.065 -0.688,0 -0.971,0.625 -1.012,1.065 h 1.939 z"
     style="fill:#008080" /><path
     id="path4910"
     inkscape:connector-curvature="0"
     d="m 496.935,49.994 c 0,1.928 -1.367,2.811 -2.778,2.811 -1.542,0 -2.726,-1.013 -2.726,-2.715 0,-1.7 1.122,-2.79 2.813,-2.79 1.614,0 2.691,1.112 2.691,2.694 z m -3.812,0.054 c 0,0.904 0.377,1.583 1.077,1.583 0.635,0 1.047,-0.635 1.047,-1.583 0,-0.786 -0.302,-1.584 -1.047,-1.584 -0.787,0.001 -1.077,0.809 -1.077,1.584 z"
     style="fill:#008080" /><path
     id="path4912"
     inkscape:connector-curvature="0"
     d="m 498.129,52.686 v -4.062 h -0.689 v -1.206 h 0.689 v -0.205 c 0,-0.635 0.195,-1.335 0.668,-1.766 0.411,-0.388 0.981,-0.527 1.454,-0.527 0.365,0 0.647,0.042 0.871,0.107 l -0.063,1.259 c -0.141,-0.042 -0.313,-0.075 -0.527,-0.075 -0.539,0 -0.765,0.419 -0.765,0.936 v 0.27 h 1.056 v 1.206 h -1.046 v 4.062 h -1.648 l 0,10e-4 z"
     style="fill:#008080" /><path
     id="path4914"
     inkscape:connector-curvature="0"
     d="m 510.49,48.981 c 0,2.381 -1.442,3.824 -3.563,3.824 -2.154,0 -3.417,-1.627 -3.417,-3.694 0,-2.176 1.39,-3.802 3.535,-3.802 2.228,0 3.445,1.669 3.445,3.672 z m -5.245,0.098 c 0,1.421 0.667,2.423 1.765,2.423 1.11,0 1.745,-1.056 1.745,-2.467 0,-1.302 -0.623,-2.424 -1.756,-2.424 -1.108,0 -1.754,1.058 -1.754,2.468 z"
     style="fill:#008080" /><path
     id="path4916"
     inkscape:connector-curvature="0"
     d="m 515.462,52.557 c -0.29,0.129 -0.841,0.237 -1.466,0.237 -1.699,0 -2.787,-1.034 -2.787,-2.691 0,-1.542 1.057,-2.801 3.016,-2.801 0.43,0 0.904,0.075 1.25,0.204 l -0.259,1.218 c -0.193,-0.085 -0.483,-0.161 -0.916,-0.161 -0.863,0 -1.422,0.614 -1.411,1.476 0,0.968 0.646,1.476 1.443,1.476 0.388,0 0.689,-0.064 0.936,-0.162 l 0.194,1.204 0,0 z"
     style="fill:#008080" /><path
     id="path4918"
     inkscape:connector-curvature="0"
     d="m 520.199,52.557 c -0.291,0.129 -0.841,0.237 -1.465,0.237 -1.7,0 -2.788,-1.034 -2.788,-2.691 0,-1.542 1.057,-2.801 3.016,-2.801 0.43,0 0.904,0.075 1.249,0.204 l -0.258,1.218 c -0.194,-0.085 -0.483,-0.161 -0.916,-0.161 -0.864,0 -1.423,0.614 -1.411,1.476 0,0.968 0.646,1.476 1.442,1.476 0.388,0 0.689,-0.064 0.936,-0.162 l 0.195,1.204 z"
     style="fill:#008080" /><path
     id="path4920"
     inkscape:connector-curvature="0"
     d="m 526.069,50.996 c 0,0.689 0.021,1.25 0.04,1.692 h -1.42 l -0.075,-0.743 h -0.034 c -0.203,0.323 -0.699,0.863 -1.646,0.863 -1.066,0 -1.853,-0.669 -1.853,-2.295 v -3.091 h 1.646 v 2.832 c 0,0.766 0.247,1.23 0.818,1.23 0.454,0 0.712,-0.313 0.819,-0.573 0.043,-0.097 0.053,-0.226 0.053,-0.355 v -3.134 h 1.648 v 3.574 h 0.004 z"
     style="fill:#008080" /><path
     id="path4922"
     inkscape:connector-curvature="0"
     d="m 527.377,49.186 c 0,-0.689 -0.021,-1.281 -0.042,-1.765 h 1.423 l 0.076,0.732 h 0.021 c 0.387,-0.561 0.992,-0.851 1.756,-0.851 1.153,0 2.188,1.001 2.188,2.682 0,1.918 -1.217,2.822 -2.394,2.822 -0.635,0 -1.129,-0.258 -1.368,-0.603 h -0.021 v 2.618 h -1.639 v -5.636 h 0 z m 1.64,1.24 c 0,0.129 0.01,0.247 0.032,0.344 0.107,0.442 0.484,0.776 0.957,0.776 0.712,0 1.132,-0.592 1.132,-1.488 0,-0.839 -0.378,-1.475 -1.11,-1.475 -0.465,0 -0.871,0.345 -0.981,0.831 -0.021,0.086 -0.031,0.194 -0.031,0.291 v 0.721 h 0.001 z"
     style="fill:#008080" /><path
     id="path4924"
     inkscape:connector-curvature="0"
     d="m 536.809,52.686 -0.097,-0.527 h -0.032 c -0.345,0.42 -0.884,0.646 -1.507,0.646 -1.066,0 -1.702,-0.775 -1.702,-1.617 0,-1.367 1.229,-2.024 3.091,-2.015 v -0.075 c 0,-0.28 -0.149,-0.678 -0.958,-0.678 -0.539,0 -1.11,0.183 -1.452,0.398 l -0.302,-1.057 c 0.366,-0.204 1.087,-0.463 2.047,-0.463 1.756,0 2.315,1.034 2.315,2.273 v 1.83 c 0,0.506 0.022,0.992 0.075,1.281 h -1.479 v 0.004 z m -0.194,-2.487 c -0.861,-0.01 -1.528,0.194 -1.528,0.83 0,0.42 0.28,0.625 0.646,0.625 0.41,0 0.742,-0.269 0.853,-0.603 0.021,-0.087 0.031,-0.184 0.031,-0.281 v -0.571 h -0.002 z"
     style="fill:#008080" /><path
     id="path4926"
     inkscape:connector-curvature="0"
     d="m 539.499,49.1 c 0,-0.656 -0.021,-1.218 -0.042,-1.681 h 1.423 l 0.076,0.721 h 0.031 c 0.218,-0.333 0.754,-0.84 1.629,-0.84 1.077,0 1.884,0.71 1.884,2.263 v 3.123 h -1.635 v -2.918 c 0,-0.679 -0.237,-1.143 -0.829,-1.143 -0.452,0 -0.725,0.313 -0.829,0.614 -0.043,0.098 -0.065,0.258 -0.065,0.409 v 3.037 h -1.638 V 49.1 h -0.005 z"
     style="fill:#008080" /><path
     id="path4928"
     inkscape:connector-curvature="0"
     d="m 549.762,52.557 c -0.291,0.129 -0.843,0.237 -1.467,0.237 -1.7,0 -2.787,-1.034 -2.787,-2.691 0,-1.542 1.056,-2.801 3.015,-2.801 0.432,0 0.904,0.075 1.252,0.204 l -0.261,1.218 c -0.192,-0.085 -0.483,-0.161 -0.916,-0.161 -0.861,0 -1.422,0.614 -1.411,1.476 0,0.968 0.646,1.476 1.445,1.476 0.387,0 0.688,-0.064 0.934,-0.162 l 0.196,1.204 0,0 z"
     style="fill:#008080" /><path
     id="path4930"
     inkscape:connector-curvature="0"
     d="m 552.053,47.419 0.787,2.585 c 0.087,0.313 0.193,0.702 0.258,0.981 h 0.034 c 0.075,-0.28 0.159,-0.678 0.237,-0.981 l 0.645,-2.585 h 1.756 l -1.227,3.468 c -0.754,2.088 -1.26,2.929 -1.854,3.458 -0.571,0.494 -1.175,0.667 -1.583,0.721 l -0.345,-1.389 c 0.205,-0.032 0.464,-0.129 0.711,-0.28 0.248,-0.13 0.518,-0.388 0.68,-0.657 0.052,-0.075 0.085,-0.161 0.085,-0.237 0,-0.053 -0.01,-0.14 -0.075,-0.269 l -1.928,-4.815 h 1.819 l 0,0 z"
     style="fill:#008080" /><path
     id="path4932"
     inkscape:connector-curvature="0"
     d="m 440.205,72.68 v -7.26 h 1.022 l 2.328,3.673 c 0.538,0.851 0.958,1.615 1.303,2.359 l 0.023,-0.01 c -0.089,-0.97 -0.108,-1.854 -0.108,-2.984 v -3.037 h 0.883 v 7.26 h -0.947 l -2.305,-3.685 c -0.507,-0.807 -0.991,-1.637 -1.358,-2.424 l -0.033,0.011 c 0.054,0.916 0.075,1.788 0.075,2.994 v 3.102 h -0.883 l 0,0.001 z"
     style="fill:#008080" /><path
     id="path4934"
     inkscape:connector-curvature="0"
     d="m 451.973,70.029 c 0,1.929 -1.335,2.769 -2.596,2.769 -1.41,0 -2.497,-1.033 -2.497,-2.682 0,-1.746 1.142,-2.769 2.585,-2.769 1.498,0.001 2.508,1.09 2.508,2.682 l 0,0 z m -4.136,0.055 c 0,1.143 0.657,2.004 1.582,2.004 0.907,0 1.583,-0.851 1.583,-2.026 0,-0.882 -0.441,-2.002 -1.562,-2.002 -1.117,0 -1.603,1.033 -1.603,2.024 z"
     style="fill:#008080" /><path
     id="path4936"
     inkscape:connector-curvature="0"
     d="m 452.68,72.12 c 0,-0.398 0.271,-0.678 0.646,-0.678 0.377,0 0.635,0.279 0.635,0.678 0,0.388 -0.247,0.678 -0.645,0.678 -0.377,0.001 -0.636,-0.29 -0.636,-0.678 z"
     style="fill:#008080" /></g></svg>