<?xml version="1.0" encoding="UTF-8" standalone="no"?>
<!-- Generator: Adobe Illustrator 16.0.0, SVG Export Plug-In . SVG Version: 6.00 Build 0)  -->
<svg id="Layer_1" xmlns:rdf="http://www.w3.org/1999/02/22-rdf-syntax-ns#" xmlns="http://www.w3.org/2000/svg" version="1.1" xml:space="preserve" height="841.89px" viewBox="0 0 595.279 841.89" width="595.28px" enable-background="new 0 0 595.279 841.89" y="0px" x="0px" xmlns:cc="http://creativecommons.org/ns#" xmlns:dc="http://purl.org/dc/elements/1.1/"><metadata id="metadata413"><rdf:RDF><cc:Work rdf:about=""><dc:format>image/svg+xml</dc:format><dc:type rdf:resource="http://purl.org/dc/dcmitype/StillImage"/><dc:title/></cc:Work></rdf:RDF></metadata>
<rect id="rect7565" opacity="0.5" height="856" width="604.66" y="-4.236" x="-3.15" enable-background="new    " fill="#FFF"/>
<g id="g7569" opacity="0">
	<polygon id="polygon7571" points="22.172,503.26,22.219,507,30.855,499.4,30.855,495.48"/>
	<polygon id="polygon7573" points="22.242,487.92,22.291,491.67,30.926,484.08,30.926,480.15"/>
	<polygon id="polygon7575" points="577.88,806.79,577.97,810.52,570.1,819.02,566.25,819.03"/>
	<polygon id="polygon7577" points="33.373,819.19,29.346,819.2,36.191,810.45,40.031,810.3"/>
	<polygon id="polygon7579" points="569.08,35.972,569.08,39.895,577.11,32.752,577.11,28.83"/>
	<polygon id="polygon7581" points="22.01,472.64,22.057,476.38,30.693,468.79,30.693,464.87"/>
	<polygon id="polygon7583" points="22.08,457.31,22.127,461.05,30.764,453.46,30.764,449.54"/>
	<polygon id="polygon7585" points="22.01,442.11,22.057,445.85,30.693,438.26,30.693,434.34"/>
	<polygon id="polygon7587" points="22.08,426.78,22.127,430.52,30.764,422.93,30.764,419.01"/>
	<polygon id="polygon7589" points="22.01,411.58,22.057,415.32,30.693,407.73,30.693,403.8"/>
	<polygon id="polygon7591" points="22.08,396.25,22.127,399.99,30.764,392.4,30.764,388.48"/>
	<polygon id="polygon7593" points="22.09,381.13,22.137,384.87,30.773,377.28,30.773,373.36"/>
	<polygon id="polygon7595" points="22.16,365.8,22.209,369.54,30.844,361.95,30.844,358.03"/>
	<polygon id="polygon7597" points="22.09,350.52,22.139,354.26,30.773,346.67,30.773,342.74"/>
	<polygon id="polygon7599" points="22.162,335.19,22.209,338.93,30.846,331.34,30.846,327.42"/>
	<polygon id="polygon7601" points="22.09,319.9,22.139,323.64,30.773,316.05,30.773,312.13"/>
	<polygon id="polygon7603" points="22.162,304.57,22.209,308.32,30.846,300.72,30.846,296.8"/>
	<polygon id="polygon7605" points="22.172,289.29,22.219,293.03,30.855,285.44,30.855,281.51"/>
	<polygon id="polygon7607" points="22.242,273.96,22.291,277.7,30.926,270.11,30.926,266.19"/>
	<polygon id="polygon7609" points="22.252,258.84,22.301,262.58,30.938,254.99,30.938,251.07"/>
	<polygon id="polygon7611" points="22.324,243.51,22.371,247.25,31.008,239.66,31.008,235.74"/>
	<polygon id="polygon7613" points="22.334,228.23,22.381,231.97,31.018,224.38,31.018,220.45"/>
	<polygon id="polygon7615" points="22.404,212.9,22.453,216.64,31.09,209.04,31.09,205.12"/>
	<polygon id="polygon7617" points="22.334,197.78,22.381,201.52,31.018,193.93,31.018,190"/>
	<polygon id="polygon7619" points="22.404,182.45,22.453,186.19,31.088,178.6,31.088,174.67"/>
	<polygon id="polygon7621" points="22.252,167.25,22.299,170.99,30.936,163.4,30.936,159.47"/>
	<polygon id="polygon7623" points="22.324,151.92,22.371,155.66,31.008,148.07,31.008,144.14"/>
	<polygon id="polygon7625" points="22.172,136.63,22.219,140.37,30.855,132.78,30.855,128.86"/>
	<polygon id="polygon7627" points="22.242,121.3,22.291,125.04,30.926,117.45,30.926,113.53"/>
	<polygon id="polygon7629" points="22.172,106.1,22.219,109.84,30.855,102.25,30.855,98.326"/>
	<polygon id="polygon7631" points="22.242,90.771,22.291,94.512,30.926,86.92,30.926,82.998"/>
	<polygon id="polygon7633" points="22.172,75.569,22.219,79.31,30.855,71.718,30.855,67.794"/>
	<polygon id="polygon7635" points="22.244,60.239,22.291,63.981,30.928,56.389,30.928,52.466"/>
	<polygon id="polygon7637" points="22.252,45.038,22.301,48.778,30.938,41.186,30.938,37.263"/>
	<polygon id="polygon7639" points="22.324,29.708,22.371,33.45,33.662,22.534,29.771,22.534"/>
	<polygon id="polygon7641" points="21.848,533.71,21.895,537.45,30.531,529.86,30.531,525.93"/>
	<polygon id="polygon7643" points="21.918,518.38,21.967,522.12,30.602,514.52,30.602,510.6"/>
	<polygon id="polygon7645" points="21.848,564.15,21.895,567.89,30.531,560.3,30.531,556.38"/>
	<polygon id="polygon7647" points="21.918,548.82,21.967,552.56,30.602,544.97,30.602,541.05"/>
	<polygon id="polygon7649" points="22.172,503.26,22.219,507,30.855,499.4,30.855,495.48"/>
	<polygon id="polygon7651" points="22.242,487.92,22.291,491.67,30.926,484.08,30.926,480.15"/>
	<polygon id="polygon7653" points="21.928,594.85,21.977,598.59,30.611,591,30.611,587.08"/>
	<polygon id="polygon7655" points="22,579.52,22.047,583.26,30.684,575.67,30.684,571.75"/>
	<polygon id="polygon7657" points="22.172,625.46,22.219,629.2,30.855,621.61,30.855,617.69"/>
	<polygon id="polygon7659" points="22.242,610.13,22.291,613.88,30.926,606.28,30.926,602.36"/>
	<polygon id="polygon7661" points="22.01,655.91,22.057,659.65,30.693,652.06,30.693,648.14"/>
	<polygon id="polygon7663" points="22.08,640.58,22.129,644.33,30.764,636.73,30.764,632.81"/>
	<polygon id="polygon7665" points="22.09,686.69,22.139,690.43,30.773,682.84,30.773,678.92"/>
	<polygon id="polygon7667" points="22.162,671.36,22.209,675.1,30.846,667.51,30.846,663.59"/>
	<polygon id="polygon7669" points="21.928,717.14,21.977,720.88,30.611,713.29,30.611,709.36"/>
	<polygon id="polygon7671" points="22,701.81,22.047,705.55,30.684,697.96,30.684,694.04"/>
	<polygon id="polygon7673" points="22.172,747.75,22.219,751.5,30.855,743.9,30.855,739.98"/>
	<polygon id="polygon7675" points="22.242,732.42,22.291,736.17,30.926,728.57,30.926,724.65"/>
	<polygon id="polygon7677" points="22.01,778.2,22.057,781.94,30.693,774.35,30.693,770.43"/>
	<polygon id="polygon7679" points="22.08,762.88,22.129,766.62,30.764,759.02,30.764,755.1"/>
	<polygon id="polygon7681" points="22.09,808.98,22.139,812.72,30.773,805.13,30.773,801.21"/>
	<polygon id="polygon7683" points="22.162,793.65,22.209,797.39,30.846,789.8,30.846,785.88"/>
	<rect id="rect7685" y="25.465" x="25.045" width="2.705" height="788.48"/>
	<polygon id="polygon7687" points="30.855,510.81,30.809,514.55,22.172,506.96,22.172,503.04"/>
	<polygon id="polygon7689" points="30.855,495.7,30.809,499.44,22.172,491.85,22.172,487.92"/>
	<polygon id="polygon7691" points="30.693,480.2,30.645,483.94,22.01,476.34,22.01,472.42"/>
	<polygon id="polygon7693" points="30.693,465.08,30.645,468.83,22.01,461.23,22.01,457.31"/>
	<polygon id="polygon7695" points="30.693,449.67,30.645,453.41,22.01,445.81,22.01,441.89"/>
	<polygon id="polygon7697" points="30.693,434.55,30.645,438.29,22.01,430.7,22.01,426.78"/>
	<polygon id="polygon7699" points="30.693,419.14,30.645,422.88,22.01,415.28,22.01,411.36"/>
	<polygon id="polygon7701" points="30.693,404.02,30.645,407.76,22.01,400.17,22.01,396.25"/>
	<polygon id="polygon7703" points="30.773,388.69,30.727,392.43,22.09,384.84,22.09,380.91"/>
	<polygon id="polygon7705" points="30.773,373.58,30.727,377.32,22.09,369.72,22.09,365.8"/>
	<polygon id="polygon7707" points="30.773,358.07,30.727,361.82,22.09,354.22,22.09,350.3"/>
	<polygon id="polygon7709" points="30.773,342.96,30.727,346.7,22.09,339.11,22.09,335.19"/>
	<polygon id="polygon7711" points="30.773,327.46,30.727,331.2,22.09,323.61,22.09,319.68"/>
	<polygon id="polygon7713" points="30.773,312.35,30.727,316.09,22.09,308.5,22.09,304.57"/>
	<polygon id="polygon7715" points="30.855,296.84,30.809,300.58,22.172,292.99,22.172,289.07"/>
	<polygon id="polygon7717" points="30.855,281.73,30.809,285.47,22.172,277.88,22.172,273.96"/>
	<polygon id="polygon7719" points="30.938,266.4,30.889,270.14,22.252,262.54,22.252,258.62"/>
	<polygon id="polygon7721" points="30.938,251.28,30.889,255.03,22.252,247.43,22.252,243.51"/>
	<polygon id="polygon7723" points="31.018,235.78,30.971,239.52,22.334,231.93,22.334,228.01"/>
	<polygon id="polygon7725" points="31.018,220.67,30.971,224.41,22.334,216.82,22.334,212.9"/>
	<polygon id="polygon7727" points="31.018,205.33,30.969,209.07,22.334,201.48,22.334,197.56"/>
	<polygon id="polygon7729" points="31.018,190.22,30.969,193.96,22.334,186.37,22.334,182.45"/>
	<polygon id="polygon7731" points="30.936,174.8,30.889,178.54,22.252,170.95,22.252,167.03"/>
	<polygon id="polygon7733" points="30.936,159.69,30.889,163.43,22.252,155.84,22.252,151.92"/>
	<polygon id="polygon7735" points="30.855,144.19,30.809,147.93,22.172,140.34,22.172,136.41"/>
	<polygon id="polygon7737" points="30.855,129.08,30.809,132.82,22.172,125.23,22.172,121.3"/>
	<polygon id="polygon7739" points="30.855,113.66,30.809,117.4,22.172,109.8,22.172,105.88"/>
	<polygon id="polygon7741" points="30.855,98.544,30.809,102.29,22.172,94.694,22.172,90.771"/>
	<polygon id="polygon7743" points="30.855,83.125,30.809,86.866,22.172,79.274,22.172,75.351"/>
	<polygon id="polygon7745" points="30.855,68.013,30.809,71.754,22.172,64.163,22.172,60.239"/>
	<polygon id="polygon7747" points="30.938,52.593,30.889,56.334,22.252,48.743,22.252,44.819"/>
	<polygon id="polygon7749" points="30.938,37.481,30.889,41.224,22.252,33.631,22.252,29.708"/>
	<polygon id="polygon7751" points="30.531,541.26,30.484,545,21.848,537.41,21.848,533.49"/>
	<polygon id="polygon7753" points="30.531,526.15,30.484,529.89,21.848,522.3,21.848,518.38"/>
	<polygon id="polygon7755" points="30.531,571.71,30.484,575.45,21.848,567.86,21.848,563.94"/>
	<polygon id="polygon7757" points="30.531,556.6,30.484,560.34,21.848,552.75,21.848,548.82"/>
	<polygon id="polygon7759" points="30.855,510.81,30.809,514.55,22.172,506.96,22.172,503.04"/>
	<polygon id="polygon7761" points="30.855,495.7,30.809,499.44,22.172,491.85,22.172,487.92"/>
	<polygon id="polygon7763" points="30.611,602.41,30.564,606.15,21.928,598.55,21.928,594.63"/>
	<polygon id="polygon7765" points="30.611,587.29,30.564,591.04,21.928,583.44,21.928,579.52"/>
	<polygon id="polygon7767" points="30.855,633.02,30.809,636.76,22.172,629.17,22.172,625.25"/>
	<polygon id="polygon7769" points="30.855,617.91,30.809,621.65,22.172,614.06,22.172,610.13"/>
	<polygon id="polygon7771" points="30.693,663.47,30.646,667.21,22.01,659.62,22.01,655.7"/>
	<polygon id="polygon7773" points="30.693,648.36,30.646,652.1,22.01,644.51,22.01,640.58"/>
	<polygon id="polygon7775" points="30.773,694.25,30.727,697.99,22.09,690.4,22.09,686.47"/>
	<polygon id="polygon7777" points="30.773,679.14,30.727,682.88,22.09,675.28,22.09,671.36"/>
	<polygon id="polygon7779" points="30.611,724.7,30.564,728.44,21.928,720.84,21.928,716.92"/>
	<polygon id="polygon7781" points="30.611,709.58,30.564,713.33,21.928,705.73,21.928,701.81"/>
	<polygon id="polygon7783" points="30.855,755.31,30.809,759.05,22.172,751.46,22.172,747.54"/>
	<polygon id="polygon7785" points="30.855,740.2,30.809,743.94,22.172,736.35,22.172,732.42"/>
	<polygon id="polygon7787" points="30.693,785.76,30.646,789.5,22.01,781.91,22.01,777.99"/>
	<polygon id="polygon7789" points="30.693,770.65,30.646,774.39,22.01,766.8,22.01,762.88"/>
	<polygon id="polygon7791" points="30.773,801.42,30.727,805.17,22.09,797.57,22.09,793.65"/>
	<g id="g7793">
		<polygon id="polygon7795" points="463.57,22.203,467.23,22.251,459.79,31.066,455.95,31.066"/>
		<polygon id="polygon7797" points="448.55,22.276,452.21,22.324,444.78,31.139,440.93,31.139"/>
		<polygon id="polygon7799" points="433.65,22.203,437.32,22.251,429.88,31.066,426.04,31.066"/>
		<polygon id="polygon7801" points="418.63,22.276,422.3,22.324,414.86,31.139,411.02,31.139"/>
		<polygon id="polygon7803" points="403.74,22.203,407.4,22.251,399.97,31.066,396.12,31.066"/>
		<polygon id="polygon7805" points="388.72,22.276,392.39,22.324,384.95,31.139,381.1,31.139"/>
		<polygon id="polygon7807" points="373.91,22.285,377.57,22.333,370.13,31.149,366.29,31.149"/>
		<polygon id="polygon7809" points="358.89,22.358,362.56,22.406,355.12,31.221,351.27,31.221"/>
		<polygon id="polygon7811" points="343.91,22.285,347.58,22.333,340.14,31.15,336.3,31.15"/>
		<polygon id="polygon7813" points="328.89,22.359,332.56,22.407,325.12,31.221,321.28,31.221"/>
		<polygon id="polygon7815" points="313.92,22.285,317.58,22.333,310.14,31.15,306.3,31.15"/>
		<polygon id="polygon7817" points="298.9,22.359,302.56,22.407,295.13,31.221,291.28,31.221"/>
		<polygon id="polygon7819" points="283.93,22.369,287.59,22.417,280.15,31.232,276.31,31.232"/>
		<polygon id="polygon7821" points="268.91,22.442,272.57,22.49,265.13,31.305,261.29,31.305"/>
		<polygon id="polygon7823" points="254.09,22.452,257.76,22.5,250.32,31.315,246.48,31.315"/>
		<polygon id="polygon7825" points="239.07,22.524,242.74,22.572,235.3,31.388,231.46,31.388"/>
		<polygon id="polygon7827" points="224.1,22.535,227.76,22.583,220.33,31.398,216.48,31.398"/>
		<polygon id="polygon7829" points="209.08,22.607,212.74,22.656,205.31,31.471,201.46,31.471"/>
		<polygon id="polygon7831" points="194.27,22.534,197.93,22.583,190.49,31.398,186.65,31.398"/>
		<polygon id="polygon7833" points="179.25,22.607,182.91,22.656,175.48,31.47,171.63,31.47"/>
		<polygon id="polygon7835" points="164.35,22.451,168.02,22.5,160.58,31.315,156.74,31.315"/>
		<polygon id="polygon7837" points="149.33,22.524,153,22.572,145.56,31.387,141.72,31.387"/>
		<polygon id="polygon7839" points="134.36,22.369,138.02,22.417,130.59,31.232,126.74,31.232"/>
		<polygon id="polygon7841" points="119.34,22.442,123.01,22.49,115.57,31.305,111.72,31.305"/>
		<polygon id="polygon7843" points="104.44,22.369,108.11,22.417,100.67,31.232,96.828,31.232"/>
		<polygon id="polygon7845" points="89.428,22.442,93.092,22.49,85.654,31.305,81.809,31.305"/>
		<polygon id="polygon7847" points="74.533,22.369,78.197,22.417,70.76,31.233,66.916,31.233"/>
		<polygon id="polygon7849" points="59.514,22.442,63.178,22.491,55.74,31.305,51.896,31.305"/>
		<polygon id="polygon7851" points="44.619,22.452,48.285,22.5,40.846,31.315,37.002,31.315"/>
		<polygon id="polygon7853" points="523.39,22.038,527.06,22.086,519.62,30.902,515.78,30.902"/>
		<polygon id="polygon7855" points="508.37,22.111,512.04,22.16,504.6,30.975,500.76,30.975"/>
		<polygon id="polygon7857" points="553.22,22.038,556.89,22.086,549.45,30.902,545.61,30.902"/>
		<polygon id="polygon7859" points="538.2,22.111,541.87,22.16,534.43,30.975,530.59,30.975"/>
		<polygon id="polygon7861" points="493.56,22.369,497.23,22.417,489.79,31.232,485.94,31.232"/>
		<polygon id="polygon7863" points="478.54,22.442,482.21,22.49,474.77,31.305,470.92,31.305"/>
		<polygon id="polygon7865" points="567.74,22.451,571.4,22.451,564.51,31.052,560.66,31.057"/>
		<rect id="rect7867" y="25.358" x="24.777" width="549.81" height="2.76"/>
		<polygon id="polygon7869" points="493.56,22.369,497.23,22.417,489.79,31.232,485.94,31.232"/>
		<polygon id="polygon7871" points="478.54,22.442,482.21,22.49,474.77,31.305,470.92,31.305"/>
		<polygon id="polygon7873" points="500.96,31.232,504.63,31.184,497.19,22.369,493.35,22.369"/>
		<polygon id="polygon7875" points="486.16,31.232,489.82,31.184,482.38,22.369,478.54,22.369"/>
		<polygon id="polygon7877" points="470.97,31.066,474.64,31.018,467.2,22.203,463.35,22.203"/>
		<polygon id="polygon7879" points="456.16,31.066,459.83,31.018,452.39,22.203,448.55,22.203"/>
		<polygon id="polygon7881" points="441.06,31.066,444.72,31.018,437.28,22.203,433.44,22.203"/>
		<polygon id="polygon7883" points="426.25,31.066,429.92,31.018,422.48,22.203,418.63,22.203"/>
		<polygon id="polygon7885" points="411.14,31.066,414.81,31.018,407.37,22.203,403.53,22.203"/>
		<polygon id="polygon7887" points="396.34,31.066,400,31.018,392.56,22.203,388.72,22.203"/>
		<polygon id="polygon7889" points="381.31,31.149,384.98,31.101,377.54,22.285,373.69,22.285"/>
		<polygon id="polygon7891" points="366.5,31.149,370.17,31.101,362.73,22.285,358.89,22.285"/>
		<polygon id="polygon7893" points="351.32,31.15,354.98,31.102,347.54,22.285,343.7,22.285"/>
		<polygon id="polygon7895" points="336.51,31.15,340.18,31.102,332.74,22.285,328.89,22.285"/>
		<polygon id="polygon7897" points="321.32,31.15,324.99,31.102,317.55,22.285,313.7,22.285"/>
		<polygon id="polygon7899" points="306.52,31.15,310.18,31.102,302.74,22.285,298.9,22.285"/>
		<polygon id="polygon7901" points="291.33,31.232,294.99,31.184,287.56,22.369,283.71,22.369"/>
		<polygon id="polygon7903" points="276.52,31.232,280.19,31.184,272.75,22.369,268.91,22.369"/>
		<polygon id="polygon7905" points="261.49,31.315,265.16,31.267,257.72,22.452,253.88,22.452"/>
		<polygon id="polygon7907" points="246.69,31.315,250.36,31.267,242.92,22.452,239.07,22.452"/>
		<polygon id="polygon7909" points="231.5,31.398,235.17,31.35,227.73,22.535,223.88,22.535"/>
		<polygon id="polygon7911" points="216.7,31.398,220.36,31.35,212.92,22.535,209.08,22.535"/>
		<polygon id="polygon7913" points="201.67,31.398,205.33,31.35,197.9,22.534,194.05,22.534"/>
		<polygon id="polygon7915" points="186.86,31.398,190.53,31.35,183.09,22.534,179.25,22.534"/>
		<polygon id="polygon7917" points="171.75,31.315,175.42,31.267,167.98,22.451,164.14,22.451"/>
		<polygon id="polygon7919" points="156.95,31.315,160.62,31.267,153.18,22.451,149.33,22.451"/>
		<polygon id="polygon7921" points="141.76,31.232,145.43,31.184,137.99,22.369,134.14,22.369"/>
		<polygon id="polygon7923" points="126.96,31.232,130.62,31.184,123.18,22.369,119.34,22.369"/>
		<polygon id="polygon7925" points="111.85,31.232,115.51,31.184,108.07,22.369,104.23,22.369"/>
		<polygon id="polygon7927" points="97.041,31.232,100.71,31.184,93.27,22.369,89.428,22.369"/>
		<polygon id="polygon7929" points="81.936,31.233,85.6,31.185,78.162,22.369,74.318,22.369"/>
		<polygon id="polygon7931" points="67.129,31.233,70.795,31.185,63.357,22.369,59.514,22.369"/>
		<polygon id="polygon7933" points="52.021,31.315,55.688,31.267,48.248,22.452,44.404,22.452"/>
		<polygon id="polygon7935" points="37.215,31.315,40.883,31.267,33.443,22.452,29.6,22.452"/>
		<polygon id="polygon7937" points="530.8,30.902,534.46,30.853,527.02,22.038,523.18,22.038"/>
		<polygon id="polygon7939" points="515.99,30.902,519.66,30.853,512.22,22.038,508.37,22.038"/>
		<polygon id="polygon7941" points="560.86,31.304,564.5,31.221,556.85,22.038,553.01,22.038"/>
		<polygon id="polygon7943" points="545.82,30.902,549.49,30.853,542.05,22.038,538.2,22.038"/>
		<polygon id="polygon7945" points="500.96,31.232,504.63,31.184,497.19,22.369,493.35,22.369"/>
		<polygon id="polygon7947" points="486.16,31.232,489.82,31.184,482.38,22.369,478.54,22.369"/>
	</g>
	<g id="g7949">
		<polygon id="polygon7951" points="568.83,478.91,568.88,482.65,577.52,475.06,577.52,471.13"/>
		<polygon id="polygon7953" points="568.9,463.58,568.95,467.32,577.59,459.72,577.59,455.8"/>
		<polygon id="polygon7955" points="568.83,448.38,568.88,452.12,577.52,444.52,577.52,440.6"/>
		<polygon id="polygon7957" points="568.9,433.05,568.95,436.78,577.59,429.19,577.59,425.27"/>
		<polygon id="polygon7959" points="568.83,417.84,568.88,421.58,577.52,413.99,577.52,410.07"/>
		<polygon id="polygon7961" points="568.9,402.51,568.95,406.26,577.59,398.66,577.59,394.74"/>
		<polygon id="polygon7963" points="568.91,387.39,568.96,391.14,577.6,383.54,577.6,379.62"/>
		<polygon id="polygon7965" points="568.98,372.06,569.03,375.81,577.67,368.21,577.67,364.29"/>
		<polygon id="polygon7967" points="568.91,356.78,568.96,360.52,577.6,352.93,577.6,349.01"/>
		<polygon id="polygon7969" points="568.99,341.45,569.03,345.19,577.67,337.6,577.67,333.68"/>
		<polygon id="polygon7971" points="568.91,326.17,568.96,329.91,577.6,322.32,577.6,318.39"/>
		<polygon id="polygon7973" points="568.99,310.84,569.03,314.58,577.67,306.99,577.67,303.06"/>
		<polygon id="polygon7975" points="568.99,295.55,569.04,299.29,577.68,291.7,577.68,287.78"/>
		<polygon id="polygon7977" points="569.07,280.22,569.11,283.96,577.75,276.37,577.75,272.45"/>
		<polygon id="polygon7979" points="569.08,265.1,569.12,268.84,577.76,261.25,577.76,257.33"/>
		<polygon id="polygon7981" points="569.15,249.77,569.2,253.52,577.83,245.92,577.83,242"/>
		<polygon id="polygon7983" points="569.16,234.49,569.2,238.23,577.84,230.64,577.84,226.72"/>
		<polygon id="polygon7985" points="569.23,219.16,569.28,222.9,577.91,215.31,577.91,211.39"/>
		<polygon id="polygon7987" points="569.16,204.04,569.2,207.78,577.84,200.19,577.84,196.27"/>
		<polygon id="polygon7989" points="569.23,188.71,569.28,192.45,577.91,184.86,577.91,180.94"/>
		<polygon id="polygon7991" points="569.08,173.51,569.12,177.25,577.76,169.66,577.76,165.74"/>
		<polygon id="polygon7993" points="569.15,158.18,569.2,161.92,577.83,154.33,577.83,150.41"/>
		<polygon id="polygon7995" points="568.99,142.9,569.04,146.64,577.68,139.04,577.68,135.12"/>
		<polygon id="polygon7997" points="569.07,127.57,569.11,131.31,577.75,123.72,577.75,119.79"/>
		<polygon id="polygon7999" points="568.99,112.36,569.04,116.1,577.68,108.51,577.68,104.59"/>
		<polygon id="polygon8001" points="569.07,97.035,569.11,100.78,577.75,93.184,577.75,89.261"/>
		<polygon id="polygon8003" points="568.99,81.833,569.04,85.573,577.68,77.982,577.68,74.058"/>
		<polygon id="polygon8005" points="569.07,66.503,569.12,70.245,577.75,62.653,577.75,58.729"/>
		<polygon id="polygon8007" points="569.08,51.301,569.12,55.042,577.76,47.45,577.76,43.527"/>
		<polygon id="polygon8009" points="568.67,539.97,568.72,543.71,577.36,536.12,577.36,532.2"/>
		<polygon id="polygon8011" points="568.74,524.64,568.79,528.38,577.43,520.79,577.43,516.86"/>
		<polygon id="polygon8013" points="568.67,570.42,568.72,574.16,577.36,566.57,577.36,562.64"/>
		<polygon id="polygon8015" points="568.74,555.09,568.79,558.83,577.43,551.24,577.43,547.31"/>
		<polygon id="polygon8017" points="568.99,509.52,569.04,513.26,577.68,505.67,577.68,501.74"/>
		<polygon id="polygon8019" points="569.07,494.19,569.11,497.93,577.75,490.34,577.75,486.42"/>
		<polygon id="polygon8021" points="568.75,601.11,568.8,604.85,577.44,597.26,577.44,593.34"/>
		<polygon id="polygon8023" points="568.82,585.78,568.87,589.52,577.51,581.93,577.51,578.01"/>
		<polygon id="polygon8025" points="568.99,631.73,569.04,635.47,577.68,627.88,577.68,623.95"/>
		<polygon id="polygon8027" points="569.07,616.4,569.11,620.14,577.75,612.55,577.75,608.62"/>
		<polygon id="polygon8029" points="568.83,662.18,568.88,665.92,577.52,658.32,577.52,654.4"/>
		<polygon id="polygon8031" points="568.9,646.84,568.95,650.59,577.59,643,577.59,639.07"/>
		<polygon id="polygon8033" points="568.91,692.96,568.96,696.7,577.6,689.1,577.6,685.18"/>
		<polygon id="polygon8035" points="568.99,677.62,569.03,681.37,577.67,673.77,577.67,669.85"/>
		<polygon id="polygon8037" points="568.75,723.4,568.8,727.14,577.44,719.55,577.44,715.63"/>
		<polygon id="polygon8039" points="568.82,708.07,568.87,711.82,577.51,704.22,577.51,700.3"/>
		<polygon id="polygon8041" points="568.99,754.02,569.04,757.76,577.68,750.17,577.68,746.24"/>
		<polygon id="polygon8043" points="569.07,738.69,569.11,742.43,577.75,734.84,577.75,730.91"/>
		<polygon id="polygon8045" points="568.83,784.47,568.88,788.21,577.52,780.62,577.52,776.69"/>
		<polygon id="polygon8047" points="568.9,769.14,568.95,772.88,577.59,765.29,577.59,761.36"/>
		<polygon id="polygon8049" points="568.99,799.92,569.03,803.66,577.67,796.06,577.67,792.14"/>
		<rect id="rect8051" y="25.468" x="572.09" width="2.703" height="790.11"/>
		<polygon id="polygon8053" points="568.99,509.52,569.04,513.26,577.68,505.67,577.68,501.74"/>
		<polygon id="polygon8055" points="569.07,494.19,569.11,497.93,577.75,490.34,577.75,486.42"/>
		<polygon id="polygon8057" points="577.68,517.08,577.63,520.82,568.99,513.22,568.99,509.3"/>
		<polygon id="polygon8059" points="577.68,501.96,577.63,505.7,568.99,498.11,568.99,494.19"/>
		<polygon id="polygon8061" points="577.52,486.46,577.47,490.2,568.83,482.61,568.83,478.69"/>
		<polygon id="polygon8063" points="577.52,471.35,577.47,475.09,568.83,467.5,568.83,463.58"/>
		<polygon id="polygon8065" points="577.52,455.93,577.47,459.67,568.83,452.08,568.83,448.16"/>
		<polygon id="polygon8067" points="577.52,440.82,577.47,444.56,568.83,436.97,568.83,433.05"/>
		<polygon id="polygon8069" points="577.52,425.4,577.47,429.14,568.83,421.55,568.83,417.62"/>
		<polygon id="polygon8071" points="577.52,410.29,577.47,414.03,568.83,406.44,568.83,402.51"/>
		<polygon id="polygon8073" points="577.6,394.95,577.55,398.69,568.91,391.1,568.91,387.18"/>
		<polygon id="polygon8075" points="577.6,379.84,577.55,383.58,568.91,375.99,568.91,372.06"/>
		<polygon id="polygon8077" points="577.6,364.34,577.55,368.08,568.91,360.49,568.91,356.56"/>
		<polygon id="polygon8079" points="577.6,349.22,577.55,352.97,568.91,345.38,568.91,341.45"/>
		<polygon id="polygon8081" points="577.6,333.72,577.55,337.46,568.91,329.87,568.91,325.95"/>
		<polygon id="polygon8083" points="577.6,318.61,577.55,322.35,568.91,314.76,568.91,310.84"/>
		<polygon id="polygon8085" points="577.68,303.11,577.63,306.85,568.99,299.26,568.99,295.33"/>
		<polygon id="polygon8087" points="577.68,288,577.63,291.74,568.99,284.14,568.99,280.22"/>
		<polygon id="polygon8089" points="577.76,272.66,577.71,276.4,569.08,268.81,569.08,264.89"/>
		<polygon id="polygon8091" points="577.76,257.55,577.71,261.29,569.08,253.7,569.08,249.77"/>
		<polygon id="polygon8093" points="577.84,242.04,577.79,245.79,569.16,238.2,569.16,234.27"/>
		<polygon id="polygon8095" points="577.84,226.93,577.79,230.68,569.16,223.08,569.16,219.16"/>
		<polygon id="polygon8097" points="577.84,211.6,577.79,215.34,569.16,207.74,569.16,203.82"/>
		<polygon id="polygon8099" points="577.84,196.48,577.79,200.23,569.16,192.63,569.16,188.71"/>
		<polygon id="polygon8101" points="577.76,181.06,577.71,184.81,569.08,177.21,569.08,173.29"/>
		<polygon id="polygon8103" points="577.76,165.95,577.71,169.7,569.08,162.1,569.08,158.18"/>
		<polygon id="polygon8105" points="577.68,150.45,577.63,154.19,568.99,146.6,568.99,142.68"/>
		<polygon id="polygon8107" points="577.68,135.34,577.63,139.08,568.99,131.49,568.99,127.57"/>
		<polygon id="polygon8109" points="577.68,119.92,577.63,123.66,568.99,116.07,568.99,112.15"/>
		<polygon id="polygon8111" points="577.68,104.81,577.63,108.55,568.99,100.96,568.99,97.035"/>
		<polygon id="polygon8113" points="577.68,89.388,577.63,93.13,568.99,85.538,568.99,81.614"/>
		<polygon id="polygon8115" points="577.68,74.276,577.63,78.018,568.99,70.426,568.99,66.503"/>
		<polygon id="polygon8117" points="577.76,58.857,577.71,62.599,569.08,55.006,569.08,51.083"/>
		<polygon id="polygon8119" points="577.76,43.745,577.71,47.487,569.08,39.895,569.08,35.972"/>
		<polygon id="polygon8121" points="577.36,547.52,577.31,551.26,568.67,543.67,568.67,539.75"/>
		<polygon id="polygon8123" points="577.36,532.41,577.31,536.15,568.67,528.56,568.67,524.64"/>
		<polygon id="polygon8125" points="577.36,577.97,577.31,581.71,568.67,574.12,568.67,570.2"/>
		<polygon id="polygon8127" points="577.36,562.86,577.31,566.6,568.67,559.01,568.67,555.09"/>
		<polygon id="polygon8129" points="577.68,517.08,577.63,520.82,568.99,513.22,568.99,509.3"/>
		<polygon id="polygon8131" points="577.68,501.96,577.63,505.7,568.99,498.11,568.99,494.19"/>
		<polygon id="polygon8133" points="577.44,608.67,577.39,612.41,568.75,604.82,568.75,600.89"/>
		<polygon id="polygon8135" points="577.44,593.56,577.39,597.3,568.75,589.71,568.75,585.78"/>
		<polygon id="polygon8137" points="577.68,639.28,577.63,643.02,568.99,635.43,568.99,631.51"/>
		<polygon id="polygon8139" points="577.68,624.17,577.63,627.91,568.99,620.32,568.99,616.4"/>
		<polygon id="polygon8141" points="577.52,669.73,577.47,673.47,568.83,665.88,568.83,661.96"/>
		<polygon id="polygon8143" points="577.52,654.62,577.47,658.36,568.83,650.77,568.83,646.84"/>
		<polygon id="polygon8145" points="577.6,700.51,577.55,704.25,568.91,696.66,568.91,692.74"/>
		<polygon id="polygon8147" points="577.6,685.4,577.55,689.14,568.91,681.55,568.91,677.62"/>
		<polygon id="polygon8149" points="577.44,730.96,577.39,734.7,568.75,727.11,568.75,723.19"/>
		<polygon id="polygon8151" points="577.44,715.85,577.39,719.59,568.75,712,568.75,708.07"/>
		<polygon id="polygon8153" points="577.68,761.57,577.63,765.31,568.99,757.72,568.99,753.8"/>
		<polygon id="polygon8155" points="577.68,746.46,577.63,750.2,568.99,742.61,568.99,738.69"/>
		<polygon id="polygon8157" points="577.52,792.02,577.47,795.76,568.83,788.17,568.83,784.25"/>
		<polygon id="polygon8159" points="577.52,776.91,577.47,780.65,568.83,773.06,568.83,769.14"/>
		<polygon id="polygon8161" points="577.88,807.54,577.83,811.28,569.2,803.68,569.2,799.76"/>
	</g>
	<polygon id="polygon8163" points="577.64,29.07,577.56,33.291,567.1,22.451,570.84,22.333"/>
	<g id="g8165">
		<polygon id="polygon8167" points="469.18,810.05,472.85,810.1,465.41,818.91,461.57,818.91"/>
		<polygon id="polygon8169" points="454.16,810.12,457.83,810.17,450.39,818.99,446.55,818.99"/>
		<polygon id="polygon8171" points="439.27,810.05,442.94,810.1,435.5,818.91,431.65,818.91"/>
		<polygon id="polygon8173" points="424.25,810.12,427.92,810.17,420.48,818.99,416.64,818.99"/>
		<polygon id="polygon8175" points="409.36,810.05,413.02,810.1,405.58,818.91,401.74,818.91"/>
		<polygon id="polygon8177" points="394.34,810.12,398,810.17,390.57,818.99,386.72,818.99"/>
		<polygon id="polygon8179" points="379.52,810.13,383.19,810.18,375.75,819,371.91,819"/>
		<polygon id="polygon8181" points="364.5,810.21,368.17,810.26,360.73,819.07,356.89,819.07"/>
		<polygon id="polygon8183" points="349.53,810.13,353.2,810.18,345.76,819,341.91,819"/>
		<polygon id="polygon8185" points="334.51,810.21,338.18,810.26,330.74,819.07,326.9,819.07"/>
		<polygon id="polygon8187" points="319.53,810.13,323.2,810.18,315.76,819,311.92,819"/>
		<polygon id="polygon8189" points="304.52,810.21,308.18,810.26,300.74,819.07,296.9,819.07"/>
		<polygon id="polygon8191" points="289.54,810.21,293.21,810.26,285.77,819.08,281.92,819.08"/>
		<polygon id="polygon8193" points="274.52,810.29,278.19,810.34,270.75,819.15,266.9,819.15"/>
		<polygon id="polygon8195" points="259.71,810.3,263.37,810.35,255.93,819.16,252.09,819.16"/>
		<polygon id="polygon8197" points="244.69,810.37,248.35,810.42,240.92,819.24,237.07,819.24"/>
		<polygon id="polygon8199" points="229.72,810.38,233.38,810.43,225.94,819.25,222.1,819.25"/>
		<polygon id="polygon8201" points="214.7,810.46,218.36,810.5,210.92,819.32,207.08,819.32"/>
		<polygon id="polygon8203" points="199.88,810.38,203.54,810.43,196.11,819.25,192.26,819.25"/>
		<polygon id="polygon8205" points="184.86,810.46,188.53,810.5,181.09,819.32,177.25,819.32"/>
		<polygon id="polygon8207" points="169.97,810.3,173.63,810.35,166.19,819.16,162.35,819.16"/>
		<polygon id="polygon8209" points="154.95,810.37,158.62,810.42,151.18,819.23,147.33,819.23"/>
		<polygon id="polygon8211" points="139.98,810.21,143.64,810.26,136.2,819.08,132.36,819.08"/>
		<polygon id="polygon8213" points="124.96,810.29,128.62,810.34,121.18,819.15,117.34,819.15"/>
		<polygon id="polygon8215" points="111.03,810.21,114.7,810.26,107.26,819.08,103.42,819.08"/>
		<polygon id="polygon8217" points="96.014,810.29,99.68,810.34,92.24,819.15,88.396,819.15"/>
		<polygon id="polygon8219" points="81.121,810.21,84.785,810.26,77.348,819.08,73.504,819.08"/>
		<polygon id="polygon8221" points="66.102,810.29,69.766,810.34,62.328,819.15,58.484,819.15"/>
		<polygon id="polygon8223" points="51.207,810.3,54.873,810.35,47.434,819.16,43.59,819.16"/>
		<polygon id="polygon8225" points="529.01,809.88,532.67,809.93,525.24,818.75,521.39,818.75"/>
		<polygon id="polygon8227" points="513.99,809.96,517.66,810,510.22,818.82,506.37,818.82"/>
		<polygon id="polygon8229" points="558.84,809.88,562.51,809.93,555.07,818.75,551.22,818.75"/>
		<polygon id="polygon8231" points="543.82,809.96,547.49,810,540.05,818.82,536.2,818.82"/>
		<polygon id="polygon8233" points="499.18,810.21,502.84,810.26,495.4,819.08,491.56,819.08"/>
		<polygon id="polygon8235" points="484.16,810.29,487.82,810.34,480.38,819.15,476.54,819.15"/>
		<rect id="rect8237" y="813.24" x="25.107" width="547.06" height="2.762"/>
		<polygon id="polygon8239" points="499.18,810.21,502.84,810.26,495.4,819.08,491.56,819.08"/>
		<polygon id="polygon8241" points="484.16,810.29,487.82,810.34,480.38,819.15,476.54,819.15"/>
		<polygon id="polygon8243" points="506.58,819.08,510.24,819.03,502.81,810.21,498.96,810.21"/>
		<polygon id="polygon8245" points="491.77,819.08,495.44,819.03,488,810.21,484.16,810.21"/>
		<polygon id="polygon8247" points="476.59,818.91,480.25,818.86,472.81,810.05,468.97,810.05"/>
		<polygon id="polygon8249" points="461.78,818.91,465.44,818.86,458.01,810.05,454.16,810.05"/>
		<polygon id="polygon8251" points="446.67,818.91,450.34,818.86,442.9,810.05,439.06,810.05"/>
		<polygon id="polygon8253" points="431.87,818.91,435.53,818.86,428.09,810.05,424.25,810.05"/>
		<polygon id="polygon8255" points="416.76,818.91,420.43,818.86,412.99,810.05,409.14,810.05"/>
		<polygon id="polygon8257" points="401.95,818.91,405.62,818.86,398.18,810.05,394.34,810.05"/>
		<polygon id="polygon8259" points="386.93,819,390.59,818.95,383.15,810.13,379.31,810.13"/>
		<polygon id="polygon8261" points="372.12,819,375.78,818.95,368.35,810.13,364.5,810.13"/>
		<polygon id="polygon8263" points="356.93,819,360.6,818.95,353.16,810.13,349.32,810.13"/>
		<polygon id="polygon8265" points="342.13,819,345.79,818.95,338.36,810.13,334.51,810.13"/>
		<polygon id="polygon8267" points="326.94,819,330.6,818.95,323.16,810.13,319.32,810.13"/>
		<polygon id="polygon8269" points="312.13,819,315.8,818.95,308.36,810.13,304.52,810.13"/>
		<polygon id="polygon8271" points="296.94,819.08,300.61,819.03,293.17,810.21,289.33,810.21"/>
		<polygon id="polygon8273" points="282.14,819.08,285.8,819.03,278.36,810.21,274.52,810.21"/>
		<polygon id="polygon8275" points="267.11,819.16,270.78,819.11,263.34,810.3,259.49,810.3"/>
		<polygon id="polygon8277" points="252.3,819.16,255.97,819.11,248.53,810.3,244.69,810.3"/>
		<polygon id="polygon8279" points="237.12,819.25,240.78,819.2,233.34,810.38,229.5,810.38"/>
		<polygon id="polygon8281" points="222.31,819.25,225.98,819.2,218.54,810.38,214.7,810.38"/>
		<polygon id="polygon8283" points="207.28,819.25,210.95,819.2,203.51,810.38,199.67,810.38"/>
		<polygon id="polygon8285" points="192.48,819.25,196.14,819.2,188.7,810.38,184.86,810.38"/>
		<polygon id="polygon8287" points="177.37,819.16,181.04,819.11,173.6,810.3,169.75,810.3"/>
		<polygon id="polygon8289" points="162.56,819.16,166.23,819.11,158.79,810.3,154.95,810.3"/>
		<polygon id="polygon8291" points="147.38,819.08,151.04,819.03,143.6,810.21,139.76,810.21"/>
		<polygon id="polygon8293" points="132.57,819.08,136.24,819.03,128.8,810.21,124.96,810.21"/>
		<polygon id="polygon8295" points="118.44,819.08,122.1,819.03,114.66,810.21,110.82,810.21"/>
		<polygon id="polygon8297" points="103.63,819.08,107.3,819.03,99.857,810.21,96.014,810.21"/>
		<polygon id="polygon8299" points="88.523,819.08,92.188,819.03,84.75,810.21,80.906,810.21"/>
		<polygon id="polygon8301" points="73.717,819.08,77.383,819.03,69.945,810.21,66.102,810.21"/>
		<polygon id="polygon8303" points="58.609,819.16,62.275,819.11,54.836,810.3,50.992,810.3"/>
		<polygon id="polygon8305" points="43.803,819.16,47.471,819.11,40.031,810.3,36.188,810.3"/>
		<polygon id="polygon8307" points="536.41,818.75,540.08,818.7,532.64,809.88,528.8,809.88"/>
		<polygon id="polygon8309" points="521.6,818.75,525.27,818.7,517.83,809.88,513.99,809.88"/>
		<polygon id="polygon8311" points="566.47,819.15,570.12,819.07,562.47,809.88,558.63,809.88"/>
		<polygon id="polygon8313" points="551.44,818.75,555.1,818.7,547.67,809.88,543.82,809.88"/>
		<polygon id="polygon8315" points="506.58,819.08,510.24,819.03,502.81,810.21,498.96,810.21"/>
		<polygon id="polygon8317" points="491.77,819.08,495.44,819.03,488,810.21,484.16,810.21"/>
	</g>
	<polygon id="polygon8319" points="33.373,819.19,29.346,819.2,22.09,812.69,22.09,808.76"/>
</g>
<rect id="rect9125" height="840" width="552.67" y="21.674" x="21.662" fill="none"/>
<rect id="rect3391" stroke-dasharray="none" height="812.24" width="569.27" stroke="#17619a" stroke-miterlimit="10" y="13.572" x="13.555" stroke-width="8.961" fill="none"/>
<rect id="rect3393" height="792.89" width="547.69" stroke="#101e88" stroke-miterlimit="10" y="22.317" x="23.362" stroke-width="0.9921" fill="none"/>
</svg>
