<?xml version="1.0" encoding="utf-8"?>
<!-- Generator: Adobe Illustrator 16.0.0, SVG Export Plug-In . SVG Version: 6.00 Build 0)  -->
<!DOCTYPE svg PUBLIC "-//W3C//DTD SVG 1.1//EN" "http://www.w3.org/Graphics/SVG/1.1/DTD/svg11.dtd">
<svg version="1.1" id="Layer_1" xmlns="http://www.w3.org/2000/svg" xmlns:xlink="http://www.w3.org/1999/xlink" x="0px" y="0px"
	 width="595.28px" height="841.89px" viewBox="0 0 595.28 841.89" enable-background="new 0 0 595.28 841.89" xml:space="preserve">
<rect x="-5.673" y="-4.32" opacity="0.5" fill="#DDDDDD" width="604.666" height="856"/>
<rect x="463.587" y="44.979" fill="#FFFFFF" stroke="#76BB64" stroke-width="0.5" stroke-miterlimit="10" width="87" height="33.833"/>
<g opacity="0.1">
	<polygon points="22.172,503.256 22.219,506.998 30.855,499.404 30.855,495.482 	"/>
	<polygon points="22.242,487.926 22.291,491.668 30.926,484.076 30.926,480.152 	"/>
	<polygon points="577.877,806.793 577.969,810.516 570.1,819.025 566.252,819.029 	"/>
	<polygon points="33.373,819.189 29.346,819.203 36.191,810.447 40.031,810.301 	"/>
	<polygon points="569.076,35.972 569.076,39.895 577.111,32.752 577.111,28.83 	"/>
	<polygon points="22.01,472.643 22.057,476.383 30.693,468.793 30.693,464.869 	"/>
	<polygon points="22.08,457.314 22.127,461.055 30.764,453.463 30.764,449.539 	"/>
	<polygon points="22.01,442.111 22.057,445.852 30.693,438.26 30.693,434.336 	"/>
	<polygon points="22.08,426.783 22.127,430.523 30.764,422.932 30.764,419.008 	"/>
	<polygon points="22.01,411.581 22.057,415.32 30.693,407.729 30.693,403.805 	"/>
	<polygon points="22.08,396.25 22.127,399.993 30.764,392.4 30.764,388.477 	"/>
	<polygon points="22.09,381.131 22.137,384.872 30.773,377.28 30.773,373.356 	"/>
	<polygon points="22.16,365.801 22.209,369.543 30.844,361.951 30.844,358.028 	"/>
	<polygon points="22.09,350.517 22.139,354.258 30.773,346.667 30.773,342.743 	"/>
	<polygon points="22.162,335.188 22.209,338.929 30.846,331.336 30.846,327.415 	"/>
	<polygon points="22.09,319.903 22.139,323.644 30.773,316.051 30.773,312.129 	"/>
	<polygon points="22.162,304.573 22.209,308.315 30.846,300.723 30.846,296.799 	"/>
	<polygon points="22.172,289.289 22.219,293.03 30.855,285.438 30.855,281.514 	"/>
	<polygon points="22.242,273.959 22.291,277.701 30.926,270.108 30.926,266.186 	"/>
	<polygon points="22.252,258.84 22.301,262.581 30.938,254.989 30.938,251.066 	"/>
	<polygon points="22.324,243.511 22.371,247.252 31.008,239.661 31.008,235.737 	"/>
	<polygon points="22.334,228.226 22.381,231.967 31.018,224.375 31.018,220.452 	"/>
	<polygon points="22.404,212.896 22.453,216.638 31.09,209.045 31.09,205.123 	"/>
	<polygon points="22.334,197.777 22.381,201.518 31.018,193.926 31.018,190.002 	"/>
	<polygon points="22.404,182.447 22.453,186.189 31.088,178.597 31.088,174.674 	"/>
	<polygon points="22.252,167.246 22.299,170.986 30.936,163.395 30.936,159.472 	"/>
	<polygon points="22.324,151.917 22.371,155.659 31.008,148.066 31.008,144.143 	"/>
	<polygon points="22.172,136.632 22.219,140.373 30.855,132.78 30.855,128.857 	"/>
	<polygon points="22.242,121.302 22.291,125.044 30.926,117.451 30.926,113.529 	"/>
	<polygon points="22.172,106.101 22.219,109.841 30.855,102.249 30.855,98.326 	"/>
	<polygon points="22.242,90.771 22.291,94.512 30.926,86.92 30.926,82.998 	"/>
	<polygon points="22.172,75.569 22.219,79.31 30.855,71.718 30.855,67.794 	"/>
	<polygon points="22.244,60.239 22.291,63.981 30.928,56.389 30.928,52.466 	"/>
	<polygon points="22.252,45.038 22.301,48.778 30.938,41.186 30.938,37.263 	"/>
	<polygon points="22.324,29.708 22.371,33.45 33.662,22.534 29.771,22.534 	"/>
	<polygon points="21.848,533.707 21.895,537.447 30.531,529.855 30.531,525.932 	"/>
	<polygon points="21.918,518.377 21.967,522.117 30.602,514.525 30.602,510.602 	"/>
	<polygon points="21.848,564.152 21.895,567.895 30.531,560.303 30.531,556.379 	"/>
	<polygon points="21.918,548.824 21.967,552.564 30.602,544.973 30.602,541.049 	"/>
	<polygon points="22.172,503.256 22.219,506.998 30.855,499.404 30.855,495.482 	"/>
	<polygon points="22.242,487.926 22.291,491.668 30.926,484.076 30.926,480.152 	"/>
	<polygon points="21.928,594.85 21.977,598.592 30.611,591 30.611,587.076 	"/>
	<polygon points="22,579.521 22.047,583.262 30.684,575.67 30.684,571.746 	"/>
	<polygon points="22.172,625.465 22.219,629.205 30.855,621.613 30.855,617.689 	"/>
	<polygon points="22.242,610.135 22.291,613.877 30.926,606.283 30.926,602.361 	"/>
	<polygon points="22.01,655.914 22.057,659.654 30.693,652.063 30.693,648.139 	"/>
	<polygon points="22.08,640.584 22.129,644.326 30.764,636.734 30.764,632.811 	"/>
	<polygon points="22.09,686.691 22.139,690.434 30.773,682.84 30.773,678.916 	"/>
	<polygon points="22.162,671.361 22.209,675.104 30.846,667.512 30.846,663.588 	"/>
	<polygon points="21.928,717.141 21.977,720.881 30.611,713.289 30.611,709.365 	"/>
	<polygon points="22,701.811 22.047,705.553 30.684,697.961 30.684,694.037 	"/>
	<polygon points="22.172,747.754 22.219,751.496 30.855,743.902 30.855,739.98 	"/>
	<polygon points="22.242,732.424 22.291,736.166 30.926,728.574 30.926,724.65 	"/>
	<polygon points="22.01,778.203 22.057,781.945 30.693,774.354 30.693,770.428 	"/>
	<polygon points="22.08,762.875 22.129,766.615 30.764,759.023 30.764,755.1 	"/>
	<polygon points="22.09,808.982 22.139,812.723 30.773,805.131 30.773,801.207 	"/>
	<polygon points="22.162,793.652 22.209,797.395 30.846,789.803 30.846,785.881 	"/>
	<rect x="25.045" y="25.465" width="2.705" height="788.482"/>
	<polygon points="30.855,510.811 30.809,514.553 22.172,506.961 22.172,503.037 	"/>
	<polygon points="30.855,495.699 30.809,499.443 22.172,491.852 22.172,487.926 	"/>
	<polygon points="30.693,480.197 30.645,483.939 22.01,476.346 22.01,472.424 	"/>
	<polygon points="30.693,465.086 30.645,468.826 22.01,461.234 22.01,457.314 	"/>
	<polygon points="30.693,449.666 30.645,453.408 22.01,445.814 22.01,441.893 	"/>
	<polygon points="30.693,434.555 30.645,438.295 22.01,430.703 22.01,426.783 	"/>
	<polygon points="30.693,419.135 30.645,422.877 22.01,415.285 22.01,411.362 	"/>
	<polygon points="30.693,404.024 30.645,407.765 22.01,400.173 22.01,396.25 	"/>
	<polygon points="30.773,388.686 30.727,392.428 22.09,384.835 22.09,380.913 	"/>
	<polygon points="30.773,373.575 30.727,377.317 22.09,369.724 22.09,365.801 	"/>
	<polygon points="30.773,358.073 30.727,361.815 22.09,354.223 22.09,350.299 	"/>
	<polygon points="30.773,342.961 30.727,346.703 22.09,339.111 22.09,335.188 	"/>
	<polygon points="30.773,327.458 30.727,331.2 22.09,323.608 22.09,319.685 	"/>
	<polygon points="30.773,312.346 30.727,316.088 22.09,308.497 22.09,304.573 	"/>
	<polygon points="30.855,296.844 30.809,300.585 22.172,292.994 22.172,289.071 	"/>
	<polygon points="30.855,281.733 30.809,285.474 22.172,277.881 22.172,273.959 	"/>
	<polygon points="30.938,266.396 30.889,270.137 22.252,262.545 22.252,258.623 	"/>
	<polygon points="30.938,251.284 30.889,255.026 22.252,247.434 22.252,243.511 	"/>
	<polygon points="31.018,235.782 30.971,239.523 22.334,231.931 22.334,228.007 	"/>
	<polygon points="31.018,220.67 30.971,224.412 22.334,216.82 22.334,212.896 	"/>
	<polygon points="31.018,205.332 30.969,209.074 22.334,201.482 22.334,197.559 	"/>
	<polygon points="31.018,190.221 30.969,193.962 22.334,186.37 22.334,182.447 	"/>
	<polygon points="30.936,174.801 30.889,178.543 22.252,170.951 22.252,167.028 	"/>
	<polygon points="30.936,159.69 30.889,163.432 22.252,155.839 22.252,151.917 	"/>
	<polygon points="30.855,144.188 30.809,147.929 22.172,140.337 22.172,136.414 	"/>
	<polygon points="30.855,129.076 30.809,132.817 22.172,125.226 22.172,121.302 	"/>
	<polygon points="30.855,113.656 30.809,117.397 22.172,109.805 22.172,105.882 	"/>
	<polygon points="30.855,98.544 30.809,102.286 22.172,94.694 22.172,90.771 	"/>
	<polygon points="30.855,83.125 30.809,86.866 22.172,79.274 22.172,75.351 	"/>
	<polygon points="30.855,68.013 30.809,71.754 22.172,64.163 22.172,60.239 	"/>
	<polygon points="30.938,52.593 30.889,56.334 22.252,48.743 22.252,44.819 	"/>
	<polygon points="30.938,37.481 30.889,41.224 22.252,33.631 22.252,29.708 	"/>
	<polygon points="30.531,541.26 30.484,545.002 21.848,537.41 21.848,533.486 	"/>
	<polygon points="30.531,526.148 30.484,529.889 21.848,522.297 21.848,518.377 	"/>
	<polygon points="30.531,571.707 30.484,575.449 21.848,567.859 21.848,563.936 	"/>
	<polygon points="30.531,556.598 30.484,560.34 21.848,552.746 21.848,548.824 	"/>
	<polygon points="30.855,510.811 30.809,514.553 22.172,506.961 22.172,503.037 	"/>
	<polygon points="30.855,495.699 30.809,499.443 22.172,491.852 22.172,487.926 	"/>
	<polygon points="30.611,602.406 30.564,606.146 21.928,598.555 21.928,594.631 	"/>
	<polygon points="30.611,587.293 30.564,591.037 21.928,583.445 21.928,579.521 	"/>
	<polygon points="30.855,633.02 30.809,636.76 22.172,629.168 22.172,625.246 	"/>
	<polygon points="30.855,617.906 30.809,621.65 22.172,614.059 22.172,610.135 	"/>
	<polygon points="30.693,663.469 30.646,667.209 22.01,659.617 22.01,655.695 	"/>
	<polygon points="30.693,648.357 30.646,652.1 22.01,644.508 22.01,640.584 	"/>
	<polygon points="30.773,694.246 30.727,697.99 22.09,690.396 22.09,686.475 	"/>
	<polygon points="30.773,679.137 30.727,682.877 22.09,675.285 22.09,671.361 	"/>
	<polygon points="30.611,724.695 30.564,728.438 21.928,720.846 21.928,716.924 	"/>
	<polygon points="30.611,709.586 30.564,713.328 21.928,705.734 21.928,701.811 	"/>
	<polygon points="30.855,755.309 30.809,759.053 22.172,751.461 22.172,747.537 	"/>
	<polygon points="30.855,740.199 30.809,743.939 22.172,736.348 22.172,732.424 	"/>
	<polygon points="30.693,785.758 30.646,789.5 22.01,781.908 22.01,777.986 	"/>
	<polygon points="30.693,770.648 30.646,774.389 22.01,766.797 22.01,762.875 	"/>
	<polygon points="30.773,801.426 30.727,805.168 22.09,797.574 22.09,793.652 	"/>
	<g>
		<polygon points="463.566,22.203 467.23,22.251 459.793,31.066 455.949,31.066 		"/>
		<polygon points="448.547,22.276 452.213,22.324 444.775,31.139 440.932,31.139 		"/>
		<polygon points="433.652,22.203 437.318,22.251 429.879,31.066 426.037,31.066 		"/>
		<polygon points="418.633,22.276 422.301,22.324 414.861,31.139 411.018,31.139 		"/>
		<polygon points="403.74,22.203 407.404,22.251 399.967,31.066 396.123,31.066 		"/>
		<polygon points="388.721,22.276 392.387,22.324 384.949,31.139 381.105,31.139 		"/>
		<polygon points="373.906,22.285 377.57,22.333 370.133,31.149 366.289,31.149 		"/>
		<polygon points="358.887,22.358 362.555,22.406 355.115,31.221 351.271,31.221 		"/>
		<polygon points="343.914,22.285 347.578,22.333 340.139,31.15 336.297,31.15 		"/>
		<polygon points="328.893,22.359 332.561,22.407 325.123,31.221 321.279,31.221 		"/>
		<polygon points="313.918,22.285 317.584,22.333 310.145,31.15 306.301,31.15 		"/>
		<polygon points="298.898,22.359 302.564,22.407 295.127,31.221 291.283,31.221 		"/>
		<polygon points="283.926,22.369 287.59,22.417 280.152,31.232 276.309,31.232 		"/>
		<polygon points="268.906,22.442 272.572,22.49 265.133,31.305 261.289,31.305 		"/>
		<polygon points="254.092,22.452 257.758,22.5 250.318,31.315 246.475,31.315 		"/>
		<polygon points="239.072,22.524 242.74,22.572 235.301,31.388 231.457,31.388 		"/>
		<polygon points="224.1,22.535 227.764,22.583 220.326,31.398 216.482,31.398 		"/>
		<polygon points="209.08,22.607 212.744,22.656 205.307,31.471 201.463,31.471 		"/>
		<polygon points="194.266,22.534 197.93,22.583 190.492,31.398 186.648,31.398 		"/>
		<polygon points="179.246,22.607 182.914,22.656 175.475,31.47 171.631,31.47 		"/>
		<polygon points="164.352,22.451 168.018,22.5 160.578,31.315 156.736,31.315 		"/>
		<polygon points="149.332,22.524 153,22.572 145.561,31.387 141.719,31.387 		"/>
		<polygon points="134.359,22.369 138.025,22.417 130.586,31.232 126.742,31.232 		"/>
		<polygon points="119.34,22.442 123.006,22.49 115.566,31.305 111.723,31.305 		"/>
		<polygon points="104.445,22.369 108.111,22.417 100.672,31.232 96.828,31.232 		"/>
		<polygon points="89.428,22.442 93.092,22.49 85.654,31.305 81.809,31.305 		"/>
		<polygon points="74.533,22.369 78.197,22.417 70.76,31.233 66.916,31.233 		"/>
		<polygon points="59.514,22.442 63.178,22.491 55.74,31.305 51.896,31.305 		"/>
		<polygon points="44.619,22.452 48.285,22.5 40.846,31.315 37.002,31.315 		"/>
		<polygon points="523.393,22.038 527.057,22.086 519.619,30.902 515.775,30.902 		"/>
		<polygon points="508.373,22.111 512.039,22.16 504.602,30.975 500.758,30.975 		"/>
		<polygon points="553.225,22.038 556.889,22.086 549.451,30.902 545.607,30.902 		"/>
		<polygon points="538.205,22.111 541.871,22.16 534.434,30.975 530.59,30.975 		"/>
		<polygon points="493.561,22.369 497.227,22.417 489.787,31.232 485.943,31.232 		"/>
		<polygon points="478.541,22.442 482.207,22.49 474.768,31.305 470.924,31.305 		"/>
		<polygon points="567.746,22.451 571.395,22.451 564.512,31.052 560.664,31.057 		"/>
		<rect x="24.777" y="25.358" width="549.807" height="2.76"/>
		<polygon points="493.561,22.369 497.227,22.417 489.787,31.232 485.943,31.232 		"/>
		<polygon points="478.541,22.442 482.207,22.49 474.768,31.305 470.924,31.305 		"/>
		<polygon points="500.963,31.232 504.629,31.184 497.189,22.369 493.346,22.369 		"/>
		<polygon points="486.156,31.232 489.822,31.184 482.385,22.369 478.541,22.369 		"/>
		<polygon points="470.969,31.066 474.635,31.018 467.197,22.203 463.354,22.203 		"/>
		<polygon points="456.164,31.066 459.828,31.018 452.391,22.203 448.547,22.203 		"/>
		<polygon points="441.055,31.066 444.723,31.018 437.285,22.203 433.439,22.203 		"/>
		<polygon points="426.252,31.066 429.916,31.018 422.477,22.203 418.633,22.203 		"/>
		<polygon points="411.143,31.066 414.809,31.018 407.371,22.203 403.527,22.203 		"/>
		<polygon points="396.338,31.066 400.002,31.018 392.564,22.203 388.721,22.203 		"/>
		<polygon points="381.309,31.149 384.977,31.101 377.537,22.285 373.693,22.285 		"/>
		<polygon points="366.504,31.149 370.168,31.101 362.73,22.285 358.887,22.285 		"/>
		<polygon points="351.316,31.15 354.982,31.102 347.545,22.285 343.701,22.285 		"/>
		<polygon points="336.512,31.15 340.176,31.102 332.738,22.285 328.893,22.285 		"/>
		<polygon points="321.32,31.15 324.988,31.102 317.549,22.285 313.705,22.285 		"/>
		<polygon points="306.516,31.15 310.182,31.102 302.742,22.285 298.898,22.285 		"/>
		<polygon points="291.328,31.232 294.992,31.184 287.555,22.369 283.711,22.369 		"/>
		<polygon points="276.521,31.232 280.188,31.184 272.75,22.369 268.906,22.369 		"/>
		<polygon points="261.494,31.315 265.16,31.267 257.723,22.452 253.879,22.452 		"/>
		<polygon points="246.689,31.315 250.355,31.267 242.916,22.452 239.072,22.452 		"/>
		<polygon points="231.502,31.398 235.166,31.35 227.729,22.535 223.885,22.535 		"/>
		<polygon points="216.695,31.398 220.361,31.35 212.924,22.535 209.08,22.535 		"/>
		<polygon points="201.668,31.398 205.334,31.35 197.896,22.534 194.053,22.534 		"/>
		<polygon points="186.863,31.398 190.529,31.35 183.09,22.534 179.246,22.534 		"/>
		<polygon points="171.754,31.315 175.422,31.267 167.982,22.451 164.139,22.451 		"/>
		<polygon points="156.949,31.315 160.615,31.267 153.176,22.451 149.332,22.451 		"/>
		<polygon points="141.762,31.232 145.426,31.184 137.988,22.369 134.145,22.369 		"/>
		<polygon points="126.955,31.232 130.621,31.184 123.184,22.369 119.34,22.369 		"/>
		<polygon points="111.848,31.232 115.514,31.184 108.074,22.369 104.232,22.369 		"/>
		<polygon points="97.041,31.232 100.709,31.184 93.27,22.369 89.428,22.369 		"/>
		<polygon points="81.936,31.233 85.6,31.185 78.162,22.369 74.318,22.369 		"/>
		<polygon points="67.129,31.233 70.795,31.185 63.357,22.369 59.514,22.369 		"/>
		<polygon points="52.021,31.315 55.688,31.267 48.248,22.452 44.404,22.452 		"/>
		<polygon points="37.215,31.315 40.883,31.267 33.443,22.452 29.6,22.452 		"/>
		<polygon points="530.795,30.902 534.461,30.853 527.023,22.038 523.18,22.038 		"/>
		<polygon points="515.99,30.902 519.656,30.853 512.217,22.038 508.373,22.038 		"/>
		<polygon points="560.855,31.304 564.504,31.221 556.854,22.038 553.012,22.038 		"/>
		<polygon points="545.82,30.902 549.486,30.853 542.049,22.038 538.205,22.038 		"/>
		<polygon points="500.963,31.232 504.629,31.184 497.189,22.369 493.346,22.369 		"/>
		<polygon points="486.156,31.232 489.822,31.184 482.385,22.369 478.541,22.369 		"/>
	</g>
	<g>
		<polygon points="568.832,478.906 568.881,482.648 577.518,475.057 577.518,471.133 		"/>
		<polygon points="568.904,463.578 568.951,467.316 577.588,459.725 577.588,455.803 		"/>
		<polygon points="568.832,448.375 568.881,452.117 577.518,444.525 577.518,440.6 		"/>
		<polygon points="568.904,433.047 568.951,436.785 577.588,429.193 577.588,425.271 		"/>
		<polygon points="568.832,417.844 568.881,421.584 577.518,413.992 577.518,410.07 		"/>
		<polygon points="568.904,402.514 568.951,406.255 577.588,398.665 577.588,394.741 		"/>
		<polygon points="568.914,387.394 568.961,391.135 577.598,383.543 577.598,379.62 		"/>
		<polygon points="568.984,372.065 569.033,375.807 577.668,368.214 577.668,364.292 		"/>
		<polygon points="568.914,356.781 568.961,360.522 577.598,352.93 577.598,349.006 		"/>
		<polygon points="568.986,341.452 569.033,345.194 577.668,337.601 577.668,333.678 		"/>
		<polygon points="568.914,326.167 568.961,329.908 577.598,322.315 577.598,318.392 		"/>
		<polygon points="568.986,310.836 569.033,314.579 577.668,306.987 577.668,303.064 		"/>
		<polygon points="568.994,295.552 569.043,299.293 577.68,291.702 577.68,287.778 		"/>
		<polygon points="569.066,280.223 569.113,283.964 577.75,276.373 577.75,272.449 		"/>
		<polygon points="569.076,265.104 569.125,268.845 577.76,261.252 577.76,257.329 		"/>
		<polygon points="569.146,249.774 569.195,253.516 577.832,245.924 577.832,242.001 		"/>
		<polygon points="569.156,234.489 569.205,238.23 577.842,230.639 577.842,226.715 		"/>
		<polygon points="569.229,219.16 569.275,222.902 577.912,215.31 577.912,211.386 		"/>
		<polygon points="569.156,204.041 569.203,207.782 577.842,200.189 577.842,196.267 		"/>
		<polygon points="569.229,188.711 569.275,192.453 577.912,184.86 577.912,180.938 		"/>
		<polygon points="569.076,173.51 569.123,177.251 577.76,169.658 577.76,165.735 		"/>
		<polygon points="569.146,158.18 569.195,161.922 577.832,154.33 577.832,150.407 		"/>
		<polygon points="568.994,142.895 569.043,146.636 577.68,139.044 577.68,135.121 		"/>
		<polygon points="569.066,127.566 569.113,131.308 577.75,123.715 577.75,119.792 		"/>
		<polygon points="568.994,112.364 569.043,116.104 577.68,108.513 577.68,104.59 		"/>
		<polygon points="569.066,97.035 569.113,100.776 577.75,93.184 577.75,89.261 		"/>
		<polygon points="568.994,81.833 569.043,85.573 577.68,77.982 577.68,74.058 		"/>
		<polygon points="569.066,66.503 569.115,70.245 577.75,62.653 577.75,58.729 		"/>
		<polygon points="569.076,51.301 569.125,55.042 577.76,47.45 577.76,43.527 		"/>
		<polygon points="568.672,539.969 568.719,543.711 577.355,536.119 577.355,532.195 		"/>
		<polygon points="568.742,524.641 568.789,528.379 577.426,520.787 577.426,516.865 		"/>
		<polygon points="568.672,570.416 568.719,574.158 577.355,566.566 577.355,562.643 		"/>
		<polygon points="568.742,555.088 568.789,558.828 577.426,551.236 577.426,547.313 		"/>
		<polygon points="568.994,509.518 569.043,513.26 577.68,505.666 577.68,501.744 		"/>
		<polygon points="569.066,494.189 569.113,497.932 577.75,490.34 577.75,486.416 		"/>
		<polygon points="568.752,601.111 568.799,604.854 577.436,597.262 577.436,593.338 		"/>
		<polygon points="568.824,585.783 568.871,589.525 577.508,581.934 577.508,578.01 		"/>
		<polygon points="568.994,631.729 569.043,635.469 577.68,627.877 577.68,623.953 		"/>
		<polygon points="569.066,616.398 569.113,620.141 577.75,612.547 577.75,608.625 		"/>
		<polygon points="568.834,662.176 568.881,665.916 577.518,658.324 577.518,654.4 		"/>
		<polygon points="568.904,646.846 568.951,650.59 577.588,642.996 577.588,639.074 		"/>
		<polygon points="568.914,692.955 568.961,696.697 577.598,689.104 577.598,685.182 		"/>
		<polygon points="568.986,677.625 569.033,681.367 577.668,673.773 577.668,669.852 		"/>
		<polygon points="568.752,723.404 568.799,727.143 577.436,719.553 577.436,715.629 		"/>
		<polygon points="568.824,708.074 568.871,711.816 577.508,704.225 577.508,700.301 		"/>
		<polygon points="568.994,754.018 569.043,757.76 577.68,750.166 577.68,746.244 		"/>
		<polygon points="569.066,738.688 569.113,742.43 577.75,734.838 577.75,730.914 		"/>
		<polygon points="568.834,784.467 568.881,788.207 577.518,780.617 577.518,776.691 		"/>
		<polygon points="568.904,769.139 568.951,772.879 577.588,765.287 577.588,761.363 		"/>
		<polygon points="568.986,799.916 569.033,803.656 577.668,796.064 577.668,792.143 		"/>
		<rect x="572.09" y="25.468" width="2.703" height="790.112"/>
		<polygon points="568.994,509.518 569.043,513.26 577.68,505.666 577.68,501.744 		"/>
		<polygon points="569.066,494.189 569.113,497.932 577.75,490.34 577.75,486.416 		"/>
		<polygon points="577.68,517.076 577.631,520.816 568.994,513.225 568.994,509.301 		"/>
		<polygon points="577.68,501.963 577.631,505.705 568.994,498.113 568.994,494.189 		"/>
		<polygon points="577.518,486.461 577.469,490.203 568.832,482.611 568.832,478.688 		"/>
		<polygon points="577.518,471.35 577.469,475.09 568.832,467.5 568.832,463.578 		"/>
		<polygon points="577.518,455.93 577.469,459.672 568.832,452.078 568.832,448.156 		"/>
		<polygon points="577.518,440.818 577.469,444.559 568.832,436.969 568.832,433.047 		"/>
		<polygon points="577.518,425.398 577.469,429.141 568.832,421.547 568.832,417.625 		"/>
		<polygon points="577.518,410.288 577.469,414.029 568.832,406.437 568.832,402.514 		"/>
		<polygon points="577.598,394.95 577.549,398.692 568.914,391.099 568.914,387.176 		"/>
		<polygon points="577.598,379.838 577.549,383.58 568.914,375.988 568.914,372.065 		"/>
		<polygon points="577.598,364.336 577.551,368.079 568.914,360.487 568.914,356.563 		"/>
		<polygon points="577.598,349.225 577.551,352.967 568.914,345.375 568.914,341.452 		"/>
		<polygon points="577.598,333.722 577.551,337.463 568.914,329.872 568.914,325.949 		"/>
		<polygon points="577.598,318.61 577.551,322.352 568.914,314.76 568.914,310.836 		"/>
		<polygon points="577.68,303.108 577.631,306.85 568.994,299.257 568.994,295.334 		"/>
		<polygon points="577.68,287.997 577.631,291.739 568.994,284.145 568.994,280.223 		"/>
		<polygon points="577.76,272.659 577.713,276.401 569.076,268.809 569.076,264.886 		"/>
		<polygon points="577.76,257.547 577.713,261.289 569.076,253.698 569.076,249.774 		"/>
		<polygon points="577.842,242.045 577.793,245.787 569.156,238.195 569.156,234.271 		"/>
		<polygon points="577.842,226.934 577.793,230.675 569.156,223.083 569.156,219.16 		"/>
		<polygon points="577.842,211.596 577.793,215.337 569.156,207.745 569.156,203.823 		"/>
		<polygon points="577.842,196.484 577.793,200.226 569.156,192.634 569.156,188.711 		"/>
		<polygon points="577.76,181.065 577.713,184.807 569.076,177.214 569.076,173.292 		"/>
		<polygon points="577.76,165.953 577.713,169.695 569.076,162.104 569.076,158.18 		"/>
		<polygon points="577.68,150.451 577.631,154.193 568.994,146.601 568.994,142.677 		"/>
		<polygon points="577.68,135.339 577.631,139.081 568.994,131.489 568.994,127.566 		"/>
		<polygon points="577.68,119.919 577.631,123.662 568.994,116.069 568.994,112.146 		"/>
		<polygon points="577.68,104.808 577.631,108.55 568.994,100.957 568.994,97.035 		"/>
		<polygon points="577.68,89.388 577.631,93.13 568.994,85.538 568.994,81.614 		"/>
		<polygon points="577.68,74.276 577.631,78.018 568.994,70.426 568.994,66.503 		"/>
		<polygon points="577.76,58.857 577.713,62.599 569.076,55.006 569.076,51.083 		"/>
		<polygon points="577.76,43.745 577.713,47.487 569.076,39.895 569.076,35.972 		"/>
		<polygon points="577.355,547.523 577.307,551.266 568.672,543.674 568.672,539.75 		"/>
		<polygon points="577.355,532.412 577.307,536.152 568.672,528.563 568.672,524.641 		"/>
		<polygon points="577.355,577.971 577.307,581.713 568.672,574.121 568.672,570.197 		"/>
		<polygon points="577.355,562.859 577.307,566.604 568.672,559.01 568.672,555.088 		"/>
		<polygon points="577.68,517.076 577.631,520.816 568.994,513.225 568.994,509.301 		"/>
		<polygon points="577.68,501.963 577.631,505.705 568.994,498.113 568.994,494.189 		"/>
		<polygon points="577.436,608.67 577.389,612.41 568.752,604.818 568.752,600.895 		"/>
		<polygon points="577.436,593.557 577.389,597.299 568.752,589.707 568.752,585.783 		"/>
		<polygon points="577.68,639.283 577.631,643.023 568.994,635.432 568.994,631.508 		"/>
		<polygon points="577.68,624.17 577.631,627.914 568.994,620.322 568.994,616.398 		"/>
		<polygon points="577.518,669.732 577.469,673.473 568.834,665.881 568.834,661.959 		"/>
		<polygon points="577.518,654.619 577.469,658.361 568.834,650.77 568.834,646.846 		"/>
		<polygon points="577.598,700.51 577.551,704.25 568.914,696.658 568.914,692.736 		"/>
		<polygon points="577.598,685.396 577.551,689.141 568.914,681.549 568.914,677.625 		"/>
		<polygon points="577.436,730.959 577.389,734.703 568.752,727.109 568.752,723.188 		"/>
		<polygon points="577.436,715.85 577.389,719.588 568.752,711.996 568.752,708.074 		"/>
		<polygon points="577.68,761.572 577.631,765.314 568.994,757.723 568.994,753.799 		"/>
		<polygon points="577.68,746.461 577.631,750.203 568.994,742.611 568.994,738.688 		"/>
		<polygon points="577.518,792.021 577.469,795.766 568.834,788.172 568.834,784.25 		"/>
		<polygon points="577.518,776.912 577.469,780.65 568.834,773.059 568.834,769.139 		"/>
		<polygon points="577.881,807.535 577.834,811.277 569.199,803.686 569.199,799.764 		"/>
	</g>
	<polygon points="577.635,29.07 577.555,33.291 567.098,22.451 570.842,22.333 	"/>
	<g>
		<polygon points="469.184,810.051 472.848,810.1 465.41,818.914 461.566,818.914 		"/>
		<polygon points="454.164,810.123 457.83,810.172 450.393,818.986 446.549,818.986 		"/>
		<polygon points="439.27,810.051 442.936,810.1 435.496,818.914 431.654,818.914 		"/>
		<polygon points="424.25,810.123 427.918,810.172 420.479,818.986 416.635,818.986 		"/>
		<polygon points="409.357,810.051 413.021,810.1 405.584,818.914 401.74,818.914 		"/>
		<polygon points="394.338,810.123 398.004,810.172 390.566,818.986 386.723,818.986 		"/>
		<polygon points="379.523,810.135 383.189,810.182 375.75,818.996 371.906,818.996 		"/>
		<polygon points="364.504,810.207 368.172,810.256 360.732,819.068 356.889,819.068 		"/>
		<polygon points="349.531,810.135 353.195,810.182 345.756,818.998 341.914,818.998 		"/>
		<polygon points="334.512,810.207 338.178,810.256 330.74,819.068 326.896,819.068 		"/>
		<polygon points="319.535,810.135 323.201,810.182 315.762,818.998 311.918,818.998 		"/>
		<polygon points="304.516,810.207 308.184,810.256 300.742,819.068 296.898,819.068 		"/>
		<polygon points="289.541,810.215 293.207,810.264 285.768,819.08 281.924,819.08 		"/>
		<polygon points="274.521,810.289 278.186,810.338 270.748,819.152 266.904,819.152 		"/>
		<polygon points="259.707,810.301 263.371,810.35 255.934,819.162 252.09,819.162 		"/>
		<polygon points="244.688,810.371 248.354,810.42 240.916,819.236 237.072,819.236 		"/>
		<polygon points="229.715,810.383 233.379,810.432 225.941,819.246 222.098,819.246 		"/>
		<polygon points="214.695,810.455 218.359,810.504 210.922,819.318 207.078,819.318 		"/>
		<polygon points="199.881,810.383 203.545,810.43 196.107,819.246 192.264,819.246 		"/>
		<polygon points="184.861,810.455 188.527,810.504 181.09,819.316 177.246,819.316 		"/>
		<polygon points="169.967,810.299 173.633,810.348 166.193,819.162 162.35,819.162 		"/>
		<polygon points="154.947,810.371 158.615,810.42 151.176,819.234 147.332,819.234 		"/>
		<polygon points="139.975,810.215 143.639,810.264 136.201,819.08 132.357,819.08 		"/>
		<polygon points="124.955,810.289 128.619,810.338 121.182,819.152 117.338,819.152 		"/>
		<polygon points="111.033,810.215 114.699,810.264 107.26,819.08 103.416,819.08 		"/>
		<polygon points="96.014,810.289 99.68,810.338 92.24,819.152 88.396,819.152 		"/>
		<polygon points="81.121,810.215 84.785,810.264 77.348,819.08 73.504,819.08 		"/>
		<polygon points="66.102,810.291 69.766,810.34 62.328,819.152 58.484,819.152 		"/>
		<polygon points="51.207,810.301 54.873,810.35 47.434,819.162 43.59,819.162 		"/>
		<polygon points="529.01,809.885 532.674,809.934 525.236,818.75 521.393,818.75 		"/>
		<polygon points="513.99,809.957 517.656,810.006 510.217,818.822 506.373,818.822 		"/>
		<polygon points="558.842,809.885 562.506,809.934 555.068,818.75 551.225,818.75 		"/>
		<polygon points="543.822,809.957 547.488,810.006 540.049,818.822 536.205,818.822 		"/>
		<polygon points="499.176,810.215 502.842,810.264 495.404,819.08 491.561,819.08 		"/>
		<polygon points="484.158,810.289 487.824,810.338 480.385,819.152 476.541,819.152 		"/>
		<rect x="25.107" y="813.236" width="547.061" height="2.762"/>
		<polygon points="499.176,810.215 502.842,810.264 495.404,819.08 491.561,819.08 		"/>
		<polygon points="484.158,810.289 487.824,810.338 480.385,819.152 476.541,819.152 		"/>
		<polygon points="506.578,819.08 510.246,819.031 502.807,810.215 498.963,810.215 		"/>
		<polygon points="491.773,819.08 495.439,819.031 488,810.215 484.158,810.215 		"/>
		<polygon points="476.586,818.914 480.252,818.865 472.813,810.051 468.969,810.051 		"/>
		<polygon points="461.779,818.914 465.445,818.865 458.008,810.051 454.164,810.051 		"/>
		<polygon points="446.672,818.914 450.34,818.865 442.902,810.051 439.057,810.051 		"/>
		<polygon points="431.869,818.914 435.533,818.865 428.094,810.051 424.25,810.051 		"/>
		<polygon points="416.76,818.914 420.426,818.865 412.988,810.051 409.145,810.051 		"/>
		<polygon points="401.955,818.914 405.619,818.865 398.182,810.051 394.338,810.051 		"/>
		<polygon points="386.926,818.996 390.594,818.947 383.154,810.135 379.311,810.135 		"/>
		<polygon points="372.121,818.996 375.785,818.947 368.348,810.135 364.504,810.135 		"/>
		<polygon points="356.934,818.998 360.6,818.949 353.162,810.135 349.318,810.135 		"/>
		<polygon points="342.129,818.998 345.793,818.949 338.355,810.135 334.512,810.135 		"/>
		<polygon points="326.938,818.998 330.605,818.949 323.166,810.135 319.322,810.135 		"/>
		<polygon points="312.133,818.998 315.799,818.949 308.359,810.135 304.516,810.135 		"/>
		<polygon points="296.943,819.08 300.607,819.031 293.17,810.215 289.326,810.215 		"/>
		<polygon points="282.137,819.08 285.803,819.031 278.365,810.215 274.521,810.215 		"/>
		<polygon points="267.109,819.162 270.777,819.113 263.338,810.301 259.494,810.301 		"/>
		<polygon points="252.305,819.162 255.971,819.113 248.531,810.301 244.688,810.301 		"/>
		<polygon points="237.115,819.246 240.781,819.197 233.342,810.383 229.5,810.383 		"/>
		<polygon points="222.309,819.246 225.977,819.197 218.537,810.383 214.695,810.383 		"/>
		<polygon points="207.283,819.246 210.949,819.197 203.512,810.383 199.668,810.383 		"/>
		<polygon points="192.479,819.246 196.143,819.197 188.705,810.383 184.861,810.383 		"/>
		<polygon points="177.369,819.162 181.037,819.113 173.598,810.299 169.754,810.299 		"/>
		<polygon points="162.564,819.162 166.23,819.113 158.791,810.299 154.947,810.299 		"/>
		<polygon points="147.377,819.08 151.041,819.031 143.604,810.215 139.76,810.215 		"/>
		<polygon points="132.57,819.08 136.236,819.031 128.799,810.215 124.955,810.215 		"/>
		<polygon points="118.436,819.08 122.102,819.031 114.662,810.215 110.818,810.215 		"/>
		<polygon points="103.629,819.08 107.297,819.031 99.857,810.215 96.014,810.215 		"/>
		<polygon points="88.523,819.08 92.188,819.033 84.75,810.215 80.906,810.215 		"/>
		<polygon points="73.717,819.08 77.383,819.033 69.945,810.215 66.102,810.215 		"/>
		<polygon points="58.609,819.162 62.275,819.113 54.836,810.301 50.992,810.301 		"/>
		<polygon points="43.803,819.162 47.471,819.113 40.031,810.301 36.188,810.301 		"/>
		<polygon points="536.412,818.75 540.078,818.701 532.639,809.885 528.795,809.885 		"/>
		<polygon points="521.605,818.75 525.273,818.701 517.834,809.885 513.99,809.885 		"/>
		<polygon points="566.473,819.152 570.119,819.068 562.471,809.885 558.627,809.885 		"/>
		<polygon points="551.438,818.75 555.104,818.701 547.666,809.885 543.822,809.885 		"/>
		<polygon points="506.578,819.08 510.246,819.031 502.807,810.215 498.963,810.215 		"/>
		<polygon points="491.773,819.08 495.439,819.031 488,810.215 484.158,810.215 		"/>
	</g>
	<polygon points="33.373,819.189 29.346,819.203 22.09,812.688 22.09,808.764 	"/>
</g>
<g>
	<polygon fill="#006633" points="20.292,498.745 20.339,502.487 28.976,494.894 28.976,490.972 	"/>
	<polygon fill="#006633" points="20.363,483.415 20.411,487.157 29.047,479.565 29.047,475.642 	"/>
	<polygon fill="#006633" points="575.997,802.282 576.089,806.005 568.221,814.515 564.373,814.519 	"/>
	<polygon fill="#006633" points="31.493,814.679 27.466,814.692 34.312,805.937 38.151,805.79 	"/>
	<polygon fill="#006633" points="567.197,31.46 567.197,35.383 575.231,28.241 575.231,24.318 	"/>
	<polygon fill="#006633" points="20.13,468.132 20.177,471.872 28.813,464.282 28.813,460.358 	"/>
	<polygon fill="#006633" points="20.2,452.804 20.248,456.544 28.884,448.952 28.884,445.028 	"/>
	<polygon fill="#006633" points="20.13,437.601 20.177,441.341 28.813,433.749 28.813,429.825 	"/>
	<polygon fill="#006633" points="20.2,422.272 20.248,426.013 28.884,418.421 28.884,414.497 	"/>
	<polygon fill="#006633" points="20.13,407.069 20.177,410.809 28.813,403.217 28.813,399.293 	"/>
	<polygon fill="#006633" points="20.2,391.739 20.248,395.481 28.884,387.888 28.884,383.965 	"/>
	<polygon fill="#006633" points="20.21,376.62 20.258,380.36 28.894,372.768 28.894,368.844 	"/>
	<polygon fill="#006633" points="20.281,361.29 20.329,365.032 28.965,357.439 28.965,353.516 	"/>
	<polygon fill="#006633" points="20.21,346.005 20.259,349.747 28.895,342.155 28.895,338.231 	"/>
	<polygon fill="#006633" points="20.282,330.676 20.329,334.417 28.966,326.825 28.966,322.903 	"/>
	<polygon fill="#006633" points="20.21,315.391 20.259,319.132 28.895,311.54 28.895,307.618 	"/>
	<polygon fill="#006633" points="20.282,300.061 20.329,303.803 28.966,296.211 28.966,292.288 	"/>
	<polygon fill="#006633" points="20.292,284.777 20.339,288.518 28.976,280.926 28.976,277.002 	"/>
	<polygon fill="#006633" points="20.363,269.448 20.411,273.189 29.047,265.597 29.047,261.674 	"/>
	<polygon fill="#006633" points="20.372,254.329 20.421,258.069 29.058,250.477 29.058,246.554 	"/>
	<polygon fill="#006633" points="20.444,238.999 20.491,242.741 29.128,235.149 29.128,231.225 	"/>
	<polygon fill="#006633" points="20.454,223.714 20.501,227.455 29.138,219.863 29.138,215.94 	"/>
	<polygon fill="#006633" points="20.525,208.384 20.573,212.126 29.21,204.534 29.21,200.611 	"/>
	<polygon fill="#006633" points="20.454,193.266 20.501,197.006 29.138,189.414 29.138,185.491 	"/>
	<polygon fill="#006633" points="20.524,177.936 20.573,181.677 29.209,174.085 29.209,170.162 	"/>
	<polygon fill="#006633" points="20.372,162.734 20.42,166.475 29.057,158.883 29.057,154.96 	"/>
	<polygon fill="#006633" points="20.444,147.405 20.491,151.147 29.128,143.555 29.128,139.631 	"/>
	<polygon fill="#006633" points="20.292,132.12 20.339,135.861 28.976,128.269 28.976,124.346 	"/>
	<polygon fill="#006633" points="20.363,116.79 20.411,120.532 29.047,112.939 29.047,109.017 	"/>
	<polygon fill="#006633" points="20.292,101.589 20.339,105.33 28.976,97.737 28.976,93.814 	"/>
	<polygon fill="#006633" points="20.363,86.259 20.411,90 29.047,82.408 29.047,78.486 	"/>
	<polygon fill="#006633" points="20.292,71.058 20.34,74.798 28.976,67.206 28.976,63.283 	"/>
	<polygon fill="#006633" points="20.364,55.728 20.411,59.469 29.048,51.877 29.048,47.954 	"/>
	<polygon fill="#006633" points="20.372,40.526 20.421,44.267 29.058,36.674 29.058,32.751 	"/>
	<polygon fill="#006633" points="20.444,25.196 20.491,28.938 31.782,18.022 27.892,18.022 	"/>
	<polygon fill="#006633" points="19.968,529.196 20.015,532.937 28.651,525.345 28.651,521.421 	"/>
	<polygon fill="#006633" points="20.039,513.866 20.087,517.606 28.723,510.015 28.723,506.091 	"/>
	<polygon fill="#006633" points="19.968,559.642 20.015,563.384 28.651,555.792 28.651,551.868 	"/>
	<polygon fill="#006633" points="20.039,544.313 20.087,548.054 28.723,540.462 28.723,536.538 	"/>
	<polygon fill="#006633" points="20.292,498.745 20.339,502.487 28.976,494.894 28.976,490.972 	"/>
	<polygon fill="#006633" points="20.363,483.415 20.411,487.157 29.047,479.565 29.047,475.642 	"/>
	<polygon fill="#006633" points="20.048,590.339 20.097,594.081 28.732,586.489 28.732,582.565 	"/>
	<polygon fill="#006633" points="20.12,575.011 20.167,578.751 28.804,571.159 28.804,567.235 	"/>
	<polygon fill="#006633" points="20.292,620.954 20.339,624.694 28.976,617.103 28.976,613.179 	"/>
	<polygon fill="#006633" points="20.363,605.624 20.411,609.366 29.047,601.772 29.047,597.851 	"/>
	<polygon fill="#006633" points="20.13,651.403 20.177,655.144 28.813,647.552 28.813,643.628 	"/>
	<polygon fill="#006633" points="20.201,636.073 20.249,639.815 28.885,632.224 28.885,628.3 	"/>
	<polygon fill="#006633" points="20.21,682.181 20.259,685.923 28.895,678.329 28.895,674.405 	"/>
	<polygon fill="#006633" points="20.282,666.851 20.329,670.593 28.966,663.001 28.966,659.077 	"/>
	<polygon fill="#006633" points="20.048,712.63 20.097,716.37 28.732,708.778 28.732,704.854 	"/>
	<polygon fill="#006633" points="20.12,697.3 20.167,701.042 28.804,693.45 28.804,689.526 	"/>
	<polygon fill="#006633" points="20.292,743.243 20.339,746.985 28.976,739.392 28.976,735.47 	"/>
	<polygon fill="#006633" points="20.363,727.913 20.411,731.655 29.047,724.063 29.047,720.14 	"/>
	<polygon fill="#006633" points="20.13,773.692 20.177,777.435 28.813,769.843 28.813,765.917 	"/>
	<polygon fill="#006633" points="20.201,758.364 20.249,762.104 28.885,754.513 28.885,750.589 	"/>
	<polygon fill="#006633" points="20.21,804.472 20.259,808.212 28.895,800.62 28.895,796.696 	"/>
	<polygon fill="#006633" points="20.282,789.142 20.329,792.884 28.966,785.292 28.966,781.37 	"/>
	<rect x="23.165" y="20.953" fill="#008D36" width="2.705" height="788.483"/>
	<polygon fill="#76BB64" points="28.976,506.3 28.929,510.042 20.292,502.45 20.292,498.526 	"/>
	<polygon fill="#76BB64" points="28.976,491.188 28.929,494.933 20.292,487.341 20.292,483.415 	"/>
	<polygon fill="#76BB64" points="28.813,475.687 28.766,479.429 20.13,471.835 20.13,467.913 	"/>
	<polygon fill="#76BB64" points="28.813,460.575 28.766,464.315 20.13,456.724 20.13,452.804 	"/>
	<polygon fill="#76BB64" points="28.813,445.155 28.766,448.897 20.13,441.304 20.13,437.382 	"/>
	<polygon fill="#76BB64" points="28.813,430.044 28.766,433.784 20.13,426.192 20.13,422.272 	"/>
	<polygon fill="#76BB64" points="28.813,414.624 28.766,418.366 20.13,410.774 20.13,406.85 	"/>
	<polygon fill="#76BB64" points="28.813,399.512 28.766,403.253 20.13,395.662 20.13,391.739 	"/>
	<polygon fill="#76BB64" points="28.894,384.174 28.847,387.917 20.21,380.324 20.21,376.401 	"/>
	<polygon fill="#76BB64" points="28.894,369.063 28.847,372.805 20.21,365.212 20.21,361.29 	"/>
	<polygon fill="#76BB64" points="28.895,353.561 28.847,357.303 20.21,349.711 20.21,345.788 	"/>
	<polygon fill="#76BB64" points="28.895,338.45 28.847,342.191 20.21,334.599 20.21,330.676 	"/>
	<polygon fill="#76BB64" points="28.895,322.946 28.847,326.688 20.21,319.096 20.21,315.173 	"/>
	<polygon fill="#76BB64" points="28.895,307.834 28.847,311.577 20.21,303.985 20.21,300.061 	"/>
	<polygon fill="#76BB64" points="28.976,292.333 28.929,296.074 20.292,288.482 20.292,284.559 	"/>
	<polygon fill="#76BB64" points="28.976,277.221 28.929,280.962 20.292,273.37 20.292,269.448 	"/>
	<polygon fill="#76BB64" points="29.058,261.884 29.009,265.625 20.372,258.034 20.372,254.111 	"/>
	<polygon fill="#76BB64" points="29.058,246.772 29.009,250.514 20.372,242.922 20.372,238.999 	"/>
	<polygon fill="#76BB64" points="29.138,231.27 29.091,235.011 20.454,227.419 20.454,223.496 	"/>
	<polygon fill="#76BB64" points="29.138,216.158 29.091,219.9 20.454,212.308 20.454,208.384 	"/>
	<polygon fill="#76BB64" points="29.138,200.82 29.09,204.562 20.454,196.97 20.454,193.047 	"/>
	<polygon fill="#76BB64" points="29.138,185.709 29.09,189.451 20.454,181.858 20.454,177.936 	"/>
	<polygon fill="#76BB64" points="29.057,170.29 29.009,174.031 20.372,166.439 20.372,162.517 	"/>
	<polygon fill="#76BB64" points="29.057,155.178 29.009,158.92 20.372,151.328 20.372,147.405 	"/>
	<polygon fill="#76BB64" points="28.976,139.676 28.929,143.417 20.292,135.825 20.292,131.902 	"/>
	<polygon fill="#76BB64" points="28.976,124.564 28.929,128.306 20.292,120.714 20.292,116.79 	"/>
	<polygon fill="#76BB64" points="28.976,109.144 28.929,112.885 20.292,105.293 20.292,101.371 	"/>
	<polygon fill="#76BB64" points="28.976,94.032 28.929,97.774 20.292,90.182 20.292,86.259 	"/>
	<polygon fill="#76BB64" points="28.976,78.613 28.929,82.354 20.292,74.762 20.292,70.839 	"/>
	<polygon fill="#76BB64" points="28.976,63.501 28.929,67.243 20.292,59.651 20.292,55.728 	"/>
	<polygon fill="#76BB64" points="29.058,48.082 29.009,51.823 20.372,44.231 20.372,40.308 	"/>
	<polygon fill="#76BB64" points="29.058,32.97 29.009,36.712 20.372,29.12 20.372,25.196 	"/>
	<polygon fill="#76BB64" points="28.651,536.749 28.604,540.491 19.968,532.899 19.968,528.976 	"/>
	<polygon fill="#76BB64" points="28.651,521.638 28.604,525.378 19.968,517.786 19.968,513.866 	"/>
	<polygon fill="#76BB64" points="28.651,567.196 28.604,570.938 19.968,563.349 19.968,559.425 	"/>
	<polygon fill="#76BB64" points="28.651,552.087 28.604,555.829 19.968,548.235 19.968,544.313 	"/>
	<polygon fill="#76BB64" points="28.976,506.3 28.929,510.042 20.292,502.45 20.292,498.526 	"/>
	<polygon fill="#76BB64" points="28.976,491.188 28.929,494.933 20.292,487.341 20.292,483.415 	"/>
	<polygon fill="#76BB64" points="28.732,597.896 28.685,601.636 20.048,594.044 20.048,590.12 	"/>
	<polygon fill="#76BB64" points="28.732,582.782 28.685,586.526 20.048,578.935 20.048,575.011 	"/>
	<polygon fill="#76BB64" points="28.976,628.509 28.929,632.249 20.292,624.657 20.292,620.735 	"/>
	<polygon fill="#76BB64" points="28.976,613.396 28.929,617.14 20.292,609.548 20.292,605.624 	"/>
	<polygon fill="#76BB64" points="28.813,658.958 28.767,662.698 20.13,655.106 20.13,651.185 	"/>
	<polygon fill="#76BB64" points="28.813,643.847 28.767,647.589 20.13,639.997 20.13,636.073 	"/>
	<polygon fill="#76BB64" points="28.895,689.735 28.847,693.479 20.21,685.886 20.21,681.964 	"/>
	<polygon fill="#76BB64" points="28.895,674.626 28.847,678.366 20.21,670.774 20.21,666.851 	"/>
	<polygon fill="#76BB64" points="28.732,720.185 28.685,723.927 20.048,716.335 20.048,712.413 	"/>
	<polygon fill="#76BB64" points="28.732,705.075 28.685,708.817 20.048,701.224 20.048,697.3 	"/>
	<polygon fill="#76BB64" points="28.976,750.798 28.929,754.542 20.292,746.95 20.292,743.026 	"/>
	<polygon fill="#76BB64" points="28.976,735.688 28.929,739.429 20.292,731.837 20.292,727.913 	"/>
	<polygon fill="#76BB64" points="28.813,781.247 28.767,784.989 20.13,777.397 20.13,773.476 	"/>
	<polygon fill="#76BB64" points="28.813,766.138 28.767,769.878 20.13,762.286 20.13,758.364 	"/>
	<polygon fill="#76BB64" points="28.895,796.915 28.847,800.657 20.21,793.063 20.21,789.142 	"/>
	<g>
		<polygon fill="#006633" points="461.687,17.691 465.352,17.74 457.913,26.554 454.07,26.554 		"/>
		<polygon fill="#006633" points="446.667,17.764 450.334,17.813 442.896,26.627 439.052,26.627 		"/>
		<polygon fill="#006633" points="431.773,17.691 435.438,17.74 428,26.554 424.157,26.554 		"/>
		<polygon fill="#006633" points="416.754,17.764 420.421,17.813 412.982,26.627 409.139,26.627 		"/>
		<polygon fill="#006633" points="401.86,17.691 405.525,17.74 398.087,26.554 394.243,26.554 		"/>
		<polygon fill="#006633" points="386.841,17.764 390.508,17.813 383.069,26.627 379.226,26.627 		"/>
		<polygon fill="#006633" points="372.026,17.773 375.691,17.822 368.254,26.637 364.41,26.637 		"/>
		<polygon fill="#006633" points="357.008,17.846 360.675,17.895 353.236,26.709 349.392,26.709 		"/>
		<polygon fill="#006633" points="342.034,17.773 345.698,17.822 338.26,26.638 334.417,26.638 		"/>
		<polygon fill="#006633" points="327.014,17.847 330.682,17.896 323.243,26.709 319.399,26.709 		"/>
		<polygon fill="#006633" points="312.039,17.773 315.704,17.822 308.266,26.638 304.422,26.638 		"/>
		<polygon fill="#006633" points="297.02,17.847 300.686,17.896 293.247,26.709 289.404,26.709 		"/>
		<polygon fill="#006633" points="282.046,17.857 285.711,17.906 278.272,26.72 274.429,26.72 		"/>
		<polygon fill="#006633" points="267.026,17.93 270.692,17.979 263.253,26.793 259.409,26.793 		"/>
		<polygon fill="#006633" points="252.212,17.94 255.878,17.989 248.438,26.803 244.596,26.803 		"/>
		<polygon fill="#006633" points="237.192,18.012 240.86,18.061 233.421,26.876 229.578,26.876 		"/>
		<polygon fill="#006633" points="222.22,18.023 225.885,18.072 218.446,26.886 214.603,26.886 		"/>
		<polygon fill="#006633" points="207.2,18.096 210.865,18.145 203.427,26.959 199.583,26.959 		"/>
		<polygon fill="#006633" points="192.386,18.022 196.051,18.071 188.612,26.886 184.769,26.886 		"/>
		<polygon fill="#006633" points="177.366,18.096 181.034,18.145 173.595,26.958 169.751,26.958 		"/>
		<polygon fill="#006633" points="162.473,17.939 166.138,17.988 158.699,26.803 154.856,26.803 		"/>
		<polygon fill="#006633" points="147.453,18.012 151.12,18.061 143.682,26.875 139.839,26.875 		"/>
		<polygon fill="#006633" points="132.479,17.857 136.146,17.906 128.706,26.72 124.862,26.72 		"/>
		<polygon fill="#006633" points="117.46,17.93 121.126,17.979 113.687,26.793 109.843,26.793 		"/>
		<polygon fill="#006633" points="102.566,17.857 106.231,17.906 98.793,26.72 94.949,26.72 		"/>
		<polygon fill="#006633" points="87.548,17.93 91.212,17.979 83.774,26.793 79.93,26.793 		"/>
		<polygon fill="#006633" points="72.653,17.857 76.318,17.906 68.88,26.721 65.036,26.721 		"/>
		<polygon fill="#006633" points="57.634,17.931 61.299,17.979 53.86,26.793 50.017,26.793 		"/>
		<polygon fill="#006633" points="42.74,17.94 46.405,17.989 38.967,26.803 35.123,26.803 		"/>
		<polygon fill="#006633" points="521.514,17.526 525.178,17.575 517.739,26.39 513.896,26.39 		"/>
		<polygon fill="#006633" points="506.493,17.6 510.16,17.648 502.722,26.463 498.878,26.463 		"/>
		<polygon fill="#006633" points="551.345,17.526 555.01,17.575 547.571,26.39 543.728,26.39 		"/>
		<polygon fill="#006633" points="536.325,17.6 539.992,17.648 532.554,26.463 528.71,26.463 		"/>
		<polygon fill="#006633" points="491.681,17.857 495.347,17.906 487.908,26.72 484.063,26.72 		"/>
		<polygon fill="#006633" points="476.662,17.93 480.327,17.979 472.889,26.793 469.045,26.793 		"/>
		<polygon fill="#006633" points="565.867,17.939 569.515,17.939 562.633,26.541 558.784,26.545 		"/>
		<rect x="22.898" y="20.847" fill="#008D36" width="549.806" height="2.76"/>
		<polygon fill="#006633" points="491.681,17.857 495.347,17.906 487.908,26.72 484.063,26.72 		"/>
		<polygon fill="#006633" points="476.662,17.93 480.327,17.979 472.889,26.793 469.045,26.793 		"/>
		<polygon fill="#76BB64" points="499.083,26.72 502.749,26.672 495.311,17.857 491.467,17.857 		"/>
		<polygon fill="#76BB64" points="484.277,26.72 487.943,26.672 480.505,17.857 476.662,17.857 		"/>
		<polygon fill="#76BB64" points="469.089,26.554 472.755,26.506 465.317,17.691 461.474,17.691 		"/>
		<polygon fill="#76BB64" points="454.284,26.554 457.949,26.506 450.511,17.691 446.667,17.691 		"/>
		<polygon fill="#76BB64" points="439.176,26.554 442.843,26.506 435.405,17.691 431.561,17.691 		"/>
		<polygon fill="#76BB64" points="424.372,26.554 428.036,26.506 420.598,17.691 416.754,17.691 		"/>
		<polygon fill="#76BB64" points="409.263,26.554 412.929,26.506 405.491,17.691 401.647,17.691 		"/>
		<polygon fill="#76BB64" points="394.458,26.554 398.123,26.506 390.685,17.691 386.841,17.691 		"/>
		<polygon fill="#76BB64" points="379.429,26.637 383.097,26.589 375.658,17.773 371.814,17.773 		"/>
		<polygon fill="#76BB64" points="364.625,26.637 368.289,26.589 360.851,17.773 357.008,17.773 		"/>
		<polygon fill="#76BB64" points="349.437,26.638 353.103,26.59 345.665,17.773 341.821,17.773 		"/>
		<polygon fill="#76BB64" points="334.632,26.638 338.297,26.59 330.858,17.773 327.014,17.773 		"/>
		<polygon fill="#76BB64" points="319.441,26.638 323.108,26.59 315.669,17.773 311.826,17.773 		"/>
		<polygon fill="#76BB64" points="304.636,26.638 308.302,26.59 300.863,17.773 297.02,17.773 		"/>
		<polygon fill="#76BB64" points="289.448,26.72 293.113,26.672 285.675,17.857 281.831,17.857 		"/>
		<polygon fill="#76BB64" points="274.642,26.72 278.309,26.672 270.87,17.857 267.026,17.857 		"/>
		<polygon fill="#76BB64" points="259.614,26.803 263.281,26.755 255.843,17.94 251.999,17.94 		"/>
		<polygon fill="#76BB64" points="244.81,26.803 248.476,26.755 241.036,17.94 237.192,17.94 		"/>
		<polygon fill="#76BB64" points="229.622,26.886 233.286,26.838 225.849,18.023 222.005,18.023 		"/>
		<polygon fill="#76BB64" points="214.815,26.886 218.481,26.838 211.044,18.023 207.2,18.023 		"/>
		<polygon fill="#76BB64" points="199.788,26.886 203.455,26.838 196.017,18.022 192.173,18.022 		"/>
		<polygon fill="#76BB64" points="184.983,26.886 188.649,26.838 181.21,18.022 177.366,18.022 		"/>
		<polygon fill="#76BB64" points="169.875,26.803 173.542,26.755 166.104,17.939 162.26,17.939 		"/>
		<polygon fill="#76BB64" points="155.07,26.803 158.735,26.755 151.297,17.939 147.453,17.939 		"/>
		<polygon fill="#76BB64" points="139.882,26.72 143.547,26.672 136.108,17.857 132.265,17.857 		"/>
		<polygon fill="#76BB64" points="125.075,26.72 128.742,26.672 121.304,17.857 117.46,17.857 		"/>
		<polygon fill="#76BB64" points="109.969,26.72 113.634,26.672 106.195,17.857 102.353,17.857 		"/>
		<polygon fill="#76BB64" points="95.162,26.72 98.829,26.672 91.391,17.857 87.548,17.857 		"/>
		<polygon fill="#76BB64" points="80.056,26.721 83.721,26.673 76.282,17.857 72.438,17.857 		"/>
		<polygon fill="#76BB64" points="65.249,26.721 68.916,26.673 61.478,17.857 57.634,17.857 		"/>
		<polygon fill="#76BB64" points="50.142,26.803 53.808,26.755 46.368,17.94 42.525,17.94 		"/>
		<polygon fill="#76BB64" points="35.335,26.803 39.003,26.755 31.563,17.94 27.721,17.94 		"/>
		<polygon fill="#76BB64" points="528.915,26.39 532.581,26.341 525.144,17.526 521.3,17.526 		"/>
		<polygon fill="#76BB64" points="514.11,26.39 517.776,26.341 510.338,17.526 506.493,17.526 		"/>
		<polygon fill="#76BB64" points="558.977,26.792 562.624,26.709 554.975,17.526 551.132,17.526 		"/>
		<polygon fill="#76BB64" points="543.941,26.39 547.607,26.341 540.169,17.526 536.325,17.526 		"/>
		<polygon fill="#76BB64" points="499.083,26.72 502.749,26.672 495.311,17.857 491.467,17.857 		"/>
		<polygon fill="#76BB64" points="484.277,26.72 487.943,26.672 480.505,17.857 476.662,17.857 		"/>
	</g>
	<g>
		<polygon fill="#006633" points="566.953,474.396 567.001,478.138 575.638,470.546 575.638,466.622 		"/>
		<polygon fill="#006633" points="567.024,459.067 567.071,462.806 575.708,455.214 575.708,451.292 		"/>
		<polygon fill="#006633" points="566.953,443.864 567.001,447.606 575.638,440.015 575.638,436.089 		"/>
		<polygon fill="#006633" points="567.024,428.536 567.071,432.274 575.708,424.683 575.708,420.761 		"/>
		<polygon fill="#006633" points="566.953,413.332 567.001,417.073 575.638,409.481 575.638,405.558 		"/>
		<polygon fill="#006633" points="567.024,398.002 567.071,401.744 575.708,394.153 575.708,390.229 		"/>
		<polygon fill="#006633" points="567.034,382.882 567.081,386.624 575.718,379.032 575.718,375.108 		"/>
		<polygon fill="#006633" points="567.105,367.553 567.153,371.295 575.789,363.703 575.789,359.78 		"/>
		<polygon fill="#006633" points="567.034,352.269 567.081,356.01 575.719,348.418 575.719,344.495 		"/>
		<polygon fill="#006633" points="567.106,336.94 567.153,340.682 575.789,333.089 575.789,329.167 		"/>
		<polygon fill="#006633" points="567.034,321.655 567.081,325.396 575.719,317.803 575.719,313.88 		"/>
		<polygon fill="#006633" points="567.106,306.325 567.153,310.067 575.789,302.475 575.789,298.552 		"/>
		<polygon fill="#006633" points="567.115,291.041 567.163,294.782 575.8,287.19 575.8,283.266 		"/>
		<polygon fill="#006633" points="567.187,275.711 567.234,279.453 575.87,271.861 575.87,267.938 		"/>
		<polygon fill="#006633" points="567.197,260.592 567.245,264.333 575.88,256.741 575.88,252.817 		"/>
		<polygon fill="#006633" points="567.267,245.263 567.315,249.004 575.953,241.412 575.953,237.489 		"/>
		<polygon fill="#006633" points="567.277,229.978 567.325,233.718 575.962,226.127 575.962,222.204 		"/>
		<polygon fill="#006633" points="567.35,214.648 567.396,218.39 576.033,210.798 576.033,206.875 		"/>
		<polygon fill="#006633" points="567.276,199.529 567.324,203.27 575.962,195.678 575.962,191.755 		"/>
		<polygon fill="#006633" points="567.35,184.199 567.396,187.941 576.032,180.349 576.032,176.426 		"/>
		<polygon fill="#006633" points="567.196,168.998 567.244,172.739 575.88,165.146 575.88,161.223 		"/>
		<polygon fill="#006633" points="567.267,153.668 567.315,157.41 575.952,149.818 575.952,145.895 		"/>
		<polygon fill="#006633" points="567.115,138.383 567.163,142.124 575.8,134.533 575.8,130.609 		"/>
		<polygon fill="#006633" points="567.187,123.055 567.234,126.796 575.87,119.204 575.87,115.28 		"/>
		<polygon fill="#006633" points="567.115,107.852 567.163,111.593 575.8,104.001 575.8,100.078 		"/>
		<polygon fill="#006633" points="567.187,92.523 567.234,96.264 575.87,88.672 575.87,84.749 		"/>
		<polygon fill="#006633" points="567.115,77.321 567.163,81.062 575.801,73.47 575.801,69.546 		"/>
		<polygon fill="#006633" points="567.188,61.992 567.235,65.733 575.87,58.141 575.87,54.218 		"/>
		<polygon fill="#006633" points="567.197,46.789 567.245,50.53 575.88,42.938 575.88,39.015 		"/>
		<polygon fill="#006633" points="566.792,535.458 566.839,539.2 575.476,531.608 575.476,527.685 		"/>
		<polygon fill="#006633" points="566.862,520.13 566.91,523.868 575.546,516.276 575.546,512.354 		"/>
		<polygon fill="#006633" points="566.792,565.905 566.839,569.647 575.476,562.056 575.476,558.132 		"/>
		<polygon fill="#006633" points="566.862,550.577 566.91,554.317 575.546,546.726 575.546,542.802 		"/>
		<polygon fill="#006633" points="567.115,505.007 567.163,508.749 575.8,501.155 575.8,497.233 		"/>
		<polygon fill="#006633" points="567.187,489.679 567.234,493.421 575.87,485.829 575.87,481.905 		"/>
		<polygon fill="#006633" points="566.872,596.601 566.92,600.343 575.556,592.751 575.556,588.827 		"/>
		<polygon fill="#006633" points="566.944,581.272 566.991,585.015 575.628,577.423 575.628,573.499 		"/>
		<polygon fill="#006633" points="567.115,627.218 567.163,630.958 575.8,623.366 575.8,619.442 		"/>
		<polygon fill="#006633" points="567.187,611.888 567.234,615.63 575.87,608.036 575.87,604.114 		"/>
		<polygon fill="#006633" points="566.954,657.665 567.002,661.405 575.638,653.813 575.638,649.89 		"/>
		<polygon fill="#006633" points="567.024,642.335 567.071,646.079 575.709,638.485 575.709,634.563 		"/>
		<polygon fill="#006633" points="567.034,688.444 567.081,692.187 575.719,684.593 575.719,680.671 		"/>
		<polygon fill="#006633" points="567.106,673.114 567.153,676.856 575.789,669.263 575.789,665.341 		"/>
		<polygon fill="#006633" points="566.872,718.894 566.92,722.632 575.556,715.042 575.556,711.118 		"/>
		<polygon fill="#006633" points="566.944,703.563 566.991,707.306 575.628,699.714 575.628,695.79 		"/>
		<polygon fill="#006633" points="567.115,749.507 567.163,753.249 575.8,745.655 575.8,741.733 		"/>
		<polygon fill="#006633" points="567.187,734.177 567.234,737.919 575.87,730.327 575.87,726.403 		"/>
		<polygon fill="#006633" points="566.954,779.956 567.002,783.696 575.638,776.106 575.638,772.181 		"/>
		<polygon fill="#006633" points="567.024,764.628 567.071,768.368 575.709,760.776 575.709,756.853 		"/>
		<polygon fill="#006633" points="567.106,795.405 567.153,799.146 575.789,791.554 575.789,787.632 		"/>
		<rect x="570.21" y="20.956" fill="#008D36" width="2.704" height="790.113"/>
		<polygon fill="#006633" points="567.115,505.007 567.163,508.749 575.8,501.155 575.8,497.233 		"/>
		<polygon fill="#006633" points="567.187,489.679 567.234,493.421 575.87,485.829 575.87,481.905 		"/>
		<polygon fill="#76BB64" points="575.8,512.565 575.751,516.306 567.115,508.714 567.115,504.79 		"/>
		<polygon fill="#76BB64" points="575.8,497.452 575.751,501.194 567.115,493.603 567.115,489.679 		"/>
		<polygon fill="#76BB64" points="575.638,481.95 575.59,485.692 566.953,478.101 566.953,474.177 		"/>
		<polygon fill="#76BB64" points="575.638,466.839 575.59,470.579 566.953,462.989 566.953,459.067 		"/>
		<polygon fill="#76BB64" points="575.638,451.419 575.59,455.161 566.953,447.567 566.953,443.646 		"/>
		<polygon fill="#76BB64" points="575.638,436.308 575.59,440.048 566.953,432.458 566.953,428.536 		"/>
		<polygon fill="#76BB64" points="575.638,420.888 575.59,424.63 566.953,417.036 566.953,413.114 		"/>
		<polygon fill="#76BB64" points="575.638,405.776 575.59,409.518 566.953,401.925 566.953,398.002 		"/>
		<polygon fill="#76BB64" points="575.718,390.438 575.67,394.18 567.034,386.587 567.034,382.665 		"/>
		<polygon fill="#76BB64" points="575.718,375.327 575.67,379.068 567.034,371.476 567.034,367.553 		"/>
		<polygon fill="#76BB64" points="575.719,359.825 575.671,363.567 567.034,355.975 567.034,352.051 		"/>
		<polygon fill="#76BB64" points="575.719,344.713 575.671,348.456 567.034,340.863 567.034,336.94 		"/>
		<polygon fill="#76BB64" points="575.719,329.21 575.671,332.952 567.034,325.36 567.034,321.437 		"/>
		<polygon fill="#76BB64" points="575.719,314.098 575.671,317.84 567.034,310.249 567.034,306.325 		"/>
		<polygon fill="#76BB64" points="575.8,298.596 575.751,302.338 567.115,294.746 567.115,290.823 		"/>
		<polygon fill="#76BB64" points="575.8,283.485 575.751,287.227 567.115,279.633 567.115,275.711 		"/>
		<polygon fill="#76BB64" points="575.88,268.147 575.833,271.889 567.197,264.297 567.197,260.375 		"/>
		<polygon fill="#76BB64" points="575.88,253.036 575.833,256.777 567.197,249.186 567.197,245.263 		"/>
		<polygon fill="#76BB64" points="575.962,237.533 575.914,241.275 567.277,233.683 567.277,229.759 		"/>
		<polygon fill="#76BB64" points="575.962,222.422 575.914,226.164 567.277,218.571 567.277,214.648 		"/>
		<polygon fill="#76BB64" points="575.962,207.084 575.914,210.826 567.276,203.233 567.276,199.311 		"/>
		<polygon fill="#76BB64" points="575.962,191.972 575.914,195.714 567.276,188.123 567.276,184.199 		"/>
		<polygon fill="#76BB64" points="575.88,176.553 575.833,180.295 567.196,172.703 567.196,168.78 		"/>
		<polygon fill="#76BB64" points="575.88,161.441 575.833,165.184 567.196,157.592 567.196,153.668 		"/>
		<polygon fill="#76BB64" points="575.8,145.939 575.751,149.681 567.115,142.089 567.115,138.166 		"/>
		<polygon fill="#76BB64" points="575.8,130.828 575.751,134.569 567.115,126.977 567.115,123.055 		"/>
		<polygon fill="#76BB64" points="575.8,115.408 575.751,119.15 567.115,111.557 567.115,107.634 		"/>
		<polygon fill="#76BB64" points="575.8,100.296 575.751,104.038 567.115,96.445 567.115,92.523 		"/>
		<polygon fill="#76BB64" points="575.801,84.876 575.752,88.618 567.115,81.026 567.115,77.103 		"/>
		<polygon fill="#76BB64" points="575.801,69.765 575.752,73.506 567.115,65.914 567.115,61.992 		"/>
		<polygon fill="#76BB64" points="575.88,54.345 575.833,58.087 567.197,50.495 567.197,46.571 		"/>
		<polygon fill="#76BB64" points="575.88,39.233 575.833,42.975 567.197,35.383 567.197,31.46 		"/>
		<polygon fill="#76BB64" points="575.476,543.013 575.428,546.755 566.792,539.163 566.792,535.239 		"/>
		<polygon fill="#76BB64" points="575.476,527.901 575.428,531.642 566.792,524.052 566.792,520.13 		"/>
		<polygon fill="#76BB64" points="575.476,573.46 575.428,577.202 566.792,569.61 566.792,565.687 		"/>
		<polygon fill="#76BB64" points="575.476,558.349 575.428,562.093 566.792,554.499 566.792,550.577 		"/>
		<polygon fill="#76BB64" points="575.8,512.565 575.751,516.306 567.115,508.714 567.115,504.79 		"/>
		<polygon fill="#76BB64" points="575.8,497.452 575.751,501.194 567.115,493.603 567.115,489.679 		"/>
		<polygon fill="#76BB64" points="575.556,604.159 575.509,607.899 566.872,600.308 566.872,596.384 		"/>
		<polygon fill="#76BB64" points="575.556,589.046 575.509,592.788 566.872,585.196 566.872,581.272 		"/>
		<polygon fill="#76BB64" points="575.8,634.772 575.751,638.513 567.115,630.921 567.115,626.997 		"/>
		<polygon fill="#76BB64" points="575.8,619.659 575.751,623.403 567.115,615.812 567.115,611.888 		"/>
		<polygon fill="#76BB64" points="575.638,665.222 575.59,668.962 566.954,661.37 566.954,657.448 		"/>
		<polygon fill="#76BB64" points="575.638,650.108 575.59,653.851 566.954,646.259 566.954,642.335 		"/>
		<polygon fill="#76BB64" points="575.719,695.999 575.671,699.739 567.034,692.147 567.034,688.226 		"/>
		<polygon fill="#76BB64" points="575.719,680.886 575.671,684.63 567.034,677.038 567.034,673.114 		"/>
		<polygon fill="#76BB64" points="575.556,726.448 575.509,730.192 566.872,722.599 566.872,718.677 		"/>
		<polygon fill="#76BB64" points="575.556,711.339 575.509,715.077 566.872,707.485 566.872,703.563 		"/>
		<polygon fill="#76BB64" points="575.8,757.062 575.751,760.804 567.115,753.212 567.115,749.288 		"/>
		<polygon fill="#76BB64" points="575.8,741.95 575.751,745.692 567.115,738.101 567.115,734.177 		"/>
		<polygon fill="#76BB64" points="575.638,787.511 575.59,791.255 566.954,783.661 566.954,779.739 		"/>
		<polygon fill="#76BB64" points="575.638,772.401 575.59,776.14 566.954,768.548 566.954,764.628 		"/>
		<polygon fill="#76BB64" points="576.002,803.024 575.955,806.767 567.319,799.175 567.319,795.253 		"/>
	</g>
	<polygon fill="#76BB64" points="575.756,24.559 575.676,28.779 565.219,17.939 568.963,17.822 	"/>
	<g>
		<polygon fill="#006633" points="467.304,805.54 470.969,805.589 463.53,814.403 459.688,814.403 		"/>
		<polygon fill="#006633" points="452.284,805.612 455.95,805.661 448.514,814.476 444.669,814.476 		"/>
		<polygon fill="#006633" points="437.391,805.54 441.056,805.589 433.617,814.403 429.774,814.403 		"/>
		<polygon fill="#006633" points="422.371,805.612 426.038,805.661 418.6,814.476 414.756,814.476 		"/>
		<polygon fill="#006633" points="407.478,805.54 411.143,805.589 403.704,814.403 399.861,814.403 		"/>
		<polygon fill="#006633" points="392.458,805.612 396.125,805.661 388.687,814.476 384.843,814.476 		"/>
		<polygon fill="#006633" points="377.644,805.624 381.31,805.671 373.871,814.485 370.027,814.485 		"/>
		<polygon fill="#006633" points="362.625,805.696 366.292,805.745 358.854,814.558 355.009,814.558 		"/>
		<polygon fill="#006633" points="347.651,805.624 351.315,805.671 343.877,814.487 340.034,814.487 		"/>
		<polygon fill="#006633" points="332.632,805.696 336.299,805.745 328.86,814.558 325.017,814.558 		"/>
		<polygon fill="#006633" points="317.656,805.624 321.321,805.671 313.883,814.487 310.039,814.487 		"/>
		<polygon fill="#006633" points="302.637,805.696 306.304,805.745 298.862,814.558 295.019,814.558 		"/>
		<polygon fill="#006633" points="287.661,805.704 291.327,805.753 283.888,814.569 280.044,814.569 		"/>
		<polygon fill="#006633" points="272.642,805.778 276.307,805.827 268.868,814.642 265.024,814.642 		"/>
		<polygon fill="#006633" points="257.827,805.79 261.492,805.839 254.054,814.651 250.21,814.651 		"/>
		<polygon fill="#006633" points="242.808,805.86 246.475,805.909 239.036,814.726 235.192,814.726 		"/>
		<polygon fill="#006633" points="227.835,805.872 231.499,805.921 224.062,814.735 220.218,814.735 		"/>
		<polygon fill="#006633" points="212.815,805.944 216.479,805.993 209.042,814.808 205.198,814.808 		"/>
		<polygon fill="#006633" points="198.001,805.872 201.666,805.919 194.228,814.735 190.384,814.735 		"/>
		<polygon fill="#006633" points="182.981,805.944 186.648,805.993 179.21,814.806 175.366,814.806 		"/>
		<polygon fill="#006633" points="168.087,805.788 171.753,805.837 164.313,814.651 160.471,814.651 		"/>
		<polygon fill="#006633" points="153.067,805.86 156.735,805.909 149.297,814.724 145.453,814.724 		"/>
		<polygon fill="#006633" points="138.095,805.704 141.76,805.753 134.321,814.569 130.478,814.569 		"/>
		<polygon fill="#006633" points="123.075,805.778 126.74,805.827 119.302,814.642 115.458,814.642 		"/>
		<polygon fill="#006633" points="109.153,805.704 112.819,805.753 105.381,814.569 101.537,814.569 		"/>
		<polygon fill="#006633" points="94.135,805.778 97.8,805.827 90.361,814.642 86.518,814.642 		"/>
		<polygon fill="#006633" points="79.241,805.704 82.905,805.753 75.468,814.569 71.624,814.569 		"/>
		<polygon fill="#006633" points="64.222,805.78 67.887,805.829 60.448,814.642 56.604,814.642 		"/>
		<polygon fill="#006633" points="49.327,805.79 52.993,805.839 45.555,814.651 41.71,814.651 		"/>
		<polygon fill="#006633" points="527.131,805.374 530.795,805.423 523.356,814.239 519.514,814.239 		"/>
		<polygon fill="#006633" points="512.11,805.446 515.776,805.495 508.338,814.312 504.494,814.312 		"/>
		<polygon fill="#006633" points="556.963,805.374 560.627,805.423 553.188,814.239 549.345,814.239 		"/>
		<polygon fill="#006633" points="541.942,805.446 545.608,805.495 538.17,814.312 534.326,814.312 		"/>
		<polygon fill="#006633" points="497.297,805.704 500.963,805.753 493.524,814.569 489.681,814.569 		"/>
		<polygon fill="#006633" points="482.278,805.778 485.944,805.827 478.506,814.642 474.662,814.642 		"/>
		<rect x="23.228" y="808.726" fill="#008D36" width="547.061" height="2.762"/>
		<polygon fill="#006633" points="497.297,805.704 500.963,805.753 493.524,814.569 489.681,814.569 		"/>
		<polygon fill="#006633" points="482.278,805.778 485.944,805.827 478.506,814.642 474.662,814.642 		"/>
		<polygon fill="#76BB64" points="504.699,814.569 508.366,814.521 500.928,805.704 497.084,805.704 		"/>
		<polygon fill="#76BB64" points="489.895,814.569 493.56,814.521 486.121,805.704 482.278,805.704 		"/>
		<polygon fill="#76BB64" points="474.706,814.403 478.372,814.354 470.934,805.54 467.09,805.54 		"/>
		<polygon fill="#76BB64" points="459.9,814.403 463.566,814.354 456.128,805.54 452.284,805.54 		"/>
		<polygon fill="#76BB64" points="444.793,814.403 448.461,814.354 441.022,805.54 437.178,805.54 		"/>
		<polygon fill="#76BB64" points="429.989,814.403 433.653,814.354 426.215,805.54 422.371,805.54 		"/>
		<polygon fill="#76BB64" points="414.88,814.403 418.547,814.354 411.108,805.54 407.265,805.54 		"/>
		<polygon fill="#76BB64" points="400.075,814.403 403.74,814.354 396.302,805.54 392.458,805.54 		"/>
		<polygon fill="#76BB64" points="385.046,814.485 388.714,814.437 381.275,805.624 377.432,805.624 		"/>
		<polygon fill="#76BB64" points="370.242,814.485 373.906,814.437 366.468,805.624 362.625,805.624 		"/>
		<polygon fill="#76BB64" points="355.054,814.487 358.721,814.438 351.282,805.624 347.438,805.624 		"/>
		<polygon fill="#76BB64" points="340.249,814.487 343.914,814.438 336.476,805.624 332.632,805.624 		"/>
		<polygon fill="#76BB64" points="325.059,814.487 328.726,814.438 321.287,805.624 317.443,805.624 		"/>
		<polygon fill="#76BB64" points="310.254,814.487 313.919,814.438 306.48,805.624 302.637,805.624 		"/>
		<polygon fill="#76BB64" points="295.063,814.569 298.728,814.521 291.29,805.704 287.446,805.704 		"/>
		<polygon fill="#76BB64" points="280.257,814.569 283.923,814.521 276.485,805.704 272.642,805.704 		"/>
		<polygon fill="#76BB64" points="265.229,814.651 268.897,814.603 261.458,805.79 257.614,805.79 		"/>
		<polygon fill="#76BB64" points="250.425,814.651 254.091,814.603 246.651,805.79 242.808,805.79 		"/>
		<polygon fill="#76BB64" points="235.236,814.735 238.901,814.687 231.463,805.872 227.62,805.872 		"/>
		<polygon fill="#76BB64" points="220.43,814.735 224.097,814.687 216.658,805.872 212.815,805.872 		"/>
		<polygon fill="#76BB64" points="205.403,814.735 209.07,814.687 201.632,805.872 197.788,805.872 		"/>
		<polygon fill="#76BB64" points="190.599,814.735 194.264,814.687 186.825,805.872 182.981,805.872 		"/>
		<polygon fill="#76BB64" points="175.49,814.651 179.157,814.603 171.719,805.788 167.874,805.788 		"/>
		<polygon fill="#76BB64" points="160.686,814.651 164.351,814.603 156.912,805.788 153.067,805.788 		"/>
		<polygon fill="#76BB64" points="145.497,814.569 149.162,814.521 141.724,805.704 137.88,805.704 		"/>
		<polygon fill="#76BB64" points="130.69,814.569 134.357,814.521 126.919,805.704 123.075,805.704 		"/>
		<polygon fill="#76BB64" points="116.557,814.569 120.222,814.521 112.783,805.704 108.938,805.704 		"/>
		<polygon fill="#76BB64" points="101.75,814.569 105.417,814.521 97.979,805.704 94.135,805.704 		"/>
		<polygon fill="#76BB64" points="86.644,814.569 90.309,814.522 82.87,805.704 79.026,805.704 		"/>
		<polygon fill="#76BB64" points="71.837,814.569 75.504,814.522 68.065,805.704 64.222,805.704 		"/>
		<polygon fill="#76BB64" points="56.729,814.651 60.396,814.603 52.956,805.79 49.112,805.79 		"/>
		<polygon fill="#76BB64" points="41.923,814.651 45.591,814.603 38.151,805.79 34.309,805.79 		"/>
		<polygon fill="#76BB64" points="534.533,814.239 538.198,814.19 530.76,805.374 526.916,805.374 		"/>
		<polygon fill="#76BB64" points="519.727,814.239 523.394,814.19 515.955,805.374 512.11,805.374 		"/>
		<polygon fill="#76BB64" points="564.593,814.642 568.24,814.558 560.591,805.374 556.748,805.374 		"/>
		<polygon fill="#76BB64" points="549.558,814.239 553.225,814.19 545.786,805.374 541.942,805.374 		"/>
		<polygon fill="#76BB64" points="504.699,814.569 508.366,814.521 500.928,805.704 497.084,805.704 		"/>
		<polygon fill="#76BB64" points="489.895,814.569 493.56,814.521 486.121,805.704 482.278,805.704 		"/>
	</g>
	<polygon fill="#76BB64" points="31.493,814.679 27.466,814.692 20.21,808.177 20.21,804.253 	"/>
</g>
<g>
	<path fill="#76BB64" d="M473.129,56.148c-0.195,0.098-0.637,0.203-1.211,0.203c-1.632,0-2.473-1.015-2.473-2.36
		c0-1.611,1.148-2.507,2.577-2.507c0.554,0,0.974,0.112,1.163,0.21l-0.218,0.847c-0.217-0.091-0.518-0.175-0.896-0.175
		c-0.847,0-1.505,0.511-1.505,1.562c0,0.946,0.56,1.541,1.513,1.541c0.322,0,0.679-0.07,0.889-0.154L473.129,56.148z"/>
	<path fill="#76BB64" d="M474.479,54.909c0.034,0.441,0.469,0.651,0.966,0.651c0.364,0,0.658-0.049,0.946-0.14l0.14,0.721
		c-0.351,0.14-0.777,0.21-1.239,0.21c-1.163,0-1.828-0.672-1.828-1.744c0-0.869,0.539-1.828,1.729-1.828
		c1.106,0,1.527,0.861,1.527,1.709c0,0.182-0.021,0.343-0.035,0.42H474.479z M475.732,54.18c0-0.259-0.111-0.693-0.602-0.693
		c-0.448,0-0.631,0.406-0.659,0.693H475.732z"/>
	<path fill="#76BB64" d="M477.355,53.984c0-0.504-0.014-0.833-0.027-1.127h0.917l0.035,0.63h0.028
		c0.175-0.498,0.595-0.708,0.925-0.708c0.098,0,0.146,0,0.224,0.014v1.001c-0.077-0.014-0.168-0.028-0.287-0.028
		c-0.393,0-0.658,0.21-0.729,0.539c-0.014,0.07-0.021,0.154-0.021,0.238v1.737h-1.065V53.984z"/>
	<path fill="#76BB64" d="M481.354,51.876v0.98h0.763v0.784h-0.763v1.24c0,0.414,0.098,0.603,0.42,0.603
		c0.133,0,0.238-0.014,0.315-0.028l0.007,0.806c-0.141,0.056-0.393,0.091-0.693,0.091c-0.344,0-0.631-0.119-0.799-0.294
		c-0.195-0.203-0.294-0.532-0.294-1.016v-1.401h-0.455v-0.784h0.455v-0.743L481.354,51.876z"/>
	<path fill="#76BB64" d="M483.831,51.904c0,0.294-0.224,0.532-0.574,0.532c-0.336,0-0.56-0.238-0.553-0.532
		c-0.007-0.308,0.217-0.539,0.561-0.539C483.607,51.365,483.824,51.596,483.831,51.904z M482.731,56.281v-3.425h1.065v3.425H482.731
		z"/>
	<path fill="#76BB64" d="M484.769,56.281v-2.641h-0.448v-0.784h0.448v-0.147c0-0.946,0.735-1.478,1.793-1.478
		c0.364,0,0.799,0.084,1.009,0.21l-0.203,0.806c-0.168-0.091-0.441-0.175-0.777-0.175c-0.561,0-0.756,0.288-0.756,0.666v0.119h2.08
		v3.425h-1.065v-2.641h-1.008v2.641H484.769z"/>
	<path fill="#76BB64" d="M491.337,56.197c-0.189,0.084-0.547,0.154-0.953,0.154c-1.106,0-1.813-0.672-1.813-1.75
		c0-1.002,0.687-1.821,1.961-1.821c0.28,0,0.588,0.049,0.813,0.133l-0.168,0.792c-0.126-0.056-0.315-0.105-0.596-0.105
		c-0.561,0-0.925,0.399-0.918,0.959c0,0.63,0.421,0.96,0.939,0.96c0.252,0,0.448-0.042,0.608-0.105L491.337,56.197z"/>
	<path fill="#76BB64" d="M493.898,56.281l-0.063-0.343h-0.021c-0.224,0.273-0.574,0.42-0.98,0.42c-0.693,0-1.106-0.504-1.106-1.051
		c0-0.889,0.799-1.316,2.01-1.31v-0.049c0-0.182-0.098-0.441-0.623-0.441c-0.351,0-0.722,0.119-0.945,0.259l-0.196-0.687
		c0.238-0.133,0.707-0.301,1.331-0.301c1.142,0,1.506,0.672,1.506,1.478v1.19c0,0.329,0.014,0.645,0.049,0.833H493.898z
		 M493.772,54.664c-0.561-0.007-0.994,0.126-0.994,0.539c0,0.273,0.182,0.406,0.42,0.406c0.267,0,0.483-0.175,0.554-0.392
		c0.014-0.056,0.021-0.119,0.021-0.182V54.664z"/>
	<path fill="#76BB64" d="M496.783,51.876v0.98h0.763v0.784h-0.763v1.24c0,0.414,0.098,0.603,0.42,0.603
		c0.133,0,0.238-0.014,0.315-0.028l0.007,0.806c-0.141,0.056-0.393,0.091-0.693,0.091c-0.344,0-0.631-0.119-0.799-0.294
		c-0.195-0.203-0.294-0.532-0.294-1.016v-1.401h-0.455v-0.784h0.455v-0.743L496.783,51.876z"/>
	<path fill="#76BB64" d="M498.946,54.909c0.034,0.441,0.469,0.651,0.966,0.651c0.364,0,0.658-0.049,0.946-0.14l0.14,0.721
		c-0.351,0.14-0.777,0.21-1.239,0.21c-1.163,0-1.828-0.672-1.828-1.744c0-0.869,0.539-1.828,1.729-1.828
		c1.106,0,1.527,0.861,1.527,1.709c0,0.182-0.021,0.343-0.035,0.42H498.946z M500.199,54.18c0-0.259-0.111-0.693-0.602-0.693
		c-0.448,0-0.631,0.406-0.659,0.693H500.199z"/>
	<path fill="#76BB64" d="M506.619,54.53c0,1.254-0.889,1.828-1.807,1.828c-1.001,0-1.771-0.659-1.771-1.765s0.729-1.814,1.828-1.814
		C505.919,52.779,506.619,53.501,506.619,54.53z M504.141,54.565c0,0.588,0.245,1.029,0.7,1.029c0.413,0,0.68-0.413,0.68-1.029
		c0-0.511-0.196-1.03-0.68-1.03C504.329,53.536,504.141,54.061,504.141,54.565z"/>
	<path fill="#76BB64" d="M507.395,56.281v-2.641h-0.448v-0.784h0.448v-0.133c0-0.413,0.127-0.868,0.435-1.148
		c0.267-0.252,0.638-0.343,0.945-0.343c0.238,0,0.421,0.028,0.567,0.07l-0.042,0.819c-0.091-0.028-0.203-0.049-0.343-0.049
		c-0.351,0-0.497,0.273-0.497,0.609v0.175h0.686v0.784h-0.679v2.641H507.395z"/>
	<path fill="#76BB64" d="M515.433,53.872c0,1.548-0.938,2.486-2.317,2.486c-1.401,0-2.221-1.058-2.221-2.402
		c0-1.415,0.903-2.472,2.297-2.472C514.642,51.484,515.433,52.569,515.433,53.872z M512.022,53.935c0,0.924,0.434,1.576,1.148,1.576
		c0.722,0,1.135-0.687,1.135-1.604c0-0.847-0.406-1.576-1.142-1.576C512.442,52.331,512.022,53.018,512.022,53.935z"/>
	<path fill="#76BB64" d="M518.666,56.197c-0.189,0.084-0.547,0.154-0.953,0.154c-1.106,0-1.813-0.672-1.813-1.75
		c0-1.002,0.687-1.821,1.961-1.821c0.28,0,0.588,0.049,0.813,0.133l-0.168,0.792c-0.126-0.056-0.315-0.105-0.596-0.105
		c-0.561,0-0.925,0.399-0.918,0.959c0,0.63,0.421,0.96,0.939,0.96c0.252,0,0.448-0.042,0.608-0.105L518.666,56.197z"/>
	<path fill="#76BB64" d="M521.746,56.197c-0.189,0.084-0.547,0.154-0.953,0.154c-1.106,0-1.813-0.672-1.813-1.75
		c0-1.002,0.687-1.821,1.961-1.821c0.28,0,0.588,0.049,0.813,0.133l-0.168,0.792c-0.126-0.056-0.315-0.105-0.596-0.105
		c-0.561,0-0.925,0.399-0.918,0.959c0,0.63,0.421,0.96,0.939,0.96c0.252,0,0.448-0.042,0.608-0.105L521.746,56.197z"/>
	<path fill="#76BB64" d="M525.562,55.182c0,0.448,0.014,0.813,0.027,1.1h-0.924l-0.049-0.483h-0.021
		c-0.133,0.21-0.455,0.561-1.071,0.561c-0.693,0-1.205-0.435-1.205-1.492v-2.01h1.071v1.842c0,0.498,0.161,0.799,0.532,0.799
		c0.295,0,0.463-0.203,0.533-0.372c0.027-0.063,0.034-0.147,0.034-0.231v-2.038h1.072V55.182z"/>
	<path fill="#76BB64" d="M526.413,54.005c0-0.448-0.014-0.833-0.027-1.148h0.924l0.05,0.476h0.014
		c0.252-0.364,0.645-0.553,1.142-0.553c0.749,0,1.422,0.651,1.422,1.744c0,1.247-0.791,1.835-1.555,1.835
		c-0.413,0-0.735-0.168-0.89-0.392h-0.014v1.702h-1.065V54.005z M527.479,54.811c0,0.084,0.007,0.161,0.021,0.224
		c0.07,0.287,0.315,0.504,0.623,0.504c0.463,0,0.735-0.385,0.735-0.967c0-0.546-0.245-0.959-0.721-0.959
		c-0.302,0-0.567,0.224-0.638,0.54c-0.014,0.056-0.021,0.126-0.021,0.189V54.811z"/>
	<path fill="#76BB64" d="M532.546,56.281l-0.063-0.343h-0.021c-0.224,0.273-0.574,0.42-0.98,0.42c-0.693,0-1.106-0.504-1.106-1.051
		c0-0.889,0.799-1.316,2.01-1.31v-0.049c0-0.182-0.098-0.441-0.623-0.441c-0.351,0-0.722,0.119-0.945,0.259l-0.196-0.687
		c0.238-0.133,0.707-0.301,1.331-0.301c1.142,0,1.506,0.672,1.506,1.478v1.19c0,0.329,0.014,0.645,0.049,0.833H532.546z
		 M532.42,54.664c-0.561-0.007-0.994,0.126-0.994,0.539c0,0.273,0.182,0.406,0.42,0.406c0.267,0,0.483-0.175,0.554-0.392
		c0.014-0.056,0.021-0.119,0.021-0.182V54.664z"/>
	<path fill="#76BB64" d="M534.295,53.949c0-0.427-0.014-0.792-0.027-1.093h0.924l0.05,0.469h0.021
		c0.141-0.217,0.49-0.546,1.058-0.546c0.7,0,1.226,0.462,1.226,1.471v2.031h-1.064v-1.898c0-0.441-0.154-0.743-0.539-0.743
		c-0.294,0-0.47,0.203-0.539,0.399c-0.028,0.063-0.042,0.168-0.042,0.266v1.975h-1.065V53.949z"/>
	<path fill="#76BB64" d="M540.968,56.197c-0.189,0.084-0.547,0.154-0.953,0.154c-1.106,0-1.813-0.672-1.813-1.75
		c0-1.002,0.687-1.821,1.961-1.821c0.28,0,0.588,0.049,0.813,0.133l-0.168,0.792c-0.126-0.056-0.315-0.105-0.596-0.105
		c-0.561,0-0.925,0.399-0.918,0.959c0,0.63,0.421,0.96,0.939,0.96c0.252,0,0.448-0.042,0.608-0.105L540.968,56.197z"/>
	<path fill="#76BB64" d="M542.458,52.856l0.512,1.681c0.056,0.203,0.126,0.456,0.168,0.638h0.021
		c0.049-0.182,0.105-0.441,0.154-0.638l0.42-1.681h1.142l-0.798,2.255c-0.49,1.358-0.819,1.905-1.205,2.248
		c-0.371,0.322-0.764,0.434-1.029,0.469l-0.225-0.903c0.134-0.021,0.302-0.084,0.463-0.182c0.161-0.084,0.336-0.252,0.441-0.427
		c0.034-0.049,0.056-0.105,0.056-0.154c0-0.035-0.007-0.091-0.049-0.175l-1.254-3.131H542.458z"/>
	<path fill="#76BB64" d="M469.732,69.281v-4.721h0.665l1.514,2.389c0.35,0.553,0.623,1.05,0.847,1.534l0.015-0.007
		c-0.057-0.63-0.07-1.205-0.07-1.94v-1.975h0.574v4.721h-0.616l-1.499-2.396c-0.329-0.525-0.645-1.064-0.883-1.576l-0.021,0.007
		c0.035,0.596,0.049,1.163,0.049,1.947v2.017H469.732z"/>
	<path fill="#76BB64" d="M477.385,67.558c0,1.254-0.868,1.8-1.688,1.8c-0.917,0-1.624-0.672-1.624-1.744
		c0-1.135,0.742-1.8,1.681-1.8C476.727,65.814,477.385,66.522,477.385,67.558z M474.695,67.593c0,0.743,0.427,1.303,1.029,1.303
		c0.589,0,1.029-0.553,1.029-1.317c0-0.574-0.287-1.302-1.016-1.302C475.011,66.277,474.695,66.949,474.695,67.593z"/>
	<path fill="#76BB64" d="M477.845,68.917c0-0.259,0.175-0.441,0.42-0.441s0.413,0.182,0.413,0.441c0,0.252-0.161,0.441-0.42,0.441
		C478.013,69.358,477.845,69.169,477.845,68.917z"/>
</g>
<line fill="none" stroke="#76BB64" stroke-width="0.5" stroke-miterlimit="10" x1="480.586" y1="70.729" x2="544.253" y2="70.729"/>
<rect x="21.662" y="21.674" fill="none" width="552.667" height="840"/>
</svg>
