<?xml version="1.0" encoding="UTF-8" standalone="no"?>
<!-- Generator: Adobe Illustrator 16.0.0, SVG Export Plug-In . SVG Version: 6.00 Build 0)  -->

<svg
   xmlns:dc="http://purl.org/dc/elements/1.1/"
   xmlns:cc="http://creativecommons.org/ns#"
   xmlns:rdf="http://www.w3.org/1999/02/22-rdf-syntax-ns#"
   xmlns:svg="http://www.w3.org/2000/svg"
   xmlns="http://www.w3.org/2000/svg"
   xmlns:sodipodi="http://sodipodi.sourceforge.net/DTD/sodipodi-0.dtd"
   xmlns:inkscape="http://www.inkscape.org/namespaces/inkscape"
   version="1.1"
   id="Layer_1"
   x="0px"
   y="0px"
   width="595.28px"
   height="841.89px"
   viewBox="0 0 595.28 841.89"
   enable-background="new 0 0 595.28 841.89"
   xml:space="preserve"
   inkscape:version="0.48.4 r9939"
   sodipodi:docname="back.svg"><metadata
   id="metadata9131"><rdf:RDF><cc:Work
       rdf:about=""><dc:format>image/svg+xml</dc:format><dc:type
         rdf:resource="http://purl.org/dc/dcmitype/StillImage" /><dc:title /></cc:Work></rdf:RDF></metadata><defs
   id="defs9129" /><sodipodi:namedview
   pagecolor="#ffffff"
   bordercolor="#666666"
   borderopacity="1"
   objecttolerance="10"
   gridtolerance="10"
   guidetolerance="10"
   inkscape:pageopacity="0"
   inkscape:pageshadow="0"
   inkscape:window-width="1920"
   inkscape:window-height="1058"
   id="namedview9127"
   showgrid="false"
   inkscape:zoom="1.0333891"
   inkscape:cx="297.64001"
   inkscape:cy="213.04461"
   inkscape:window-x="-8"
   inkscape:window-y="-8"
   inkscape:window-maximized="1"
   inkscape:current-layer="Layer_1"
   showguides="true"
   inkscape:guide-bbox="true" />
<rect
   x="-3.1505163"
   y="-4.2359552"
   width="604.66602"
   height="856"
   id="rect7565"
   style="opacity:0.5;fill:#ffffff" />

<g
   opacity="0.0"
   id="g7569">
	<polygon
   points="22.172,503.256 22.219,506.998 30.855,499.404 30.855,495.482  "
   id="polygon7571" />
	<polygon
   points="22.242,487.926 22.291,491.668 30.926,484.076 30.926,480.152  "
   id="polygon7573" />
	<polygon
   points="577.877,806.793 577.969,810.516 570.1,819.025 566.252,819.029  "
   id="polygon7575" />
	<polygon
   points="33.373,819.189 29.346,819.203 36.191,810.447 40.031,810.301  "
   id="polygon7577" />
	<polygon
   points="569.076,35.972 569.076,39.895 577.111,32.752 577.111,28.83  "
   id="polygon7579" />
	<polygon
   points="22.01,472.643 22.057,476.383 30.693,468.793 30.693,464.869  "
   id="polygon7581" />
	<polygon
   points="22.08,457.314 22.127,461.055 30.764,453.463 30.764,449.539  "
   id="polygon7583" />
	<polygon
   points="22.01,442.111 22.057,445.852 30.693,438.26 30.693,434.336  "
   id="polygon7585" />
	<polygon
   points="22.08,426.783 22.127,430.523 30.764,422.932 30.764,419.008  "
   id="polygon7587" />
	<polygon
   points="22.01,411.581 22.057,415.32 30.693,407.729 30.693,403.805  "
   id="polygon7589" />
	<polygon
   points="22.08,396.25 22.127,399.993 30.764,392.4 30.764,388.477  "
   id="polygon7591" />
	<polygon
   points="22.09,381.131 22.137,384.872 30.773,377.28 30.773,373.356  "
   id="polygon7593" />
	<polygon
   points="22.16,365.801 22.209,369.543 30.844,361.951 30.844,358.028  "
   id="polygon7595" />
	<polygon
   points="22.09,350.517 22.139,354.258 30.773,346.667 30.773,342.743  "
   id="polygon7597" />
	<polygon
   points="22.162,335.188 22.209,338.929 30.846,331.336 30.846,327.415  "
   id="polygon7599" />
	<polygon
   points="22.09,319.903 22.139,323.644 30.773,316.051 30.773,312.129  "
   id="polygon7601" />
	<polygon
   points="22.162,304.573 22.209,308.315 30.846,300.723 30.846,296.799  "
   id="polygon7603" />
	<polygon
   points="22.172,289.289 22.219,293.03 30.855,285.438 30.855,281.514  "
   id="polygon7605" />
	<polygon
   points="22.242,273.959 22.291,277.701 30.926,270.108 30.926,266.186  "
   id="polygon7607" />
	<polygon
   points="22.252,258.84 22.301,262.581 30.938,254.989 30.938,251.066  "
   id="polygon7609" />
	<polygon
   points="22.324,243.511 22.371,247.252 31.008,239.661 31.008,235.737  "
   id="polygon7611" />
	<polygon
   points="22.334,228.226 22.381,231.967 31.018,224.375 31.018,220.452  "
   id="polygon7613" />
	<polygon
   points="22.404,212.896 22.453,216.638 31.09,209.045 31.09,205.123  "
   id="polygon7615" />
	<polygon
   points="22.334,197.777 22.381,201.518 31.018,193.926 31.018,190.002  "
   id="polygon7617" />
	<polygon
   points="22.404,182.447 22.453,186.189 31.088,178.597 31.088,174.674  "
   id="polygon7619" />
	<polygon
   points="22.252,167.246 22.299,170.986 30.936,163.395 30.936,159.472  "
   id="polygon7621" />
	<polygon
   points="22.324,151.917 22.371,155.659 31.008,148.066 31.008,144.143  "
   id="polygon7623" />
	<polygon
   points="22.172,136.632 22.219,140.373 30.855,132.78 30.855,128.857  "
   id="polygon7625" />
	<polygon
   points="22.242,121.302 22.291,125.044 30.926,117.451 30.926,113.529  "
   id="polygon7627" />
	<polygon
   points="22.172,106.101 22.219,109.841 30.855,102.249 30.855,98.326  "
   id="polygon7629" />
	<polygon
   points="22.242,90.771 22.291,94.512 30.926,86.92 30.926,82.998  "
   id="polygon7631" />
	<polygon
   points="22.172,75.569 22.219,79.31 30.855,71.718 30.855,67.794  "
   id="polygon7633" />
	<polygon
   points="22.244,60.239 22.291,63.981 30.928,56.389 30.928,52.466  "
   id="polygon7635" />
	<polygon
   points="22.252,45.038 22.301,48.778 30.938,41.186 30.938,37.263  "
   id="polygon7637" />
	<polygon
   points="22.324,29.708 22.371,33.45 33.662,22.534 29.771,22.534  "
   id="polygon7639" />
	<polygon
   points="21.848,533.707 21.895,537.447 30.531,529.855 30.531,525.932  "
   id="polygon7641" />
	<polygon
   points="21.918,518.377 21.967,522.117 30.602,514.525 30.602,510.602  "
   id="polygon7643" />
	<polygon
   points="21.848,564.152 21.895,567.895 30.531,560.303 30.531,556.379  "
   id="polygon7645" />
	<polygon
   points="21.918,548.824 21.967,552.564 30.602,544.973 30.602,541.049  "
   id="polygon7647" />
	<polygon
   points="22.172,503.256 22.219,506.998 30.855,499.404 30.855,495.482  "
   id="polygon7649" />
	<polygon
   points="22.242,487.926 22.291,491.668 30.926,484.076 30.926,480.152  "
   id="polygon7651" />
	<polygon
   points="21.928,594.85 21.977,598.592 30.611,591 30.611,587.076  "
   id="polygon7653" />
	<polygon
   points="22,579.521 22.047,583.262 30.684,575.67 30.684,571.746  "
   id="polygon7655" />
	<polygon
   points="22.172,625.465 22.219,629.205 30.855,621.613 30.855,617.689  "
   id="polygon7657" />
	<polygon
   points="22.242,610.135 22.291,613.877 30.926,606.283 30.926,602.361  "
   id="polygon7659" />
	<polygon
   points="22.01,655.914 22.057,659.654 30.693,652.063 30.693,648.139  "
   id="polygon7661" />
	<polygon
   points="22.08,640.584 22.129,644.326 30.764,636.734 30.764,632.811  "
   id="polygon7663" />
	<polygon
   points="22.09,686.691 22.139,690.434 30.773,682.84 30.773,678.916  "
   id="polygon7665" />
	<polygon
   points="22.162,671.361 22.209,675.104 30.846,667.512 30.846,663.588  "
   id="polygon7667" />
	<polygon
   points="21.928,717.141 21.977,720.881 30.611,713.289 30.611,709.365  "
   id="polygon7669" />
	<polygon
   points="22,701.811 22.047,705.553 30.684,697.961 30.684,694.037  "
   id="polygon7671" />
	<polygon
   points="22.172,747.754 22.219,751.496 30.855,743.902 30.855,739.98  "
   id="polygon7673" />
	<polygon
   points="22.242,732.424 22.291,736.166 30.926,728.574 30.926,724.65  "
   id="polygon7675" />
	<polygon
   points="22.01,778.203 22.057,781.945 30.693,774.354 30.693,770.428  "
   id="polygon7677" />
	<polygon
   points="22.08,762.875 22.129,766.615 30.764,759.023 30.764,755.1  "
   id="polygon7679" />
	<polygon
   points="22.09,808.982 22.139,812.723 30.773,805.131 30.773,801.207  "
   id="polygon7681" />
	<polygon
   points="22.162,793.652 22.209,797.395 30.846,789.803 30.846,785.881  "
   id="polygon7683" />
	<rect
   x="25.045"
   y="25.465"
   width="2.705"
   height="788.482"
   id="rect7685" />
	<polygon
   points="30.855,510.811 30.809,514.553 22.172,506.961 22.172,503.037  "
   id="polygon7687" />
	<polygon
   points="30.855,495.699 30.809,499.443 22.172,491.852 22.172,487.926  "
   id="polygon7689" />
	<polygon
   points="30.693,480.197 30.645,483.939 22.01,476.346 22.01,472.424  "
   id="polygon7691" />
	<polygon
   points="30.693,465.086 30.645,468.826 22.01,461.234 22.01,457.314  "
   id="polygon7693" />
	<polygon
   points="30.693,449.666 30.645,453.408 22.01,445.814 22.01,441.893  "
   id="polygon7695" />
	<polygon
   points="30.693,434.555 30.645,438.295 22.01,430.703 22.01,426.783  "
   id="polygon7697" />
	<polygon
   points="30.693,419.135 30.645,422.877 22.01,415.285 22.01,411.362  "
   id="polygon7699" />
	<polygon
   points="30.693,404.024 30.645,407.765 22.01,400.173 22.01,396.25  "
   id="polygon7701" />
	<polygon
   points="30.773,388.686 30.727,392.428 22.09,384.835 22.09,380.913  "
   id="polygon7703" />
	<polygon
   points="30.773,373.575 30.727,377.317 22.09,369.724 22.09,365.801  "
   id="polygon7705" />
	<polygon
   points="30.773,358.073 30.727,361.815 22.09,354.223 22.09,350.299  "
   id="polygon7707" />
	<polygon
   points="30.773,342.961 30.727,346.703 22.09,339.111 22.09,335.188  "
   id="polygon7709" />
	<polygon
   points="30.773,327.458 30.727,331.2 22.09,323.608 22.09,319.685  "
   id="polygon7711" />
	<polygon
   points="30.773,312.346 30.727,316.088 22.09,308.497 22.09,304.573  "
   id="polygon7713" />
	<polygon
   points="30.855,296.844 30.809,300.585 22.172,292.994 22.172,289.071  "
   id="polygon7715" />
	<polygon
   points="30.855,281.733 30.809,285.474 22.172,277.881 22.172,273.959  "
   id="polygon7717" />
	<polygon
   points="30.938,266.396 30.889,270.137 22.252,262.545 22.252,258.623  "
   id="polygon7719" />
	<polygon
   points="30.938,251.284 30.889,255.026 22.252,247.434 22.252,243.511  "
   id="polygon7721" />
	<polygon
   points="31.018,235.782 30.971,239.523 22.334,231.931 22.334,228.007  "
   id="polygon7723" />
	<polygon
   points="31.018,220.67 30.971,224.412 22.334,216.82 22.334,212.896  "
   id="polygon7725" />
	<polygon
   points="31.018,205.332 30.969,209.074 22.334,201.482 22.334,197.559  "
   id="polygon7727" />
	<polygon
   points="31.018,190.221 30.969,193.962 22.334,186.37 22.334,182.447  "
   id="polygon7729" />
	<polygon
   points="30.936,174.801 30.889,178.543 22.252,170.951 22.252,167.028  "
   id="polygon7731" />
	<polygon
   points="30.936,159.69 30.889,163.432 22.252,155.839 22.252,151.917  "
   id="polygon7733" />
	<polygon
   points="30.855,144.188 30.809,147.929 22.172,140.337 22.172,136.414  "
   id="polygon7735" />
	<polygon
   points="30.855,129.076 30.809,132.817 22.172,125.226 22.172,121.302  "
   id="polygon7737" />
	<polygon
   points="30.855,113.656 30.809,117.397 22.172,109.805 22.172,105.882  "
   id="polygon7739" />
	<polygon
   points="30.855,98.544 30.809,102.286 22.172,94.694 22.172,90.771  "
   id="polygon7741" />
	<polygon
   points="30.855,83.125 30.809,86.866 22.172,79.274 22.172,75.351  "
   id="polygon7743" />
	<polygon
   points="30.855,68.013 30.809,71.754 22.172,64.163 22.172,60.239  "
   id="polygon7745" />
	<polygon
   points="30.938,52.593 30.889,56.334 22.252,48.743 22.252,44.819  "
   id="polygon7747" />
	<polygon
   points="30.938,37.481 30.889,41.224 22.252,33.631 22.252,29.708  "
   id="polygon7749" />
	<polygon
   points="30.531,541.26 30.484,545.002 21.848,537.41 21.848,533.486  "
   id="polygon7751" />
	<polygon
   points="30.531,526.148 30.484,529.889 21.848,522.297 21.848,518.377  "
   id="polygon7753" />
	<polygon
   points="30.531,571.707 30.484,575.449 21.848,567.859 21.848,563.936  "
   id="polygon7755" />
	<polygon
   points="30.531,556.598 30.484,560.34 21.848,552.746 21.848,548.824  "
   id="polygon7757" />
	<polygon
   points="30.855,510.811 30.809,514.553 22.172,506.961 22.172,503.037  "
   id="polygon7759" />
	<polygon
   points="30.855,495.699 30.809,499.443 22.172,491.852 22.172,487.926  "
   id="polygon7761" />
	<polygon
   points="30.611,602.406 30.564,606.146 21.928,598.555 21.928,594.631  "
   id="polygon7763" />
	<polygon
   points="30.611,587.293 30.564,591.037 21.928,583.445 21.928,579.521  "
   id="polygon7765" />
	<polygon
   points="30.855,633.02 30.809,636.76 22.172,629.168 22.172,625.246  "
   id="polygon7767" />
	<polygon
   points="30.855,617.906 30.809,621.65 22.172,614.059 22.172,610.135  "
   id="polygon7769" />
	<polygon
   points="30.693,663.469 30.646,667.209 22.01,659.617 22.01,655.695  "
   id="polygon7771" />
	<polygon
   points="30.693,648.357 30.646,652.1 22.01,644.508 22.01,640.584  "
   id="polygon7773" />
	<polygon
   points="30.773,694.246 30.727,697.99 22.09,690.396 22.09,686.475  "
   id="polygon7775" />
	<polygon
   points="30.773,679.137 30.727,682.877 22.09,675.285 22.09,671.361  "
   id="polygon7777" />
	<polygon
   points="30.611,724.695 30.564,728.438 21.928,720.846 21.928,716.924  "
   id="polygon7779" />
	<polygon
   points="30.611,709.586 30.564,713.328 21.928,705.734 21.928,701.811  "
   id="polygon7781" />
	<polygon
   points="30.855,755.309 30.809,759.053 22.172,751.461 22.172,747.537  "
   id="polygon7783" />
	<polygon
   points="30.855,740.199 30.809,743.939 22.172,736.348 22.172,732.424  "
   id="polygon7785" />
	<polygon
   points="30.693,785.758 30.646,789.5 22.01,781.908 22.01,777.986  "
   id="polygon7787" />
	<polygon
   points="30.693,770.648 30.646,774.389 22.01,766.797 22.01,762.875  "
   id="polygon7789" />
	<polygon
   points="30.773,801.426 30.727,805.168 22.09,797.574 22.09,793.652  "
   id="polygon7791" />
	<g
   id="g7793">
		<polygon
   points="463.566,22.203 467.23,22.251 459.793,31.066 455.949,31.066   "
   id="polygon7795" />
		<polygon
   points="448.547,22.276 452.213,22.324 444.775,31.139 440.932,31.139   "
   id="polygon7797" />
		<polygon
   points="433.652,22.203 437.318,22.251 429.879,31.066 426.037,31.066   "
   id="polygon7799" />
		<polygon
   points="418.633,22.276 422.301,22.324 414.861,31.139 411.018,31.139   "
   id="polygon7801" />
		<polygon
   points="403.74,22.203 407.404,22.251 399.967,31.066 396.123,31.066   "
   id="polygon7803" />
		<polygon
   points="388.721,22.276 392.387,22.324 384.949,31.139 381.105,31.139   "
   id="polygon7805" />
		<polygon
   points="373.906,22.285 377.57,22.333 370.133,31.149 366.289,31.149   "
   id="polygon7807" />
		<polygon
   points="358.887,22.358 362.555,22.406 355.115,31.221 351.271,31.221   "
   id="polygon7809" />
		<polygon
   points="343.914,22.285 347.578,22.333 340.139,31.15 336.297,31.15   "
   id="polygon7811" />
		<polygon
   points="328.893,22.359 332.561,22.407 325.123,31.221 321.279,31.221   "
   id="polygon7813" />
		<polygon
   points="313.918,22.285 317.584,22.333 310.145,31.15 306.301,31.15   "
   id="polygon7815" />
		<polygon
   points="298.898,22.359 302.564,22.407 295.127,31.221 291.283,31.221   "
   id="polygon7817" />
		<polygon
   points="283.926,22.369 287.59,22.417 280.152,31.232 276.309,31.232   "
   id="polygon7819" />
		<polygon
   points="268.906,22.442 272.572,22.49 265.133,31.305 261.289,31.305   "
   id="polygon7821" />
		<polygon
   points="254.092,22.452 257.758,22.5 250.318,31.315 246.475,31.315   "
   id="polygon7823" />
		<polygon
   points="239.072,22.524 242.74,22.572 235.301,31.388 231.457,31.388   "
   id="polygon7825" />
		<polygon
   points="224.1,22.535 227.764,22.583 220.326,31.398 216.482,31.398   "
   id="polygon7827" />
		<polygon
   points="209.08,22.607 212.744,22.656 205.307,31.471 201.463,31.471   "
   id="polygon7829" />
		<polygon
   points="194.266,22.534 197.93,22.583 190.492,31.398 186.648,31.398   "
   id="polygon7831" />
		<polygon
   points="179.246,22.607 182.914,22.656 175.475,31.47 171.631,31.47   "
   id="polygon7833" />
		<polygon
   points="164.352,22.451 168.018,22.5 160.578,31.315 156.736,31.315   "
   id="polygon7835" />
		<polygon
   points="149.332,22.524 153,22.572 145.561,31.387 141.719,31.387   "
   id="polygon7837" />
		<polygon
   points="134.359,22.369 138.025,22.417 130.586,31.232 126.742,31.232   "
   id="polygon7839" />
		<polygon
   points="119.34,22.442 123.006,22.49 115.566,31.305 111.723,31.305   "
   id="polygon7841" />
		<polygon
   points="104.445,22.369 108.111,22.417 100.672,31.232 96.828,31.232   "
   id="polygon7843" />
		<polygon
   points="89.428,22.442 93.092,22.49 85.654,31.305 81.809,31.305   "
   id="polygon7845" />
		<polygon
   points="74.533,22.369 78.197,22.417 70.76,31.233 66.916,31.233   "
   id="polygon7847" />
		<polygon
   points="59.514,22.442 63.178,22.491 55.74,31.305 51.896,31.305   "
   id="polygon7849" />
		<polygon
   points="44.619,22.452 48.285,22.5 40.846,31.315 37.002,31.315   "
   id="polygon7851" />
		<polygon
   points="523.393,22.038 527.057,22.086 519.619,30.902 515.775,30.902   "
   id="polygon7853" />
		<polygon
   points="508.373,22.111 512.039,22.16 504.602,30.975 500.758,30.975   "
   id="polygon7855" />
		<polygon
   points="553.225,22.038 556.889,22.086 549.451,30.902 545.607,30.902   "
   id="polygon7857" />
		<polygon
   points="538.205,22.111 541.871,22.16 534.434,30.975 530.59,30.975   "
   id="polygon7859" />
		<polygon
   points="493.561,22.369 497.227,22.417 489.787,31.232 485.943,31.232   "
   id="polygon7861" />
		<polygon
   points="478.541,22.442 482.207,22.49 474.768,31.305 470.924,31.305   "
   id="polygon7863" />
		<polygon
   points="567.746,22.451 571.395,22.451 564.512,31.052 560.664,31.057   "
   id="polygon7865" />
		<rect
   x="24.777"
   y="25.358"
   width="549.807"
   height="2.76"
   id="rect7867" />
		<polygon
   points="493.561,22.369 497.227,22.417 489.787,31.232 485.943,31.232   "
   id="polygon7869" />
		<polygon
   points="478.541,22.442 482.207,22.49 474.768,31.305 470.924,31.305   "
   id="polygon7871" />
		<polygon
   points="500.963,31.232 504.629,31.184 497.189,22.369 493.346,22.369   "
   id="polygon7873" />
		<polygon
   points="486.156,31.232 489.822,31.184 482.385,22.369 478.541,22.369   "
   id="polygon7875" />
		<polygon
   points="470.969,31.066 474.635,31.018 467.197,22.203 463.354,22.203   "
   id="polygon7877" />
		<polygon
   points="456.164,31.066 459.828,31.018 452.391,22.203 448.547,22.203   "
   id="polygon7879" />
		<polygon
   points="441.055,31.066 444.723,31.018 437.285,22.203 433.439,22.203   "
   id="polygon7881" />
		<polygon
   points="426.252,31.066 429.916,31.018 422.477,22.203 418.633,22.203   "
   id="polygon7883" />
		<polygon
   points="411.143,31.066 414.809,31.018 407.371,22.203 403.527,22.203   "
   id="polygon7885" />
		<polygon
   points="396.338,31.066 400.002,31.018 392.564,22.203 388.721,22.203   "
   id="polygon7887" />
		<polygon
   points="381.309,31.149 384.977,31.101 377.537,22.285 373.693,22.285   "
   id="polygon7889" />
		<polygon
   points="366.504,31.149 370.168,31.101 362.73,22.285 358.887,22.285   "
   id="polygon7891" />
		<polygon
   points="351.316,31.15 354.982,31.102 347.545,22.285 343.701,22.285   "
   id="polygon7893" />
		<polygon
   points="336.512,31.15 340.176,31.102 332.738,22.285 328.893,22.285   "
   id="polygon7895" />
		<polygon
   points="321.32,31.15 324.988,31.102 317.549,22.285 313.705,22.285   "
   id="polygon7897" />
		<polygon
   points="306.516,31.15 310.182,31.102 302.742,22.285 298.898,22.285   "
   id="polygon7899" />
		<polygon
   points="291.328,31.232 294.992,31.184 287.555,22.369 283.711,22.369   "
   id="polygon7901" />
		<polygon
   points="276.521,31.232 280.188,31.184 272.75,22.369 268.906,22.369   "
   id="polygon7903" />
		<polygon
   points="261.494,31.315 265.16,31.267 257.723,22.452 253.879,22.452   "
   id="polygon7905" />
		<polygon
   points="246.689,31.315 250.355,31.267 242.916,22.452 239.072,22.452   "
   id="polygon7907" />
		<polygon
   points="231.502,31.398 235.166,31.35 227.729,22.535 223.885,22.535   "
   id="polygon7909" />
		<polygon
   points="216.695,31.398 220.361,31.35 212.924,22.535 209.08,22.535   "
   id="polygon7911" />
		<polygon
   points="201.668,31.398 205.334,31.35 197.896,22.534 194.053,22.534   "
   id="polygon7913" />
		<polygon
   points="186.863,31.398 190.529,31.35 183.09,22.534 179.246,22.534   "
   id="polygon7915" />
		<polygon
   points="171.754,31.315 175.422,31.267 167.982,22.451 164.139,22.451   "
   id="polygon7917" />
		<polygon
   points="156.949,31.315 160.615,31.267 153.176,22.451 149.332,22.451   "
   id="polygon7919" />
		<polygon
   points="141.762,31.232 145.426,31.184 137.988,22.369 134.145,22.369   "
   id="polygon7921" />
		<polygon
   points="126.955,31.232 130.621,31.184 123.184,22.369 119.34,22.369   "
   id="polygon7923" />
		<polygon
   points="111.848,31.232 115.514,31.184 108.074,22.369 104.232,22.369   "
   id="polygon7925" />
		<polygon
   points="97.041,31.232 100.709,31.184 93.27,22.369 89.428,22.369   "
   id="polygon7927" />
		<polygon
   points="81.936,31.233 85.6,31.185 78.162,22.369 74.318,22.369   "
   id="polygon7929" />
		<polygon
   points="67.129,31.233 70.795,31.185 63.357,22.369 59.514,22.369   "
   id="polygon7931" />
		<polygon
   points="52.021,31.315 55.688,31.267 48.248,22.452 44.404,22.452   "
   id="polygon7933" />
		<polygon
   points="37.215,31.315 40.883,31.267 33.443,22.452 29.6,22.452   "
   id="polygon7935" />
		<polygon
   points="530.795,30.902 534.461,30.853 527.023,22.038 523.18,22.038   "
   id="polygon7937" />
		<polygon
   points="515.99,30.902 519.656,30.853 512.217,22.038 508.373,22.038   "
   id="polygon7939" />
		<polygon
   points="560.855,31.304 564.504,31.221 556.854,22.038 553.012,22.038   "
   id="polygon7941" />
		<polygon
   points="545.82,30.902 549.486,30.853 542.049,22.038 538.205,22.038   "
   id="polygon7943" />
		<polygon
   points="500.963,31.232 504.629,31.184 497.189,22.369 493.346,22.369   "
   id="polygon7945" />
		<polygon
   points="486.156,31.232 489.822,31.184 482.385,22.369 478.541,22.369   "
   id="polygon7947" />
	</g>
	<g
   id="g7949">
		<polygon
   points="568.832,478.906 568.881,482.648 577.518,475.057 577.518,471.133   "
   id="polygon7951" />
		<polygon
   points="568.904,463.578 568.951,467.316 577.588,459.725 577.588,455.803   "
   id="polygon7953" />
		<polygon
   points="568.832,448.375 568.881,452.117 577.518,444.525 577.518,440.6   "
   id="polygon7955" />
		<polygon
   points="568.904,433.047 568.951,436.785 577.588,429.193 577.588,425.271   "
   id="polygon7957" />
		<polygon
   points="568.832,417.844 568.881,421.584 577.518,413.992 577.518,410.07   "
   id="polygon7959" />
		<polygon
   points="568.904,402.514 568.951,406.255 577.588,398.665 577.588,394.741   "
   id="polygon7961" />
		<polygon
   points="568.914,387.394 568.961,391.135 577.598,383.543 577.598,379.62   "
   id="polygon7963" />
		<polygon
   points="568.984,372.065 569.033,375.807 577.668,368.214 577.668,364.292   "
   id="polygon7965" />
		<polygon
   points="568.914,356.781 568.961,360.522 577.598,352.93 577.598,349.006   "
   id="polygon7967" />
		<polygon
   points="568.986,341.452 569.033,345.194 577.668,337.601 577.668,333.678   "
   id="polygon7969" />
		<polygon
   points="568.914,326.167 568.961,329.908 577.598,322.315 577.598,318.392   "
   id="polygon7971" />
		<polygon
   points="568.986,310.836 569.033,314.579 577.668,306.987 577.668,303.064   "
   id="polygon7973" />
		<polygon
   points="568.994,295.552 569.043,299.293 577.68,291.702 577.68,287.778   "
   id="polygon7975" />
		<polygon
   points="569.066,280.223 569.113,283.964 577.75,276.373 577.75,272.449   "
   id="polygon7977" />
		<polygon
   points="569.076,265.104 569.125,268.845 577.76,261.252 577.76,257.329   "
   id="polygon7979" />
		<polygon
   points="569.146,249.774 569.195,253.516 577.832,245.924 577.832,242.001   "
   id="polygon7981" />
		<polygon
   points="569.156,234.489 569.205,238.23 577.842,230.639 577.842,226.715   "
   id="polygon7983" />
		<polygon
   points="569.229,219.16 569.275,222.902 577.912,215.31 577.912,211.386   "
   id="polygon7985" />
		<polygon
   points="569.156,204.041 569.203,207.782 577.842,200.189 577.842,196.267   "
   id="polygon7987" />
		<polygon
   points="569.229,188.711 569.275,192.453 577.912,184.86 577.912,180.938   "
   id="polygon7989" />
		<polygon
   points="569.076,173.51 569.123,177.251 577.76,169.658 577.76,165.735   "
   id="polygon7991" />
		<polygon
   points="569.146,158.18 569.195,161.922 577.832,154.33 577.832,150.407   "
   id="polygon7993" />
		<polygon
   points="568.994,142.895 569.043,146.636 577.68,139.044 577.68,135.121   "
   id="polygon7995" />
		<polygon
   points="569.066,127.566 569.113,131.308 577.75,123.715 577.75,119.792   "
   id="polygon7997" />
		<polygon
   points="568.994,112.364 569.043,116.104 577.68,108.513 577.68,104.59   "
   id="polygon7999" />
		<polygon
   points="569.066,97.035 569.113,100.776 577.75,93.184 577.75,89.261   "
   id="polygon8001" />
		<polygon
   points="568.994,81.833 569.043,85.573 577.68,77.982 577.68,74.058   "
   id="polygon8003" />
		<polygon
   points="569.066,66.503 569.115,70.245 577.75,62.653 577.75,58.729   "
   id="polygon8005" />
		<polygon
   points="569.076,51.301 569.125,55.042 577.76,47.45 577.76,43.527   "
   id="polygon8007" />
		<polygon
   points="568.672,539.969 568.719,543.711 577.355,536.119 577.355,532.195   "
   id="polygon8009" />
		<polygon
   points="568.742,524.641 568.789,528.379 577.426,520.787 577.426,516.865   "
   id="polygon8011" />
		<polygon
   points="568.672,570.416 568.719,574.158 577.355,566.566 577.355,562.643   "
   id="polygon8013" />
		<polygon
   points="568.742,555.088 568.789,558.828 577.426,551.236 577.426,547.313   "
   id="polygon8015" />
		<polygon
   points="568.994,509.518 569.043,513.26 577.68,505.666 577.68,501.744   "
   id="polygon8017" />
		<polygon
   points="569.066,494.189 569.113,497.932 577.75,490.34 577.75,486.416   "
   id="polygon8019" />
		<polygon
   points="568.752,601.111 568.799,604.854 577.436,597.262 577.436,593.338   "
   id="polygon8021" />
		<polygon
   points="568.824,585.783 568.871,589.525 577.508,581.934 577.508,578.01   "
   id="polygon8023" />
		<polygon
   points="568.994,631.729 569.043,635.469 577.68,627.877 577.68,623.953   "
   id="polygon8025" />
		<polygon
   points="569.066,616.398 569.113,620.141 577.75,612.547 577.75,608.625   "
   id="polygon8027" />
		<polygon
   points="568.834,662.176 568.881,665.916 577.518,658.324 577.518,654.4   "
   id="polygon8029" />
		<polygon
   points="568.904,646.846 568.951,650.59 577.588,642.996 577.588,639.074   "
   id="polygon8031" />
		<polygon
   points="568.914,692.955 568.961,696.697 577.598,689.104 577.598,685.182   "
   id="polygon8033" />
		<polygon
   points="568.986,677.625 569.033,681.367 577.668,673.773 577.668,669.852   "
   id="polygon8035" />
		<polygon
   points="568.752,723.404 568.799,727.143 577.436,719.553 577.436,715.629   "
   id="polygon8037" />
		<polygon
   points="568.824,708.074 568.871,711.816 577.508,704.225 577.508,700.301   "
   id="polygon8039" />
		<polygon
   points="568.994,754.018 569.043,757.76 577.68,750.166 577.68,746.244   "
   id="polygon8041" />
		<polygon
   points="569.066,738.688 569.113,742.43 577.75,734.838 577.75,730.914   "
   id="polygon8043" />
		<polygon
   points="568.834,784.467 568.881,788.207 577.518,780.617 577.518,776.691   "
   id="polygon8045" />
		<polygon
   points="568.904,769.139 568.951,772.879 577.588,765.287 577.588,761.363   "
   id="polygon8047" />
		<polygon
   points="568.986,799.916 569.033,803.656 577.668,796.064 577.668,792.143   "
   id="polygon8049" />
		<rect
   x="572.09"
   y="25.468"
   width="2.703"
   height="790.112"
   id="rect8051" />
		<polygon
   points="568.994,509.518 569.043,513.26 577.68,505.666 577.68,501.744   "
   id="polygon8053" />
		<polygon
   points="569.066,494.189 569.113,497.932 577.75,490.34 577.75,486.416   "
   id="polygon8055" />
		<polygon
   points="577.68,517.076 577.631,520.816 568.994,513.225 568.994,509.301   "
   id="polygon8057" />
		<polygon
   points="577.68,501.963 577.631,505.705 568.994,498.113 568.994,494.189   "
   id="polygon8059" />
		<polygon
   points="577.518,486.461 577.469,490.203 568.832,482.611 568.832,478.688   "
   id="polygon8061" />
		<polygon
   points="577.518,471.35 577.469,475.09 568.832,467.5 568.832,463.578   "
   id="polygon8063" />
		<polygon
   points="577.518,455.93 577.469,459.672 568.832,452.078 568.832,448.156   "
   id="polygon8065" />
		<polygon
   points="577.518,440.818 577.469,444.559 568.832,436.969 568.832,433.047   "
   id="polygon8067" />
		<polygon
   points="577.518,425.398 577.469,429.141 568.832,421.547 568.832,417.625   "
   id="polygon8069" />
		<polygon
   points="577.518,410.288 577.469,414.029 568.832,406.437 568.832,402.514   "
   id="polygon8071" />
		<polygon
   points="577.598,394.95 577.549,398.692 568.914,391.099 568.914,387.176   "
   id="polygon8073" />
		<polygon
   points="577.598,379.838 577.549,383.58 568.914,375.988 568.914,372.065   "
   id="polygon8075" />
		<polygon
   points="577.598,364.336 577.551,368.079 568.914,360.487 568.914,356.563   "
   id="polygon8077" />
		<polygon
   points="577.598,349.225 577.551,352.967 568.914,345.375 568.914,341.452   "
   id="polygon8079" />
		<polygon
   points="577.598,333.722 577.551,337.463 568.914,329.872 568.914,325.949   "
   id="polygon8081" />
		<polygon
   points="577.598,318.61 577.551,322.352 568.914,314.76 568.914,310.836   "
   id="polygon8083" />
		<polygon
   points="577.68,303.108 577.631,306.85 568.994,299.257 568.994,295.334   "
   id="polygon8085" />
		<polygon
   points="577.68,287.997 577.631,291.739 568.994,284.145 568.994,280.223   "
   id="polygon8087" />
		<polygon
   points="577.76,272.659 577.713,276.401 569.076,268.809 569.076,264.886   "
   id="polygon8089" />
		<polygon
   points="577.76,257.547 577.713,261.289 569.076,253.698 569.076,249.774   "
   id="polygon8091" />
		<polygon
   points="577.842,242.045 577.793,245.787 569.156,238.195 569.156,234.271   "
   id="polygon8093" />
		<polygon
   points="577.842,226.934 577.793,230.675 569.156,223.083 569.156,219.16   "
   id="polygon8095" />
		<polygon
   points="577.842,211.596 577.793,215.337 569.156,207.745 569.156,203.823   "
   id="polygon8097" />
		<polygon
   points="577.842,196.484 577.793,200.226 569.156,192.634 569.156,188.711   "
   id="polygon8099" />
		<polygon
   points="577.76,181.065 577.713,184.807 569.076,177.214 569.076,173.292   "
   id="polygon8101" />
		<polygon
   points="577.76,165.953 577.713,169.695 569.076,162.104 569.076,158.18   "
   id="polygon8103" />
		<polygon
   points="577.68,150.451 577.631,154.193 568.994,146.601 568.994,142.677   "
   id="polygon8105" />
		<polygon
   points="577.68,135.339 577.631,139.081 568.994,131.489 568.994,127.566   "
   id="polygon8107" />
		<polygon
   points="577.68,119.919 577.631,123.662 568.994,116.069 568.994,112.146   "
   id="polygon8109" />
		<polygon
   points="577.68,104.808 577.631,108.55 568.994,100.957 568.994,97.035   "
   id="polygon8111" />
		<polygon
   points="577.68,89.388 577.631,93.13 568.994,85.538 568.994,81.614   "
   id="polygon8113" />
		<polygon
   points="577.68,74.276 577.631,78.018 568.994,70.426 568.994,66.503   "
   id="polygon8115" />
		<polygon
   points="577.76,58.857 577.713,62.599 569.076,55.006 569.076,51.083   "
   id="polygon8117" />
		<polygon
   points="577.76,43.745 577.713,47.487 569.076,39.895 569.076,35.972   "
   id="polygon8119" />
		<polygon
   points="577.355,547.523 577.307,551.266 568.672,543.674 568.672,539.75   "
   id="polygon8121" />
		<polygon
   points="577.355,532.412 577.307,536.152 568.672,528.563 568.672,524.641   "
   id="polygon8123" />
		<polygon
   points="577.355,577.971 577.307,581.713 568.672,574.121 568.672,570.197   "
   id="polygon8125" />
		<polygon
   points="577.355,562.859 577.307,566.604 568.672,559.01 568.672,555.088   "
   id="polygon8127" />
		<polygon
   points="577.68,517.076 577.631,520.816 568.994,513.225 568.994,509.301   "
   id="polygon8129" />
		<polygon
   points="577.68,501.963 577.631,505.705 568.994,498.113 568.994,494.189   "
   id="polygon8131" />
		<polygon
   points="577.436,608.67 577.389,612.41 568.752,604.818 568.752,600.895   "
   id="polygon8133" />
		<polygon
   points="577.436,593.557 577.389,597.299 568.752,589.707 568.752,585.783   "
   id="polygon8135" />
		<polygon
   points="577.68,639.283 577.631,643.023 568.994,635.432 568.994,631.508   "
   id="polygon8137" />
		<polygon
   points="577.68,624.17 577.631,627.914 568.994,620.322 568.994,616.398   "
   id="polygon8139" />
		<polygon
   points="577.518,669.732 577.469,673.473 568.834,665.881 568.834,661.959   "
   id="polygon8141" />
		<polygon
   points="577.518,654.619 577.469,658.361 568.834,650.77 568.834,646.846   "
   id="polygon8143" />
		<polygon
   points="577.598,700.51 577.551,704.25 568.914,696.658 568.914,692.736   "
   id="polygon8145" />
		<polygon
   points="577.598,685.396 577.551,689.141 568.914,681.549 568.914,677.625   "
   id="polygon8147" />
		<polygon
   points="577.436,730.959 577.389,734.703 568.752,727.109 568.752,723.188   "
   id="polygon8149" />
		<polygon
   points="577.436,715.85 577.389,719.588 568.752,711.996 568.752,708.074   "
   id="polygon8151" />
		<polygon
   points="577.68,761.572 577.631,765.314 568.994,757.723 568.994,753.799   "
   id="polygon8153" />
		<polygon
   points="577.68,746.461 577.631,750.203 568.994,742.611 568.994,738.688   "
   id="polygon8155" />
		<polygon
   points="577.518,792.021 577.469,795.766 568.834,788.172 568.834,784.25   "
   id="polygon8157" />
		<polygon
   points="577.518,776.912 577.469,780.65 568.834,773.059 568.834,769.139   "
   id="polygon8159" />
		<polygon
   points="577.881,807.535 577.834,811.277 569.199,803.686 569.199,799.764   "
   id="polygon8161" />
	</g>
	<polygon
   points="577.635,29.07 577.555,33.291 567.098,22.451 570.842,22.333  "
   id="polygon8163" />
	<g
   id="g8165">
		<polygon
   points="469.184,810.051 472.848,810.1 465.41,818.914 461.566,818.914   "
   id="polygon8167" />
		<polygon
   points="454.164,810.123 457.83,810.172 450.393,818.986 446.549,818.986   "
   id="polygon8169" />
		<polygon
   points="439.27,810.051 442.936,810.1 435.496,818.914 431.654,818.914   "
   id="polygon8171" />
		<polygon
   points="424.25,810.123 427.918,810.172 420.479,818.986 416.635,818.986   "
   id="polygon8173" />
		<polygon
   points="409.357,810.051 413.021,810.1 405.584,818.914 401.74,818.914   "
   id="polygon8175" />
		<polygon
   points="394.338,810.123 398.004,810.172 390.566,818.986 386.723,818.986   "
   id="polygon8177" />
		<polygon
   points="379.523,810.135 383.189,810.182 375.75,818.996 371.906,818.996   "
   id="polygon8179" />
		<polygon
   points="364.504,810.207 368.172,810.256 360.732,819.068 356.889,819.068   "
   id="polygon8181" />
		<polygon
   points="349.531,810.135 353.195,810.182 345.756,818.998 341.914,818.998   "
   id="polygon8183" />
		<polygon
   points="334.512,810.207 338.178,810.256 330.74,819.068 326.896,819.068   "
   id="polygon8185" />
		<polygon
   points="319.535,810.135 323.201,810.182 315.762,818.998 311.918,818.998   "
   id="polygon8187" />
		<polygon
   points="304.516,810.207 308.184,810.256 300.742,819.068 296.898,819.068   "
   id="polygon8189" />
		<polygon
   points="289.541,810.215 293.207,810.264 285.768,819.08 281.924,819.08   "
   id="polygon8191" />
		<polygon
   points="274.521,810.289 278.186,810.338 270.748,819.152 266.904,819.152   "
   id="polygon8193" />
		<polygon
   points="259.707,810.301 263.371,810.35 255.934,819.162 252.09,819.162   "
   id="polygon8195" />
		<polygon
   points="244.688,810.371 248.354,810.42 240.916,819.236 237.072,819.236   "
   id="polygon8197" />
		<polygon
   points="229.715,810.383 233.379,810.432 225.941,819.246 222.098,819.246   "
   id="polygon8199" />
		<polygon
   points="214.695,810.455 218.359,810.504 210.922,819.318 207.078,819.318   "
   id="polygon8201" />
		<polygon
   points="199.881,810.383 203.545,810.43 196.107,819.246 192.264,819.246   "
   id="polygon8203" />
		<polygon
   points="184.861,810.455 188.527,810.504 181.09,819.316 177.246,819.316   "
   id="polygon8205" />
		<polygon
   points="169.967,810.299 173.633,810.348 166.193,819.162 162.35,819.162   "
   id="polygon8207" />
		<polygon
   points="154.947,810.371 158.615,810.42 151.176,819.234 147.332,819.234   "
   id="polygon8209" />
		<polygon
   points="139.975,810.215 143.639,810.264 136.201,819.08 132.357,819.08   "
   id="polygon8211" />
		<polygon
   points="124.955,810.289 128.619,810.338 121.182,819.152 117.338,819.152   "
   id="polygon8213" />
		<polygon
   points="111.033,810.215 114.699,810.264 107.26,819.08 103.416,819.08   "
   id="polygon8215" />
		<polygon
   points="96.014,810.289 99.68,810.338 92.24,819.152 88.396,819.152   "
   id="polygon8217" />
		<polygon
   points="81.121,810.215 84.785,810.264 77.348,819.08 73.504,819.08   "
   id="polygon8219" />
		<polygon
   points="66.102,810.291 69.766,810.34 62.328,819.152 58.484,819.152   "
   id="polygon8221" />
		<polygon
   points="51.207,810.301 54.873,810.35 47.434,819.162 43.59,819.162   "
   id="polygon8223" />
		<polygon
   points="529.01,809.885 532.674,809.934 525.236,818.75 521.393,818.75   "
   id="polygon8225" />
		<polygon
   points="513.99,809.957 517.656,810.006 510.217,818.822 506.373,818.822   "
   id="polygon8227" />
		<polygon
   points="558.842,809.885 562.506,809.934 555.068,818.75 551.225,818.75   "
   id="polygon8229" />
		<polygon
   points="543.822,809.957 547.488,810.006 540.049,818.822 536.205,818.822   "
   id="polygon8231" />
		<polygon
   points="499.176,810.215 502.842,810.264 495.404,819.08 491.561,819.08   "
   id="polygon8233" />
		<polygon
   points="484.158,810.289 487.824,810.338 480.385,819.152 476.541,819.152   "
   id="polygon8235" />
		<rect
   x="25.107"
   y="813.236"
   width="547.061"
   height="2.762"
   id="rect8237" />
		<polygon
   points="499.176,810.215 502.842,810.264 495.404,819.08 491.561,819.08   "
   id="polygon8239" />
		<polygon
   points="484.158,810.289 487.824,810.338 480.385,819.152 476.541,819.152   "
   id="polygon8241" />
		<polygon
   points="506.578,819.08 510.246,819.031 502.807,810.215 498.963,810.215   "
   id="polygon8243" />
		<polygon
   points="491.773,819.08 495.439,819.031 488,810.215 484.158,810.215   "
   id="polygon8245" />
		<polygon
   points="476.586,818.914 480.252,818.865 472.813,810.051 468.969,810.051   "
   id="polygon8247" />
		<polygon
   points="461.779,818.914 465.445,818.865 458.008,810.051 454.164,810.051   "
   id="polygon8249" />
		<polygon
   points="446.672,818.914 450.34,818.865 442.902,810.051 439.057,810.051   "
   id="polygon8251" />
		<polygon
   points="431.869,818.914 435.533,818.865 428.094,810.051 424.25,810.051   "
   id="polygon8253" />
		<polygon
   points="416.76,818.914 420.426,818.865 412.988,810.051 409.145,810.051   "
   id="polygon8255" />
		<polygon
   points="401.955,818.914 405.619,818.865 398.182,810.051 394.338,810.051   "
   id="polygon8257" />
		<polygon
   points="386.926,818.996 390.594,818.947 383.154,810.135 379.311,810.135   "
   id="polygon8259" />
		<polygon
   points="372.121,818.996 375.785,818.947 368.348,810.135 364.504,810.135   "
   id="polygon8261" />
		<polygon
   points="356.934,818.998 360.6,818.949 353.162,810.135 349.318,810.135   "
   id="polygon8263" />
		<polygon
   points="342.129,818.998 345.793,818.949 338.355,810.135 334.512,810.135   "
   id="polygon8265" />
		<polygon
   points="326.938,818.998 330.605,818.949 323.166,810.135 319.322,810.135   "
   id="polygon8267" />
		<polygon
   points="312.133,818.998 315.799,818.949 308.359,810.135 304.516,810.135   "
   id="polygon8269" />
		<polygon
   points="296.943,819.08 300.607,819.031 293.17,810.215 289.326,810.215   "
   id="polygon8271" />
		<polygon
   points="282.137,819.08 285.803,819.031 278.365,810.215 274.521,810.215   "
   id="polygon8273" />
		<polygon
   points="267.109,819.162 270.777,819.113 263.338,810.301 259.494,810.301   "
   id="polygon8275" />
		<polygon
   points="252.305,819.162 255.971,819.113 248.531,810.301 244.688,810.301   "
   id="polygon8277" />
		<polygon
   points="237.115,819.246 240.781,819.197 233.342,810.383 229.5,810.383   "
   id="polygon8279" />
		<polygon
   points="222.309,819.246 225.977,819.197 218.537,810.383 214.695,810.383   "
   id="polygon8281" />
		<polygon
   points="207.283,819.246 210.949,819.197 203.512,810.383 199.668,810.383   "
   id="polygon8283" />
		<polygon
   points="192.479,819.246 196.143,819.197 188.705,810.383 184.861,810.383   "
   id="polygon8285" />
		<polygon
   points="177.369,819.162 181.037,819.113 173.598,810.299 169.754,810.299   "
   id="polygon8287" />
		<polygon
   points="162.564,819.162 166.23,819.113 158.791,810.299 154.947,810.299   "
   id="polygon8289" />
		<polygon
   points="147.377,819.08 151.041,819.031 143.604,810.215 139.76,810.215   "
   id="polygon8291" />
		<polygon
   points="132.57,819.08 136.236,819.031 128.799,810.215 124.955,810.215   "
   id="polygon8293" />
		<polygon
   points="118.436,819.08 122.102,819.031 114.662,810.215 110.818,810.215   "
   id="polygon8295" />
		<polygon
   points="103.629,819.08 107.297,819.031 99.857,810.215 96.014,810.215   "
   id="polygon8297" />
		<polygon
   points="88.523,819.08 92.188,819.033 84.75,810.215 80.906,810.215   "
   id="polygon8299" />
		<polygon
   points="73.717,819.08 77.383,819.033 69.945,810.215 66.102,810.215   "
   id="polygon8301" />
		<polygon
   points="58.609,819.162 62.275,819.113 54.836,810.301 50.992,810.301   "
   id="polygon8303" />
		<polygon
   points="43.803,819.162 47.471,819.113 40.031,810.301 36.188,810.301   "
   id="polygon8305" />
		<polygon
   points="536.412,818.75 540.078,818.701 532.639,809.885 528.795,809.885   "
   id="polygon8307" />
		<polygon
   points="521.605,818.75 525.273,818.701 517.834,809.885 513.99,809.885   "
   id="polygon8309" />
		<polygon
   points="566.473,819.152 570.119,819.068 562.471,809.885 558.627,809.885   "
   id="polygon8311" />
		<polygon
   points="551.438,818.75 555.104,818.701 547.666,809.885 543.822,809.885   "
   id="polygon8313" />
		<polygon
   points="506.578,819.08 510.246,819.031 502.807,810.215 498.963,810.215   "
   id="polygon8315" />
		<polygon
   points="491.773,819.08 495.439,819.031 488,810.215 484.158,810.215   "
   id="polygon8317" />
	</g>
	<polygon
   points="33.373,819.189 29.346,819.203 22.09,812.688 22.09,808.764  "
   id="polygon8319" />
</g>



<rect
   x="21.662"
   y="21.674"
   fill="none"
   width="552.667"
   height="840"
   id="rect9125" />
<rect
   style="fill:#ffffff;stroke:#76bb64;stroke-width:0.52670056;stroke-miterlimit:10"
   x="455.94659"
   y="44.586395"
   stroke-miterlimit="10"
   width="93.998856"
   height="34.747589"
   id="rect3382" /><g
   transform="translate(-5.251397,-2.1227595)"
   id="g4888"><path
     style="fill:#76bb64"
     inkscape:connector-curvature="0"
     d="m 473.129,56.148 c -0.195,0.098 -0.637,0.203 -1.211,0.203 -1.632,0 -2.473,-1.015 -2.473,-2.36 0,-1.611 1.148,-2.507 2.577,-2.507 0.554,0 0.974,0.112 1.163,0.21 l -0.218,0.847 c -0.217,-0.091 -0.518,-0.175 -0.896,-0.175 -0.847,0 -1.505,0.511 -1.505,1.562 0,0.946 0.56,1.541 1.513,1.541 0.322,0 0.679,-0.07 0.889,-0.154 l 0.161,0.833 z"
     id="path4890" /><path
     style="fill:#76bb64"
     inkscape:connector-curvature="0"
     d="m 474.479,54.909 c 0.034,0.441 0.469,0.651 0.966,0.651 0.364,0 0.658,-0.049 0.946,-0.14 l 0.14,0.721 c -0.351,0.14 -0.777,0.21 -1.239,0.21 -1.163,0 -1.828,-0.672 -1.828,-1.744 0,-0.869 0.539,-1.828 1.729,-1.828 1.106,0 1.527,0.861 1.527,1.709 0,0.182 -0.021,0.343 -0.035,0.42 h -2.206 z m 1.253,-0.729 c 0,-0.259 -0.111,-0.693 -0.602,-0.693 -0.448,0 -0.631,0.406 -0.659,0.693 h 1.261 z"
     id="path4892" /><path
     style="fill:#76bb64"
     inkscape:connector-curvature="0"
     d="m 477.355,53.984 c 0,-0.504 -0.014,-0.833 -0.027,-1.127 h 0.917 l 0.035,0.63 h 0.028 c 0.175,-0.498 0.595,-0.708 0.925,-0.708 0.098,0 0.146,0 0.224,0.014 v 1.001 c -0.077,-0.014 -0.168,-0.028 -0.287,-0.028 -0.393,0 -0.658,0.21 -0.729,0.539 -0.014,0.07 -0.021,0.154 -0.021,0.238 v 1.737 h -1.065 v -2.296 z"
     id="path4894" /><path
     style="fill:#76bb64"
     inkscape:connector-curvature="0"
     d="m 481.354,51.876 v 0.98 h 0.763 v 0.784 h -0.763 v 1.24 c 0,0.414 0.098,0.603 0.42,0.603 0.133,0 0.238,-0.014 0.315,-0.028 l 0.007,0.806 c -0.141,0.056 -0.393,0.091 -0.693,0.091 -0.344,0 -0.631,-0.119 -0.799,-0.294 -0.195,-0.203 -0.294,-0.532 -0.294,-1.016 v -1.401 h -0.455 v -0.784 h 0.455 v -0.743 l 1.044,-0.238 z"
     id="path4896" /><path
     style="fill:#76bb64"
     inkscape:connector-curvature="0"
     d="m 483.831,51.904 c 0,0.294 -0.224,0.532 -0.574,0.532 -0.336,0 -0.56,-0.238 -0.553,-0.532 -0.007,-0.308 0.217,-0.539 0.561,-0.539 0.342,0 0.559,0.231 0.566,0.539 z m -1.1,4.377 v -3.425 h 1.065 v 3.425 h -1.065 z"
     id="path4898" /><path
     style="fill:#76bb64"
     inkscape:connector-curvature="0"
     d="M 484.769,56.281 V 53.64 h -0.448 v -0.784 h 0.448 v -0.147 c 0,-0.946 0.735,-1.478 1.793,-1.478 0.364,0 0.799,0.084 1.009,0.21 l -0.203,0.806 c -0.168,-0.091 -0.441,-0.175 -0.777,-0.175 -0.561,0 -0.756,0.288 -0.756,0.666 v 0.119 h 2.08 v 3.425 h -1.065 v -2.641 h -1.008 v 2.641 h -1.073 z"
     id="path4900" /><path
     style="fill:#76bb64"
     inkscape:connector-curvature="0"
     d="m 491.337,56.197 c -0.189,0.084 -0.547,0.154 -0.953,0.154 -1.106,0 -1.813,-0.672 -1.813,-1.75 0,-1.002 0.687,-1.821 1.961,-1.821 0.28,0 0.588,0.049 0.813,0.133 l -0.168,0.792 c -0.126,-0.056 -0.315,-0.105 -0.596,-0.105 -0.561,0 -0.925,0.399 -0.918,0.959 0,0.63 0.421,0.96 0.939,0.96 0.252,0 0.448,-0.042 0.608,-0.105 l 0.127,0.783 z"
     id="path4902" /><path
     style="fill:#76bb64"
     inkscape:connector-curvature="0"
     d="m 493.898,56.281 -0.063,-0.343 h -0.021 c -0.224,0.273 -0.574,0.42 -0.98,0.42 -0.693,0 -1.106,-0.504 -1.106,-1.051 0,-0.889 0.799,-1.316 2.01,-1.31 v -0.049 c 0,-0.182 -0.098,-0.441 -0.623,-0.441 -0.351,0 -0.722,0.119 -0.945,0.259 l -0.196,-0.687 c 0.238,-0.133 0.707,-0.301 1.331,-0.301 1.142,0 1.506,0.672 1.506,1.478 v 1.19 c 0,0.329 0.014,0.645 0.049,0.833 h -0.962 z m -0.126,-1.617 c -0.561,-0.007 -0.994,0.126 -0.994,0.539 0,0.273 0.182,0.406 0.42,0.406 0.267,0 0.483,-0.175 0.554,-0.392 0.014,-0.056 0.021,-0.119 0.021,-0.182 v -0.371 z"
     id="path4904" /><path
     style="fill:#76bb64"
     inkscape:connector-curvature="0"
     d="m 496.783,51.876 v 0.98 h 0.763 v 0.784 h -0.763 v 1.24 c 0,0.414 0.098,0.603 0.42,0.603 0.133,0 0.238,-0.014 0.315,-0.028 l 0.007,0.806 c -0.141,0.056 -0.393,0.091 -0.693,0.091 -0.344,0 -0.631,-0.119 -0.799,-0.294 -0.195,-0.203 -0.294,-0.532 -0.294,-1.016 v -1.401 h -0.455 v -0.784 h 0.455 v -0.743 l 1.044,-0.238 z"
     id="path4906" /><path
     style="fill:#76bb64"
     inkscape:connector-curvature="0"
     d="m 498.946,54.909 c 0.034,0.441 0.469,0.651 0.966,0.651 0.364,0 0.658,-0.049 0.946,-0.14 l 0.14,0.721 c -0.351,0.14 -0.777,0.21 -1.239,0.21 -1.163,0 -1.828,-0.672 -1.828,-1.744 0,-0.869 0.539,-1.828 1.729,-1.828 1.106,0 1.527,0.861 1.527,1.709 0,0.182 -0.021,0.343 -0.035,0.42 h -2.206 z m 1.253,-0.729 c 0,-0.259 -0.111,-0.693 -0.602,-0.693 -0.448,0 -0.631,0.406 -0.659,0.693 h 1.261 z"
     id="path4908" /><path
     style="fill:#76bb64"
     inkscape:connector-curvature="0"
     d="m 506.619,54.53 c 0,1.254 -0.889,1.828 -1.807,1.828 -1.001,0 -1.771,-0.659 -1.771,-1.765 0,-1.106 0.729,-1.814 1.828,-1.814 1.05,0 1.75,0.722 1.75,1.751 z m -2.478,0.035 c 0,0.588 0.245,1.029 0.7,1.029 0.413,0 0.68,-0.413 0.68,-1.029 0,-0.511 -0.196,-1.03 -0.68,-1.03 -0.512,0.001 -0.7,0.526 -0.7,1.03 z"
     id="path4910" /><path
     style="fill:#76bb64"
     inkscape:connector-curvature="0"
     d="M 507.395,56.281 V 53.64 h -0.448 v -0.784 h 0.448 v -0.133 c 0,-0.413 0.127,-0.868 0.435,-1.148 0.267,-0.252 0.638,-0.343 0.945,-0.343 0.238,0 0.421,0.028 0.567,0.07 l -0.042,0.819 c -0.091,-0.028 -0.203,-0.049 -0.343,-0.049 -0.351,0 -0.497,0.273 -0.497,0.609 v 0.175 h 0.686 v 0.784 h -0.679 v 2.641 h -1.072 z"
     id="path4912" /><path
     style="fill:#76bb64"
     inkscape:connector-curvature="0"
     d="m 515.433,53.872 c 0,1.548 -0.938,2.486 -2.317,2.486 -1.401,0 -2.221,-1.058 -2.221,-2.402 0,-1.415 0.903,-2.472 2.297,-2.472 1.45,0 2.241,1.085 2.241,2.388 z m -3.411,0.063 c 0,0.924 0.434,1.576 1.148,1.576 0.722,0 1.135,-0.687 1.135,-1.604 0,-0.847 -0.406,-1.576 -1.142,-1.576 -0.721,0 -1.141,0.687 -1.141,1.604 z"
     id="path4914" /><path
     style="fill:#76bb64"
     inkscape:connector-curvature="0"
     d="m 518.666,56.197 c -0.189,0.084 -0.547,0.154 -0.953,0.154 -1.106,0 -1.813,-0.672 -1.813,-1.75 0,-1.002 0.687,-1.821 1.961,-1.821 0.28,0 0.588,0.049 0.813,0.133 l -0.168,0.792 C 518.38,53.649 518.191,53.6 517.91,53.6 c -0.561,0 -0.925,0.399 -0.918,0.959 0,0.63 0.421,0.96 0.939,0.96 0.252,0 0.448,-0.042 0.608,-0.105 l 0.127,0.783 z"
     id="path4916" /><path
     style="fill:#76bb64"
     inkscape:connector-curvature="0"
     d="m 521.746,56.197 c -0.189,0.084 -0.547,0.154 -0.953,0.154 -1.106,0 -1.813,-0.672 -1.813,-1.75 0,-1.002 0.687,-1.821 1.961,-1.821 0.28,0 0.588,0.049 0.813,0.133 l -0.168,0.792 C 521.46,53.649 521.271,53.6 520.99,53.6 c -0.561,0 -0.925,0.399 -0.918,0.959 0,0.63 0.421,0.96 0.939,0.96 0.252,0 0.448,-0.042 0.608,-0.105 l 0.127,0.783 z"
     id="path4918" /><path
     style="fill:#76bb64"
     inkscape:connector-curvature="0"
     d="m 525.562,55.182 c 0,0.448 0.014,0.813 0.027,1.1 h -0.924 l -0.049,-0.483 h -0.021 c -0.133,0.21 -0.455,0.561 -1.071,0.561 -0.693,0 -1.205,-0.435 -1.205,-1.492 v -2.01 h 1.071 V 54.7 c 0,0.498 0.161,0.799 0.532,0.799 0.295,0 0.463,-0.203 0.533,-0.372 0.027,-0.063 0.034,-0.147 0.034,-0.231 v -2.038 h 1.072 v 2.324 z"
     id="path4920" /><path
     style="fill:#76bb64"
     inkscape:connector-curvature="0"
     d="m 526.413,54.005 c 0,-0.448 -0.014,-0.833 -0.027,-1.148 h 0.924 l 0.05,0.476 h 0.014 c 0.252,-0.364 0.645,-0.553 1.142,-0.553 0.749,0 1.422,0.651 1.422,1.744 0,1.247 -0.791,1.835 -1.555,1.835 -0.413,0 -0.735,-0.168 -0.89,-0.392 h -0.014 v 1.702 h -1.065 v -3.664 z m 1.066,0.806 c 0,0.084 0.007,0.161 0.021,0.224 0.07,0.287 0.315,0.504 0.623,0.504 0.463,0 0.735,-0.385 0.735,-0.967 0,-0.546 -0.245,-0.959 -0.721,-0.959 -0.302,0 -0.567,0.224 -0.638,0.54 -0.014,0.056 -0.021,0.126 -0.021,0.189 v 0.469 z"
     id="path4922" /><path
     style="fill:#76bb64"
     inkscape:connector-curvature="0"
     d="m 532.546,56.281 -0.063,-0.343 h -0.021 c -0.224,0.273 -0.574,0.42 -0.98,0.42 -0.693,0 -1.106,-0.504 -1.106,-1.051 0,-0.889 0.799,-1.316 2.01,-1.31 v -0.049 c 0,-0.182 -0.098,-0.441 -0.623,-0.441 -0.351,0 -0.722,0.119 -0.945,0.259 l -0.196,-0.687 c 0.238,-0.133 0.707,-0.301 1.331,-0.301 1.142,0 1.506,0.672 1.506,1.478 v 1.19 c 0,0.329 0.014,0.645 0.049,0.833 h -0.962 z m -0.126,-1.617 c -0.561,-0.007 -0.994,0.126 -0.994,0.539 0,0.273 0.182,0.406 0.42,0.406 0.267,0 0.483,-0.175 0.554,-0.392 0.014,-0.056 0.021,-0.119 0.021,-0.182 v -0.371 z"
     id="path4924" /><path
     style="fill:#76bb64"
     inkscape:connector-curvature="0"
     d="m 534.295,53.949 c 0,-0.427 -0.014,-0.792 -0.027,-1.093 h 0.924 l 0.05,0.469 h 0.021 c 0.141,-0.217 0.49,-0.546 1.058,-0.546 0.7,0 1.226,0.462 1.226,1.471 v 2.031 h -1.064 v -1.898 c 0,-0.441 -0.154,-0.743 -0.539,-0.743 -0.294,0 -0.47,0.203 -0.539,0.399 -0.028,0.063 -0.042,0.168 -0.042,0.266 v 1.975 h -1.065 v -2.331 z"
     id="path4926" /><path
     style="fill:#76bb64"
     inkscape:connector-curvature="0"
     d="m 540.968,56.197 c -0.189,0.084 -0.547,0.154 -0.953,0.154 -1.106,0 -1.813,-0.672 -1.813,-1.75 0,-1.002 0.687,-1.821 1.961,-1.821 0.28,0 0.588,0.049 0.813,0.133 l -0.168,0.792 c -0.126,-0.056 -0.315,-0.105 -0.596,-0.105 -0.561,0 -0.925,0.399 -0.918,0.959 0,0.63 0.421,0.96 0.939,0.96 0.252,0 0.448,-0.042 0.608,-0.105 l 0.127,0.783 z"
     id="path4928" /><path
     style="fill:#76bb64"
     inkscape:connector-curvature="0"
     d="m 542.458,52.856 0.512,1.681 c 0.056,0.203 0.126,0.456 0.168,0.638 h 0.021 c 0.049,-0.182 0.105,-0.441 0.154,-0.638 l 0.42,-1.681 h 1.142 l -0.798,2.255 c -0.49,1.358 -0.819,1.905 -1.205,2.248 -0.371,0.322 -0.764,0.434 -1.029,0.469 l -0.225,-0.903 c 0.134,-0.021 0.302,-0.084 0.463,-0.182 0.161,-0.084 0.336,-0.252 0.441,-0.427 0.034,-0.049 0.056,-0.105 0.056,-0.154 0,-0.035 -0.007,-0.091 -0.049,-0.175 l -1.254,-3.131 h 1.183 z"
     id="path4930" /><path
     style="fill:#76bb64"
     inkscape:connector-curvature="0"
     d="M 469.732,69.281 V 64.56 h 0.665 l 1.514,2.389 c 0.35,0.553 0.623,1.05 0.847,1.534 l 0.015,-0.007 c -0.057,-0.63 -0.07,-1.205 -0.07,-1.94 v -1.975 h 0.574 v 4.721 h -0.616 l -1.499,-2.396 c -0.329,-0.525 -0.645,-1.064 -0.883,-1.576 l -0.021,0.007 c 0.035,0.596 0.049,1.163 0.049,1.947 v 2.017 h -0.575 z"
     id="path4932" /><path
     style="fill:#76bb64"
     inkscape:connector-curvature="0"
     d="m 477.385,67.558 c 0,1.254 -0.868,1.8 -1.688,1.8 -0.917,0 -1.624,-0.672 -1.624,-1.744 0,-1.135 0.742,-1.8 1.681,-1.8 0.973,0 1.631,0.708 1.631,1.744 z m -2.69,0.035 c 0,0.743 0.427,1.303 1.029,1.303 0.589,0 1.029,-0.553 1.029,-1.317 0,-0.574 -0.287,-1.302 -1.016,-1.302 -0.726,0 -1.042,0.672 -1.042,1.316 z"
     id="path4934" /><path
     style="fill:#76bb64"
     inkscape:connector-curvature="0"
     d="m 477.845,68.917 c 0,-0.259 0.175,-0.441 0.42,-0.441 0.245,0 0.413,0.182 0.413,0.441 0,0.252 -0.161,0.441 -0.42,0.441 -0.245,0 -0.413,-0.189 -0.413,-0.441 z"
     id="path4936" /></g><line
   style="fill:none;stroke:#76bb64;stroke-width:0.5;stroke-miterlimit:10"
   stroke-miterlimit="10"
   x1="475.80334"
   y1="68.831612"
   x2="539.47034"
   y2="68.831612"
   id="line4938" /><rect
   style="fill:none;stroke:#be1e2d;stroke-width:2.06056881;stroke-miterlimit:10"
   x="11.554458"
   y="13.572508"
   stroke-miterlimit="10"
   width="569.271"
   height="812.23755"
   id="rect3391" /><rect
   style="fill:none;stroke:#be1e2d;stroke-width:0.99213505;stroke-miterlimit:10"
   x="21.361523"
   y="22.31699"
   stroke-miterlimit="10"
   width="547.69202"
   height="792.88574"
   id="rect3393" /></svg>